<?xml version="1.0" encoding="utf-8"?>
<!-- Generator: Adobe Illustrator 27.2.0, SVG Export Plug-In . SVG Version: 6.00 Build 0)  -->
<svg version="1.1" id="Layer_1" xmlns="http://www.w3.org/2000/svg" xmlns:xlink="http://www.w3.org/1999/xlink" x="0px" y="0px"
	 viewBox="0 0 107.1 95.4" style="enable-background:new 0 0 107.1 95.4;" xml:space="preserve">
<style type="text/css">
	.st0{fill:#010101;}
</style>
<g>
	<path class="st0" d="M53.2,0c3.6-0.2,7.2,0.4,10.6,1.5c3.9,1.3,7.4,3.5,10.3,6.4c3.6,3.5,6.2,7.9,7.6,12.7c0.9,3.2,1.2,6.6,0.9,10
		c-1.6,1.4-3.3,2.6-5.2,3.7c-6,3.6-12.7,6-19.5,7.6c-3.2,0.8-6.6,1.3-9.9,1.6c-2.8,0.3-5.7,0.4-8.6,0.3c-3-0.2-6.1-0.4-9-1.3
		c-2.2-3.5-3.5-7.6-3.9-11.7c-0.1-0.7,0-1.4-0.2-2.1c0-0.4,0-0.8,0-1.3c0.1-0.7,0-1.4,0.2-2.1c0.4-4.1,1.7-8.1,3.8-11.6
		c3-5.1,7.7-9.2,13.2-11.5C46.6,0.9,49.9,0.2,53.2,0z"/>
	<path class="st0" d="M73.5,5.1C79.6,5.1,85.7,5.4,91.6,7c2.4,0.6,4.7,1.5,6.8,2.7c1.9,1.1,3.6,2.4,4.8,4.2c1,1.5,1.5,3.3,1.4,5
		c0,2.1-0.9,4-1.9,5.8c-1.3,2.1-3,4-4.8,5.7c-3.4,3.1-7.3,5.5-11.3,7.7c-8.8,4.7-18.4,7.9-28.1,10.1c-9.2,2.1-18.7,3.2-28.1,2.8
		c-1-0.1-2-0.1-3.1-0.2C23.7,50.6,20,50,16.5,49c-2.7-0.8-5.4-1.9-7.7-3.7C7,44,5.6,42.2,4.9,40.1c-0.6-2.1-0.4-4.3,0.4-6.3
		c1.1-2.7,2.9-4.9,5-7c2.9-2.8,6.2-5.1,9.7-7.2c2.5-1.4,5-2.8,7.6-3.9c-1,2.4-1.8,4.9-2.3,7.5c-0.2,0.6-0.1,1.2-0.3,1.7
		c-1.2,1.2-2.4,2.4-3.3,3.8c-1.2,1.8-2.2,3.9-2.1,6.1c0.1,2.1,1.1,4,2.6,5.3c2.6,2.4,6.1,3.6,9.5,4.3c4.6,1,9.3,1.1,14,0.8
		c5.4-0.4,10.8-1.3,16-2.8c4.9-1.4,9.7-3.2,14.3-5.6c2.3-1.2,4.4-2.6,6.5-4.2c2.2-1.7,4.2-3.7,5.7-6.1c0.9-1.5,1.5-3.2,1.5-4.9
		c0-1.9-0.9-3.8-2.2-5.2c-2.1-2.1-4.9-3.3-7.6-4.1C78,9.7,75.9,7.2,73.5,5.1L73.5,5.1z"/>
	<path class="st0" d="M46.5,51.9c10.7-1.3,21.3-4,31.4-8c0,0.2-0.2,0.3-0.3,0.5c-2.9,4.2-7,7.5-11.7,9.6c-6.3,2.8-13.6,3.1-20.1,0.9
		c-1.8-0.6-3.5-1.4-5.2-2.3c0,0,0-0.1,0-0.2C42.5,52.3,44.5,52.1,46.5,51.9z"/>
</g>
<g>
	<path d="M20.7,61.3c0.5,0.5,0.8,1.2,0.8,1.9s-0.3,1.4-0.8,1.9c-0.5,0.5-1.2,0.8-1.9,0.8h-5.3v17c0,0.8-0.3,1.4-0.8,1.9
		c-0.5,0.5-1.2,0.8-1.9,0.8s-1.4-0.3-1.9-0.8C8.3,84.4,8,83.7,8,82.9v-17H2.7c-0.8,0-1.4-0.3-1.9-0.8C0.3,64.6,0,64,0,63.2
		s0.3-1.4,0.8-1.9c0.5-0.5,1.2-0.8,1.9-0.8h16.1C19.6,60.5,20.2,60.7,20.7,61.3z"/>
	<path d="M26.1,61.3c0.5-0.5,1.2-0.8,1.9-0.8s1.4,0.3,1.9,0.8c0.5,0.5,0.8,1.2,0.8,1.9v19.7c0,0.8-0.3,1.4-0.8,1.9
		c-0.5,0.5-1.2,0.8-1.9,0.8s-1.4-0.3-1.9-0.8c-0.5-0.5-0.8-1.2-0.8-1.9V63.2C25.3,62.4,25.5,61.8,26.1,61.3z"/>
	<path d="M55.2,61.3c0.5,0.5,0.8,1.2,0.8,1.9s-0.3,1.4-0.8,1.9c-0.5,0.5-1.2,0.8-1.9,0.8H48v17c0,0.8-0.3,1.4-0.8,1.9
		c-0.5,0.5-1.2,0.8-1.9,0.8s-1.4-0.3-1.9-0.8c-0.5-0.5-0.8-1.2-0.8-1.9v-17h-5.3c-0.8,0-1.4-0.3-1.9-0.8c-0.5-0.5-0.8-1.2-0.8-1.9
		s0.3-1.4,0.8-1.9c0.5-0.5,1.2-0.8,1.9-0.8h16.1C54,60.5,54.7,60.7,55.2,61.3z"/>
	<path d="M80.3,81.7c0.3,0.7,0.4,1.4,0.2,2.1c-0.2,0.7-0.7,1.2-1.3,1.6c-0.7,0.4-1.4,0.4-2.1,0.2s-1.2-0.7-1.6-1.3
		c-0.1-0.2-0.3-0.5-0.4-0.8c-0.2-0.4-0.6-1.1-1-2H61.2c-0.5,0.9-0.8,1.5-1,2c-0.1,0.3-0.3,0.5-0.4,0.8c-0.3,0.7-0.9,1.1-1.6,1.3
		s-1.4,0.2-2.1-0.2c-0.7-0.3-1.1-0.9-1.3-1.6c-0.2-0.7-0.2-1.4,0.2-2.1l10.3-19.7c0.2-0.5,0.6-0.8,1-1.1c0.4-0.3,0.9-0.4,1.4-0.4
		c0.5,0,1,0.1,1.4,0.4c0.4,0.3,0.8,0.6,1,1.1L80.3,81.7z M71.5,76.3l-3.9-7.5l-3.9,7.5H71.5z"/>
	<path d="M86.2,60.7c0.5-0.2,1.1-0.2,1.6-0.1c0.6,0.1,1,0.4,1.4,0.9c1.3,1.6,2.7,3.3,4.1,5c0.6,0.7,1.2,1.5,1.9,2.2
		c0.6,0.8,1.3,1.6,2,2.4c0.7,0.8,1.3,1.6,2,2.4c0.7,0.8,1.3,1.5,1.9,2.2V63.2c0-0.8,0.3-1.4,0.8-1.9c0.5-0.5,1.2-0.8,1.9-0.8
		c0.8,0,1.4,0.3,1.9,0.8c0.5,0.5,0.8,1.2,0.8,1.9v19.7c0,0.6-0.2,1.1-0.5,1.5c-0.3,0.5-0.8,0.8-1.3,1c-0.6,0.2-1.1,0.2-1.7,0.1
		c-0.6-0.1-1-0.4-1.4-0.9c-1.4-1.6-2.7-3.3-4.1-5c-1.2-1.4-2.5-3-3.9-4.6c-1.4-1.6-2.7-3.1-3.9-4.6v12.4c0,0.8-0.3,1.4-0.8,1.9
		c-0.5,0.5-1.2,0.8-1.9,0.8c-0.8,0-1.4-0.3-1.9-0.8c-0.5-0.5-0.8-1.2-0.8-1.9V63.2c0-0.6,0.2-1.1,0.5-1.5
		C85.2,61.2,85.6,60.8,86.2,60.7z"/>
	<path d="M7.2,90.2c0-0.2,0.1-0.3,0.2-0.4c0.1-0.1,0.3-0.1,0.5-0.1c0.2,0,0.3,0.1,0.4,0.2c0.1,0.1,0.1,0.3,0.1,0.5l-0.6,4.4
		c0,0.1-0.1,0.2-0.1,0.3c-0.1,0.1-0.2,0.2-0.3,0.2c-0.1,0-0.2,0-0.4,0c-0.1,0-0.2-0.1-0.3-0.2c-0.2-0.3-0.4-0.5-0.6-0.8
		C6,94,5.8,93.7,5.6,93.5c-0.2-0.3-0.3-0.5-0.5-0.7C5,93,4.9,93.2,4.7,93.5c-0.2,0.3-0.3,0.5-0.5,0.7C4,94.5,3.8,94.7,3.6,95
		c-0.1,0.1-0.2,0.2-0.3,0.2s-0.2,0.1-0.4,0c-0.1,0-0.2-0.1-0.3-0.2c-0.1-0.1-0.1-0.2-0.1-0.3l-0.6-4.4c0-0.2,0-0.3,0.1-0.5
		c0.1-0.1,0.2-0.2,0.4-0.2c0.2,0,0.3,0,0.5,0.1c0.1,0.1,0.2,0.2,0.2,0.4c0,0.3,0.1,0.6,0.1,0.9c0,0.3,0.1,0.6,0.1,0.9s0.1,0.7,0.1,1
		c0.1-0.2,0.3-0.4,0.4-0.6c0.1-0.2,0.3-0.4,0.4-0.5c0.1-0.2,0.2-0.4,0.4-0.5c0.1-0.2,0.3-0.3,0.5-0.3s0.4,0.1,0.5,0.3
		c0.1,0.2,0.2,0.3,0.4,0.5c0.1,0.2,0.2,0.3,0.4,0.5c0.1,0.2,0.3,0.4,0.4,0.6c0-0.3,0.1-0.7,0.1-1c0-0.3,0.1-0.6,0.1-0.9
		C7.1,90.8,7.1,90.5,7.2,90.2z"/>
	<path d="M13.9,94.2c0.1,0.1,0.2,0.3,0.2,0.4c0,0.2-0.1,0.3-0.2,0.4s-0.3,0.2-0.4,0.2h-3.2c-0.2,0-0.3-0.1-0.4-0.2s-0.2-0.3-0.2-0.4
		v-4.4c0-0.2,0.1-0.3,0.2-0.4s0.3-0.2,0.4-0.2h3.2c0.2,0,0.3,0.1,0.4,0.2s0.2,0.3,0.2,0.4s-0.1,0.3-0.2,0.4
		c-0.1,0.1-0.3,0.2-0.4,0.2h-2.5v1H13c0.2,0,0.3,0.1,0.4,0.2c0.1,0.1,0.2,0.3,0.2,0.4s-0.1,0.3-0.2,0.4c-0.1,0.1-0.3,0.2-0.4,0.2
		h-2.2v1h2.5C13.6,94.1,13.7,94.1,13.9,94.2z"/>
	<path d="M15.4,89.8c0.1-0.1,0.3-0.2,0.4-0.2c0.2,0,0.3,0.1,0.4,0.2c0.1,0.1,0.2,0.3,0.2,0.4v4.4c0,0.2-0.1,0.3-0.2,0.4
		c-0.1,0.1-0.3,0.2-0.4,0.2c-0.2,0-0.3-0.1-0.4-0.2s-0.2-0.3-0.2-0.4v-4.4C15.2,90.1,15.2,90,15.4,89.8z"/>
	<path d="M22.4,94.3c0.1,0.1,0.2,0.3,0.2,0.4c0,0.2-0.1,0.3-0.2,0.4c-0.1,0.1-0.3,0.2-0.4,0.2c-0.2,0-0.3-0.1-0.4-0.2l-1.4-1.5H19
		v1.1c0,0.2-0.1,0.3-0.2,0.4c-0.1,0.1-0.3,0.2-0.4,0.2c-0.2,0-0.3-0.1-0.4-0.2s-0.2-0.3-0.2-0.4v-4.4c0-0.2,0.1-0.3,0.2-0.4
		s0.3-0.2,0.4-0.2h2.1c0.3,0,0.5,0,0.8,0.1s0.4,0.2,0.6,0.4c0.2,0.2,0.3,0.4,0.4,0.6s0.1,0.5,0.1,0.8c0,0.3,0,0.5-0.1,0.8
		s-0.2,0.4-0.4,0.6c-0.1,0.1-0.1,0.1-0.2,0.2c-0.1,0-0.1,0.1-0.2,0.1L22.4,94.3z M19,92.4h1.4c0.1,0,0.2,0,0.3-0.1
		c0.1,0,0.2-0.1,0.2-0.2c0.1-0.1,0.1-0.1,0.2-0.2s0.1-0.2,0.1-0.3c0-0.1,0-0.2-0.1-0.3s-0.1-0.2-0.2-0.2s-0.1-0.1-0.2-0.2
		c-0.1,0-0.2-0.1-0.3-0.1H19V92.4z"/>
	<path d="M26.3,89.7c0.4,0,0.7,0.1,1.1,0.2c0.3,0.1,0.6,0.3,0.9,0.6c0.1,0.1,0.2,0.3,0.3,0.4c0.1,0.1,0.2,0.3,0.3,0.5
		c0.1,0.3,0.2,0.7,0.2,1.1s-0.1,0.8-0.2,1.1c-0.1,0.2-0.2,0.3-0.3,0.5c-0.1,0.1-0.2,0.3-0.3,0.4c-0.3,0.3-0.6,0.5-0.9,0.6
		c-0.3,0.1-0.7,0.2-1.1,0.2h-2c-0.2,0-0.3-0.1-0.4-0.2s-0.2-0.3-0.2-0.4v-4.4c0-0.2,0.1-0.3,0.2-0.4s0.3-0.2,0.4-0.2H26.3z
		 M24.9,90.9v3.2h1.4c0.2,0,0.4,0,0.6-0.1s0.4-0.2,0.5-0.3c0.1-0.1,0.3-0.3,0.3-0.5c0.1-0.2,0.1-0.4,0.1-0.6s0-0.4-0.1-0.6
		c-0.1-0.2-0.2-0.4-0.3-0.5c-0.1-0.1-0.3-0.3-0.5-0.3c-0.2-0.1-0.4-0.1-0.6-0.1H24.9z"/>
	<path d="M30.4,89.8c0.1-0.1,0.3-0.2,0.4-0.2c0.2,0,0.3,0.1,0.4,0.2c0.1,0.1,0.2,0.3,0.2,0.4v3.8H34c0.2,0,0.3,0.1,0.4,0.2
		s0.2,0.3,0.2,0.4c0,0.2-0.1,0.3-0.2,0.4s-0.3,0.2-0.4,0.2h-3.2c-0.2,0-0.3-0.1-0.4-0.2s-0.2-0.3-0.2-0.4v-4.4
		C30.2,90.1,30.3,90,30.4,89.8z"/>
	<path d="M35.5,89.8c0.1-0.1,0.3-0.2,0.4-0.2c0.2,0,0.3,0.1,0.4,0.2c0.1,0.1,0.2,0.3,0.2,0.4v4.4c0,0.2-0.1,0.3-0.2,0.4
		c-0.1,0.1-0.3,0.2-0.4,0.2c-0.2,0-0.3-0.1-0.4-0.2s-0.2-0.3-0.2-0.4v-4.4C35.4,90.1,35.4,90,35.5,89.8z"/>
	<path d="M42,89.8c0.1,0.1,0.2,0.3,0.2,0.4s-0.1,0.3-0.2,0.4c-0.1,0.1-0.3,0.2-0.4,0.2h-1.2v3.8c0,0.2-0.1,0.3-0.2,0.4
		c-0.1,0.1-0.3,0.2-0.4,0.2c-0.2,0-0.3-0.1-0.4-0.2s-0.2-0.3-0.2-0.4v-3.8H38c-0.2,0-0.3-0.1-0.4-0.2c-0.1-0.1-0.2-0.3-0.2-0.4
		s0.1-0.3,0.2-0.4c0.1-0.1,0.3-0.2,0.4-0.2h3.6C41.7,89.7,41.9,89.7,42,89.8z"/>
	<path d="M47.1,89.8c0.1,0.1,0.2,0.3,0.2,0.4s-0.1,0.3-0.2,0.4c-0.1,0.1-0.3,0.2-0.4,0.2h-1.2v3.8c0,0.2-0.1,0.3-0.2,0.4
		c-0.1,0.1-0.3,0.2-0.4,0.2c-0.2,0-0.3-0.1-0.4-0.2s-0.2-0.3-0.2-0.4v-3.8h-1.2c-0.2,0-0.3-0.1-0.4-0.2c-0.1-0.1-0.2-0.3-0.2-0.4
		s0.1-0.3,0.2-0.4c0.1-0.1,0.3-0.2,0.4-0.2h3.6C46.8,89.7,46.9,89.7,47.1,89.8z"/>
	<path d="M48.2,89.8c0.1-0.1,0.3-0.2,0.4-0.2c0.2,0,0.3,0.1,0.4,0.2c0.1,0.1,0.2,0.3,0.2,0.4v3.8h2.5c0.2,0,0.3,0.1,0.4,0.2
		s0.2,0.3,0.2,0.4c0,0.2-0.1,0.3-0.2,0.4s-0.3,0.2-0.4,0.2h-3.2c-0.2,0-0.3-0.1-0.4-0.2s-0.2-0.3-0.2-0.4v-4.4
		C48.1,90.1,48.1,90,48.2,89.8z"/>
	<path d="M57.4,94.2c0.1,0.1,0.2,0.3,0.2,0.4c0,0.2-0.1,0.3-0.2,0.4s-0.3,0.2-0.4,0.2h-3.2c-0.2,0-0.3-0.1-0.4-0.2s-0.2-0.3-0.2-0.4
		v-4.4c0-0.2,0.1-0.3,0.2-0.4s0.3-0.2,0.4-0.2H57c0.2,0,0.3,0.1,0.4,0.2s0.2,0.3,0.2,0.4s-0.1,0.3-0.2,0.4c-0.1,0.1-0.3,0.2-0.4,0.2
		h-2.5v1h2.2c0.2,0,0.3,0.1,0.4,0.2c0.1,0.1,0.2,0.3,0.2,0.4s-0.1,0.3-0.2,0.4s-0.3,0.2-0.4,0.2h-2.2v1H57
		C57.1,94.1,57.3,94.1,57.4,94.2z"/>
	<path d="M63.1,94.2c0.1,0.1,0.1,0.1,0.2,0.2c0,0.1,0.1,0.2,0.1,0.3c0,0.1,0,0.3-0.1,0.4c-0.1,0.1-0.2,0.2-0.4,0.2s-0.3,0-0.4-0.1
		l-2.4-2v1.5c0,0.2-0.1,0.3-0.2,0.4s-0.3,0.2-0.4,0.2c-0.2,0-0.3-0.1-0.4-0.2s-0.2-0.3-0.2-0.4v-4.4c0-0.2,0.1-0.3,0.2-0.4
		s0.3-0.2,0.4-0.2c0.2,0,0.3,0.1,0.4,0.2s0.2,0.3,0.2,0.4v1.5l2.4-2c0.1-0.1,0.3-0.2,0.4-0.1c0.2,0,0.3,0.1,0.4,0.2
		c0.1,0.1,0.1,0.2,0.1,0.4c0,0.1,0,0.2-0.1,0.3c0,0.1-0.1,0.2-0.2,0.2c-0.3,0.2-0.5,0.4-0.8,0.6c-0.2,0.2-0.4,0.4-0.7,0.6
		c-0.2,0.2-0.4,0.4-0.6,0.5c0.2,0.1,0.4,0.3,0.6,0.5c0.2,0.2,0.5,0.4,0.7,0.6C62.6,93.8,62.9,94,63.1,94.2z"/>
	<path d="M68.5,94.2c0.1,0.1,0.2,0.3,0.2,0.4c0,0.2-0.1,0.3-0.2,0.4s-0.3,0.2-0.4,0.2h-3.2c-0.2,0-0.3-0.1-0.4-0.2s-0.2-0.3-0.2-0.4
		v-4.4c0-0.2,0.1-0.3,0.2-0.4s0.3-0.2,0.4-0.2H68c0.2,0,0.3,0.1,0.4,0.2s0.2,0.3,0.2,0.4s-0.1,0.3-0.2,0.4c-0.1,0.1-0.3,0.2-0.4,0.2
		h-2.5v1h2.2c0.2,0,0.3,0.1,0.4,0.2c0.1,0.1,0.2,0.3,0.2,0.4s-0.1,0.3-0.2,0.4c-0.1,0.1-0.3,0.2-0.4,0.2h-2.2v1H68
		C68.2,94.1,68.3,94.1,68.5,94.2z"/>
	<path d="M74,94.2c0.1,0.1,0.2,0.3,0.2,0.4c0,0.2-0.1,0.3-0.2,0.4s-0.3,0.2-0.4,0.2h-3.2c-0.2,0-0.3-0.1-0.4-0.2s-0.2-0.3-0.2-0.4
		v-4.4c0-0.2,0.1-0.3,0.2-0.4s0.3-0.2,0.4-0.2h3.2c0.2,0,0.3,0.1,0.4,0.2s0.2,0.3,0.2,0.4s-0.1,0.3-0.2,0.4
		c-0.1,0.1-0.3,0.2-0.4,0.2H71v1h2.2c0.2,0,0.3,0.1,0.4,0.2c0.1,0.1,0.2,0.3,0.2,0.4s-0.1,0.3-0.2,0.4c-0.1,0.1-0.3,0.2-0.4,0.2H71
		v1h2.5C73.7,94.1,73.9,94.1,74,94.2z"/>
	<path d="M78,89.7c0.2,0,0.4,0,0.6,0.1c0.2,0.1,0.4,0.2,0.5,0.4s0.3,0.3,0.3,0.5c0.1,0.2,0.1,0.4,0.1,0.6c0,0.2,0,0.4-0.1,0.5
		c-0.1,0.2-0.1,0.3-0.2,0.5c0.1,0.2,0.3,0.3,0.4,0.5c0.1,0.2,0.1,0.4,0.1,0.7c0,0.2,0,0.5-0.1,0.7s-0.2,0.4-0.4,0.6
		c-0.2,0.2-0.3,0.3-0.6,0.4c-0.2,0.1-0.4,0.1-0.7,0.1h-2.1c-0.2,0-0.3-0.1-0.4-0.2s-0.2-0.3-0.2-0.4v-4.4c0-0.2,0.1-0.3,0.2-0.4
		s0.3-0.2,0.4-0.2H78z M76.5,90.9v0.9H78c0.1,0,0.2,0,0.3-0.1s0.1-0.2,0.1-0.3c0-0.1,0-0.2-0.1-0.3s-0.2-0.1-0.3-0.1H76.5z
		 M76.5,92.8v1.2H78c0.2,0,0.3-0.1,0.4-0.2c0.1-0.1,0.2-0.3,0.2-0.4s-0.1-0.3-0.2-0.4c-0.1-0.1-0.2-0.2-0.4-0.2H76.5z"/>
	<path d="M81.6,90c0.4-0.3,0.8-0.4,1.4-0.4c0.3,0,0.6,0,0.8,0.1s0.5,0.1,0.7,0.2c0.2,0.1,0.3,0.2,0.3,0.3c0.1,0.2,0.1,0.3,0,0.5
		c-0.1,0.2-0.2,0.3-0.3,0.3c-0.2,0.1-0.3,0.1-0.5,0c-0.1-0.1-0.3-0.1-0.5-0.1c-0.2,0-0.4-0.1-0.6-0.1c-0.1,0-0.3,0-0.4,0
		c-0.1,0-0.2,0.1-0.3,0.1c-0.1,0.1-0.2,0.2-0.2,0.3c0,0,0,0.1,0,0.1c0,0,0.1,0.1,0.1,0.1c0.1,0,0.1,0.1,0.3,0.1s0.3,0.1,0.5,0.1
		c0.6,0.1,1.1,0.3,1.4,0.5c0.2,0.1,0.4,0.3,0.5,0.5c0.1,0.2,0.2,0.5,0.2,0.8c0,0.3-0.1,0.6-0.2,0.8c-0.1,0.2-0.3,0.4-0.6,0.6
		c-0.4,0.3-0.9,0.4-1.5,0.4c-0.5,0-0.9-0.1-1.2-0.2c-0.3-0.1-0.5-0.2-0.7-0.4c-0.1-0.1-0.2-0.2-0.2-0.4c0-0.2,0-0.3,0.1-0.4
		c0.1-0.1,0.2-0.2,0.4-0.2s0.3,0,0.4,0.1c0,0,0.1,0.1,0.2,0.1c0.1,0,0.2,0.1,0.3,0.1s0.2,0.1,0.3,0.1s0.3,0,0.4,0
		c0.3,0,0.6-0.1,0.8-0.2c0.1-0.1,0.2-0.2,0.2-0.4c0,0,0-0.1,0-0.1c0-0.1-0.1-0.1-0.2-0.2c-0.1,0-0.2-0.1-0.3-0.2
		c-0.1-0.1-0.3-0.1-0.6-0.1c-0.5-0.1-0.9-0.2-1.3-0.4c-0.2-0.1-0.4-0.3-0.5-0.5c-0.1-0.2-0.2-0.5-0.2-0.7c0-0.3,0.1-0.5,0.2-0.7
		S81.4,90.1,81.6,90z"/>
	<path d="M87.5,94.7c0,0.2-0.1,0.3-0.2,0.4s-0.3,0.2-0.4,0.2c-0.2,0-0.3-0.1-0.4-0.2s-0.2-0.3-0.2-0.4c0-0.2,0.1-0.3,0.2-0.4
		s0.3-0.2,0.4-0.2c0.2,0,0.3,0.1,0.4,0.2S87.5,94.5,87.5,94.7z"/>
	<path d="M90.2,89.8c0.4-0.2,0.7-0.2,1.1-0.2c0.4,0,0.8,0.1,1.1,0.2c0.3,0.1,0.7,0.3,0.9,0.6c0.1,0.1,0.2,0.3,0.2,0.4
		c0,0.2-0.1,0.3-0.2,0.4c-0.1,0.1-0.3,0.2-0.4,0.2c-0.2,0-0.3-0.1-0.4-0.2c-0.2-0.2-0.3-0.3-0.5-0.4c-0.2-0.1-0.4-0.1-0.6-0.1
		c-0.2,0-0.5,0-0.7,0.1s-0.4,0.2-0.5,0.4c-0.1,0.2-0.3,0.3-0.4,0.5c-0.1,0.2-0.1,0.4-0.1,0.6c0,0.2,0,0.5,0.1,0.7
		c0.1,0.2,0.2,0.4,0.4,0.5s0.3,0.3,0.5,0.4s0.4,0.1,0.7,0.1c0.2,0,0.4,0,0.6-0.1c0.2-0.1,0.4-0.2,0.5-0.4c0.1-0.1,0.3-0.2,0.4-0.2
		c0.2,0,0.3,0.1,0.4,0.2c0.1,0.1,0.2,0.3,0.2,0.4c0,0.2-0.1,0.3-0.2,0.4c-0.3,0.3-0.6,0.5-0.9,0.6c-0.3,0.1-0.7,0.2-1.1,0.2
		c-0.4,0-0.8-0.1-1.1-0.2c-0.3-0.1-0.6-0.3-0.9-0.6c-0.3-0.3-0.5-0.6-0.6-0.9c-0.1-0.4-0.2-0.7-0.2-1.1c0-0.2,0-0.4,0.1-0.6
		s0.1-0.4,0.2-0.5c0.1-0.3,0.3-0.7,0.6-0.9C89.5,90.2,89.8,90,90.2,89.8z"/>
	<path d="M96.2,89.8c0.4-0.2,0.7-0.2,1.1-0.2s0.8,0.1,1.1,0.2c0.3,0.1,0.6,0.3,0.9,0.6c0.3,0.3,0.5,0.6,0.6,0.9
		c0.1,0.2,0.1,0.4,0.2,0.5s0.1,0.4,0.1,0.6c0,0.4-0.1,0.8-0.2,1.1c-0.1,0.3-0.4,0.6-0.6,0.9c-0.3,0.3-0.6,0.5-0.9,0.6
		c-0.4,0.1-0.7,0.2-1.1,0.2c-0.4,0-0.8-0.1-1.1-0.2c-0.3-0.1-0.6-0.3-0.9-0.6c-0.3-0.3-0.5-0.6-0.6-0.9c-0.1-0.4-0.2-0.7-0.2-1.1
		c0-0.2,0-0.4,0.1-0.6s0.1-0.4,0.2-0.5c0.2-0.4,0.4-0.7,0.6-0.9C95.5,90.2,95.8,90,96.2,89.8z M95.6,92.5c0,0.2,0,0.5,0.1,0.7
		c0.1,0.2,0.2,0.4,0.4,0.5c0.2,0.1,0.3,0.3,0.5,0.4c0.2,0.1,0.4,0.1,0.6,0.1s0.4,0,0.6-0.1c0.2-0.1,0.4-0.2,0.5-0.4s0.3-0.3,0.4-0.5
		c0.1-0.2,0.1-0.4,0.1-0.7c0-0.2,0-0.4-0.1-0.6c-0.1-0.2-0.2-0.4-0.4-0.5c-0.2-0.2-0.3-0.3-0.5-0.4c-0.2-0.1-0.4-0.1-0.6-0.1
		s-0.4,0-0.6,0.1c-0.2,0.1-0.4,0.2-0.5,0.4c-0.2,0.2-0.3,0.3-0.4,0.5C95.7,92,95.6,92.2,95.6,92.5z"/>
	<path d="M106,89.9c0.1-0.1,0.2-0.2,0.3-0.2c0.1,0,0.2,0,0.4,0c0.1,0,0.2,0.1,0.3,0.2c0.1,0.1,0.1,0.2,0.1,0.3v4.4
		c0,0.2-0.1,0.3-0.2,0.4s-0.3,0.2-0.4,0.2c-0.2,0-0.3-0.1-0.4-0.2s-0.2-0.3-0.2-0.4V92l-1.2,1.5c-0.1,0.2-0.3,0.2-0.5,0.2
		c-0.1,0-0.2,0-0.3-0.1s-0.2-0.1-0.2-0.2c-0.1-0.1-0.2-0.3-0.4-0.5c-0.1-0.1-0.2-0.3-0.4-0.5c-0.1-0.2-0.3-0.4-0.4-0.5v2.6
		c0,0.2-0.1,0.3-0.2,0.4c-0.1,0.1-0.3,0.2-0.4,0.2s-0.3-0.1-0.4-0.2s-0.2-0.3-0.2-0.4v-4.4c0-0.1,0-0.2,0.1-0.3
		c0.1-0.1,0.2-0.2,0.3-0.2c0.1,0,0.2,0,0.4,0c0.1,0,0.2,0.1,0.3,0.2c0.2,0.3,0.5,0.6,0.7,0.8c0.1,0.1,0.2,0.2,0.3,0.4
		c0.1,0.1,0.2,0.3,0.3,0.4c0.1,0.1,0.2,0.2,0.3,0.4c0.1,0.1,0.2,0.2,0.2,0.3c0.1-0.1,0.2-0.2,0.2-0.3c0.1-0.1,0.2-0.2,0.3-0.4
		s0.2-0.3,0.3-0.4s0.2-0.2,0.3-0.4C105.5,90.5,105.8,90.2,106,89.9z"/>
</g>
</svg>
