0
SECTION
2
HEADER
9
$INSUNITS
70
4
0
ENDSEC
0
SECTION
2
TABLES
0
TABLE
2
LTYPE
0
LTYPE
72
65
70
64
2
CONTINUOUS
3
______
73
0
40
0
0
ENDTAB
0
TABLE
2
LAYER
0
ENDTAB
0
ENDSEC
0
SECTION
2
ENTITIES
0
LINE
8
0
10
93.5125
20
-26.3375
11
106.5125
21
-26.3375
0
LINE
8
0
10
93.5125
20
-40.3375
11
106.5125
21
-40.3375
0
LINE
8
0
10
93.0125
20
-26.8375
11
93.0125
21
-39.8375
0
LINE
8
0
10
107.0125
20
-26.8375
11
107.0125
21
-39.8375
0
ARC
8
0
10
93.5125
20
-26.8375
40
0.5
50
90
51
180
0
ARC
8
0
10
106.5125
20
-26.8375
40
0.5
50
0
51
90
0
ARC
8
0
10
93.5125
20
-39.8375
40
0.5
50
180
51
270
0
ARC
8
0
10
106.5125
20
-39.8375
40
0.5
50
270
51
0
0
LINE
8
0
10
112.5625
20
-26.3375
11
125.5625
21
-26.3375
0
LINE
8
0
10
112.5625
20
-40.3375
11
125.5625
21
-40.3375
0
LINE
8
0
10
112.0625
20
-26.8375
11
112.0625
21
-39.8375
0
LINE
8
0
10
126.0625
20
-26.8375
11
126.0625
21
-39.8375
0
ARC
8
0
10
112.5625
20
-26.8375
40
0.5
50
90
51
180
0
ARC
8
0
10
125.5625
20
-26.8375
40
0.5
50
0
51
90
0
ARC
8
0
10
112.5625
20
-39.8375
40
0.5
50
180
51
270
0
ARC
8
0
10
125.5625
20
-39.8375
40
0.5
50
270
51
0
0
LINE
8
0
10
87.9556378
20
-67.59807
11
100.9061688
21
-68.7310946
0
LINE
8
0
10
86.7354574
20
-81.5447958
11
99.6859884
21
-82.6778204
0
LINE
8
0
10
87.4139625
20
-68.0525895
11
86.2809379
21
-81.0031205
0
LINE
8
0
10
101.3606883
20
-69.2727699
11
100.2276637
21
-82.2233009
0
ARC
8
0
10
87.9120599
20
-68.0961673
40
0.5
50
85
51
175
0
ARC
8
0
10
100.862591
20
-69.229192
40
0.5
50
355
51
85
0
ARC
8
0
10
86.7790352
20
-81.0466984
40
0.5
50
175
51
265
0
ARC
8
0
10
99.7295663
20
-82.1797231
40
0.5
50
265
51
355
0
LINE
8
0
10
30.9410589
20
-6.8982969
11
43.8145438
21
-8.7075472
0
LINE
8
0
10
28.9926354
20
-20.7620498
11
41.8661203
21
-22.5713001
0
LINE
8
0
10
30.3763383
20
-7.3238443
11
28.567088
21
-20.1973292
0
LINE
8
0
10
44.2400912
20
-9.2722678
11
42.4308409
21
-22.1457527
0
ARC
8
0
10
30.8714723
20
-7.3934309
40
0.5
50
82
51
172
0
ARC
8
0
10
43.7449572
20
-9.2026812
40
0.5
50
352
51
82
0
ARC
8
0
10
29.062222
20
-20.2669158
40
0.5
50
172
51
262
0
ARC
8
0
10
41.9357069
20
-22.0761661
40
0.5
50
262
51
352
0
LINE
8
0
10
9.4252046
20
-23.111656
11
22.2986895
21
-24.9209063
0
LINE
8
0
10
7.4767811
20
-36.9754089
11
20.350266
21
-38.7846592
0
LINE
8
0
10
8.860484
20
-23.5372034
11
7.0512337
21
-36.4106883
0
LINE
8
0
10
22.7242369
20
-25.4856269
11
20.9149866
21
-38.3591118
0
ARC
8
0
10
9.355618
20
-23.60679
40
0.5
50
82
51
172
0
ARC
8
0
10
22.2291029
20
-25.4160403
40
0.5
50
352
51
82
0
ARC
8
0
10
7.5463677
20
-36.4802749
40
0.5
50
172
51
262
0
ARC
8
0
10
20.4198526
20
-38.2895252
40
0.5
50
262
51
352
0
LINE
8
0
10
28.2898114
20
-25.7629036
11
41.1632963
21
-27.5721539
0
LINE
8
0
10
26.3413879
20
-39.6266565
11
39.2148728
21
-41.4359068
0
LINE
8
0
10
27.7250908
20
-26.188451
11
25.9158405
21
-39.0619359
0
LINE
8
0
10
41.5888437
20
-28.1368745
11
39.7795934
21
-41.0103594
0
ARC
8
0
10
28.2202248
20
-26.2580376
40
0.5
50
82
51
172
0
ARC
8
0
10
41.0937097
20
-28.0672879
40
0.5
50
352
51
82
0
ARC
8
0
10
26.4109745
20
-39.1315225
40
0.5
50
172
51
262
0
ARC
8
0
10
39.2844594
20
-40.9407728
40
0.5
50
262
51
352
0
LINE
8
0
10
47.1544181
20
-28.4141512
11
60.027903
21
-30.2234015
0
LINE
8
0
10
45.2059946
20
-42.2779041
11
58.0794795
21
-44.0871544
0
LINE
8
0
10
46.5896975
20
-28.8396986
11
44.7804472
21
-41.7131835
0
LINE
8
0
10
60.4534504
20
-30.7881221
11
58.6442001
21
-43.661607
0
ARC
8
0
10
47.0848315
20
-28.9092852
40
0.5
50
82
51
172
0
ARC
8
0
10
59.9583164
20
-30.7185355
40
0.5
50
352
51
82
0
ARC
8
0
10
45.2755812
20
-41.7827701
40
0.5
50
172
51
262
0
ARC
8
0
10
58.1490661
20
-43.5920204
40
0.5
50
262
51
352
0
LINE
8
0
10
156.7139461
20
-7.9467193
11
169.6644771
21
-6.8136947
0
LINE
8
0
10
157.9341265
20
-21.8934451
11
170.8846575
21
-20.7604205
0
LINE
8
0
10
156.2594266
20
-8.4883946
11
157.3924512
21
-21.4389256
0
LINE
8
0
10
170.2061524
20
-7.2682142
11
171.339177
21
-20.2187452
0
ARC
8
0
10
156.7575239
20
-8.4448167
40
0.5
50
95
51
185
0
ARC
8
0
10
169.708055
20
-7.311792
40
0.5
50
5
51
95
0
ARC
8
0
10
157.8905486
20
-21.3953478
40
0.5
50
185
51
275
0
ARC
8
0
10
170.8410797
20
-20.2623231
40
0.5
50
275
51
5
0
LINE
8
0
10
185.1802096
20
-5.4562439
11
198.1307406
21
-4.3232193
0
LINE
8
0
10
186.40039
20
-19.4029697
11
199.350921
21
-18.2699451
0
LINE
8
0
10
184.7256901
20
-5.9979192
11
185.8587147
21
-18.9484502
0
LINE
8
0
10
198.6724159
20
-4.7777388
11
199.8054405
21
-17.7282698
0
ARC
8
0
10
185.2237874
20
-5.9543413
40
0.5
50
95
51
185
0
ARC
8
0
10
198.1743185
20
-4.8213166
40
0.5
50
5
51
95
0
ARC
8
0
10
186.3568121
20
-18.9048724
40
0.5
50
185
51
275
0
ARC
8
0
10
199.3073432
20
-17.7718477
40
0.5
50
275
51
5
0
LINE
8
0
10
153.6298858
20
-27.3393075
11
166.5804168
21
-26.2062829
0
LINE
8
0
10
154.8500662
20
-41.2860333
11
167.8005972
21
-40.1530087
0
LINE
8
0
10
153.1753663
20
-27.8809828
11
154.3083909
21
-40.8315138
0
LINE
8
0
10
167.1220921
20
-26.6608024
11
168.2551167
21
-39.6113334
0
ARC
8
0
10
153.6734636
20
-27.8374049
40
0.5
50
95
51
185
0
ARC
8
0
10
166.6239947
20
-26.7043802
40
0.5
50
5
51
95
0
ARC
8
0
10
154.8064883
20
-40.787936
40
0.5
50
185
51
275
0
ARC
8
0
10
167.7570194
20
-39.6549113
40
0.5
50
275
51
5
0
LINE
8
0
10
172.6073948
20
-25.6789906
11
185.5579258
21
-24.545966
0
LINE
8
0
10
173.8275752
20
-39.6257164
11
186.7781062
21
-38.4926918
0
LINE
8
0
10
172.1528753
20
-26.2206659
11
173.2858999
21
-39.1711969
0
LINE
8
0
10
186.0996011
20
-25.0004855
11
187.2326257
21
-37.9510165
0
ARC
8
0
10
172.6509726
20
-26.177088
40
0.5
50
95
51
185
0
ARC
8
0
10
185.6015037
20
-25.0440633
40
0.5
50
5
51
95
0
ARC
8
0
10
173.7839973
20
-39.1276191
40
0.5
50
185
51
275
0
ARC
8
0
10
186.7345284
20
-37.9945944
40
0.5
50
275
51
5
0
LINE
8
0
10
191.5849038
20
-24.0186737
11
204.5354348
21
-22.8856491
0
LINE
8
0
10
192.8050842
20
-37.9653995
11
205.7556152
21
-36.8323749
0
LINE
8
0
10
191.1303843
20
-24.560349
11
192.2634089
21
-37.51088
0
LINE
8
0
10
205.0771101
20
-23.3401686
11
206.2101347
21
-36.2906996
0
ARC
8
0
10
191.6284816
20
-24.5167711
40
0.5
50
95
51
185
0
ARC
8
0
10
204.5790127
20
-23.3837464
40
0.5
50
5
51
95
0
ARC
8
0
10
192.7615063
20
-37.4673022
40
0.5
50
185
51
275
0
ARC
8
0
10
205.7120374
20
-36.3342775
40
0.5
50
275
51
5
0
LINE
8
0
10
210.977492
20
-27.102734
11
223.928023
21
-25.9697094
0
LINE
8
0
10
212.1976724
20
-41.0494598
11
225.1482034
21
-39.9164352
0
LINE
8
0
10
210.5229725
20
-27.6444093
11
211.6559971
21
-40.5949403
0
LINE
8
0
10
224.4696983
20
-26.4242289
11
225.6027229
21
-39.3747599
0
ARC
8
0
10
211.0210698
20
-27.6008314
40
0.5
50
95
51
185
0
ARC
8
0
10
223.9716009
20
-26.4678067
40
0.5
50
5
51
95
0
ARC
8
0
10
212.1540945
20
-40.5513625
40
0.5
50
185
51
275
0
ARC
8
0
10
225.1046256
20
-39.4183378
40
0.5
50
275
51
5
0
LINE
8
0
10
155.2902027
20
-46.3168165
11
168.2407337
21
-45.1837919
0
LINE
8
0
10
156.5103831
20
-60.2635423
11
169.4609141
21
-59.1305177
0
LINE
8
0
10
154.8356832
20
-46.8584918
11
155.9687078
21
-59.8090228
0
LINE
8
0
10
168.782409
20
-45.6383114
11
169.9154336
21
-58.5888424
0
ARC
8
0
10
155.3337805
20
-46.8149139
40
0.5
50
95
51
185
0
ARC
8
0
10
168.2843116
20
-45.6818892
40
0.5
50
5
51
95
0
ARC
8
0
10
156.4668052
20
-59.765445
40
0.5
50
185
51
275
0
ARC
8
0
10
169.4173363
20
-58.6324203
40
0.5
50
275
51
5
0
LINE
8
0
10
174.2677117
20
-44.6564996
11
187.2182427
21
-43.523475
0
LINE
8
0
10
175.4878921
20
-58.6032254
11
188.4384231
21
-57.4702008
0
LINE
8
0
10
173.8131922
20
-45.1981749
11
174.9462168
21
-58.1487059
0
LINE
8
0
10
187.759918
20
-43.9779945
11
188.8929426
21
-56.9285255
0
ARC
8
0
10
174.3112895
20
-45.154597
40
0.5
50
95
51
185
0
ARC
8
0
10
187.2618206
20
-44.0215723
40
0.5
50
5
51
95
0
ARC
8
0
10
175.4443142
20
-58.1051281
40
0.5
50
185
51
275
0
ARC
8
0
10
188.3948453
20
-56.9721034
40
0.5
50
275
51
5
0
LINE
8
0
10
193.2452207
20
-42.9961827
11
206.1957517
21
-41.8631581
0
LINE
8
0
10
194.4654011
20
-56.9429085
11
207.4159321
21
-55.8098839
0
LINE
8
0
10
192.7907012
20
-43.537858
11
193.9237258
21
-56.488389
0
LINE
8
0
10
206.737427
20
-42.3176776
11
207.8704516
21
-55.2682086
0
ARC
8
0
10
193.2887985
20
-43.4942801
40
0.5
50
95
51
185
0
ARC
8
0
10
206.2393296
20
-42.3612554
40
0.5
50
5
51
95
0
ARC
8
0
10
194.4218232
20
-56.4448112
40
0.5
50
185
51
275
0
ARC
8
0
10
207.3723543
20
-55.3117865
40
0.5
50
275
51
5
0
LINE
8
0
10
212.6378089
20
-46.080243
11
225.5883399
21
-44.9472184
0
LINE
8
0
10
213.8579893
20
-60.0269688
11
226.8085203
21
-58.8939442
0
LINE
8
0
10
212.1832894
20
-46.6219183
11
213.316314
21
-59.5724493
0
LINE
8
0
10
226.1300152
20
-45.4017379
11
227.2630398
21
-58.3522689
0
ARC
8
0
10
212.6813867
20
-46.5783404
40
0.5
50
95
51
185
0
ARC
8
0
10
225.6319178
20
-45.4453157
40
0.5
50
5
51
95
0
ARC
8
0
10
213.8144114
20
-59.5288715
40
0.5
50
185
51
275
0
ARC
8
0
10
226.7649425
20
-58.3958468
40
0.5
50
275
51
5
0
LINE
8
0
10
5.3627353
20
-84.6629452
11
229.2481646
21
-84.6629452
0
LINE
8
0
10
5.3627353
20
-2.3380945
11
229.2481646
21
-2.3380945
0
LINE
8
0
10
5.3627353
20
-84.6629452
11
5.3627353
21
-2.3380945
0
LINE
8
0
10
229.2481646
20
-84.6629452
11
229.2481646
21
-2.3380945
0
ENDSEC
0
EOF