M48
; DRILL file {KiCad (6.0.9)} date Tue Feb 21 23:29:28 2023
; FORMAT={-:-/ absolute / inch / decimal}
; #@! TF.CreationDate,2023-02-21T23:29:28+05:30
; #@! TF.GenerationSoftware,Kicad,Pcbnew,(6.0.9)
; #@! TF.FileFunction,NonPlated,1,2,NPTH
FMAT,2
INCH
; #@! TA.AperFunction,NonPlated,NPTH,ComponentDrill
T1C0.0669
; #@! TA.AperFunction,NonPlated,NPTH,ComponentDrill
T2C0.0748
; #@! TA.AperFunction,NonPlated,NPTH,ComponentDrill
T3C0.1575
%
G90
G05
T1
X2.0519Y-2.9722
X2.4481Y-3.0278
X2.7969Y-3.0772
X2.9019Y-2.3322
X3.1931Y-3.1328
X3.2981Y-2.3878
X3.5369Y-3.1822
X3.9331Y-3.2378
X5.1578Y-4.7246
X5.402Y-3.096
X5.5562Y-4.7594
X5.802Y-3.096
X6.153Y-3.096
X6.553Y-3.096
X7.7928Y-3.1294
X7.8578Y-3.8764
X7.9138Y-2.3654
X8.1912Y-3.0946
X8.2562Y-3.8416
X8.3122Y-2.3306
X8.5398Y-3.0644
X8.6048Y-3.8114
X8.9382Y-3.0296
X9.0032Y-3.7766
X9.0348Y-2.2674
X9.2868Y-2.9984
X9.3518Y-3.7464
X9.4332Y-2.2326
X9.6852Y-2.9636
X9.7502Y-3.7116
X10.0498Y-3.1194
X10.1158Y-3.8664
X10.4482Y-3.0846
X10.5142Y-3.8316
T2
X2.0356Y-2.9699
X2.4644Y-3.0301
X2.7806Y-3.0749
X2.8856Y-2.3299
X3.2094Y-3.1351
X3.3144Y-2.3901
X3.5206Y-3.1799
X3.9494Y-3.2401
X5.1413Y-4.7231
X5.3855Y-3.096
X5.5727Y-4.7609
X5.8185Y-3.096
X6.1365Y-3.096
X6.5695Y-3.096
X7.7763Y-3.1309
X7.8413Y-3.8779
X7.8973Y-2.3669
X8.2077Y-3.0931
X8.2727Y-3.8401
X8.3287Y-2.3291
X8.5233Y-3.0659
X8.5883Y-3.8129
X8.9547Y-3.0281
X9.0183Y-2.2689
X9.0197Y-3.7751
X9.2703Y-2.9999
X9.3353Y-3.7479
X9.4497Y-2.2311
X9.7017Y-2.9621
X9.7667Y-3.7101
X10.0333Y-3.1209
X10.0993Y-3.8679
X10.4647Y-3.0831
X10.5307Y-3.8301
T3
X2.25Y-3.0
X2.995Y-3.105
X3.1Y-2.36
X3.735Y-3.21
X5.357Y-4.742
X5.602Y-3.096
X6.353Y-3.096
X7.992Y-3.112
X8.057Y-3.859
X8.113Y-2.348
X8.739Y-3.047
X8.804Y-3.794
X9.234Y-2.25
X9.486Y-2.981
X9.551Y-3.729
X10.249Y-3.102
X10.315Y-3.849
T0
M30
