M48
; DRILL file {KiCad (6.0.9)} date Tue Feb 21 23:29:28 2023
; FORMAT={-:-/ absolute / inch / decimal}
; #@! TF.CreationDate,2023-02-21T23:29:28+05:30
; #@! TF.GenerationSoftware,Kicad,Pcbnew,(6.0.9)
; #@! TF.FileFunction,Plated,1,2,PTH
FMAT,2
INCH
; #@! TA.AperFunction,Plated,PTH,ComponentDrill
T1C0.0315
; #@! TA.AperFunction,Plated,PTH,ComponentDrill
T2C0.0394
; #@! TA.AperFunction,Plated,PTH,ComponentDrill
T3C0.0433
; #@! TA.AperFunction,Plated,PTH,ComponentDrill
T4C0.0490
; #@! TA.AperFunction,Plated,PTH,ComponentDrill
T5C0.0591
%
G90
G05
T1
X2.6191Y-3.1185
X2.6609Y-2.8215
X3.03Y-1.97
X3.3271Y-2.0118
X3.3591Y-3.2185
X3.4009Y-2.9215
X3.4482Y-2.5471
X3.49Y-2.25
X4.0991Y-3.3285
X4.1409Y-3.0315
X5.45Y-3.46
X5.7139Y-4.9289
X5.74Y-4.63
X5.75Y-3.46
X6.2Y-3.46
X6.5Y-3.46
X7.8706Y-3.4931
X7.9406Y-4.2431
X7.9906Y-2.7331
X8.1694Y-3.4669
X8.2394Y-4.2169
X8.2894Y-2.7069
X8.6206Y-3.4231
X8.6806Y-4.1831
X8.9194Y-3.3969
X8.9794Y-4.1569
X9.1106Y-2.6331
X9.3706Y-3.3631
X9.4094Y-2.6069
X9.4306Y-4.1131
X9.6694Y-3.3369
X9.7294Y-4.0869
X10.1306Y-3.4831
X10.2006Y-4.2331
X10.4294Y-3.4569
X10.4994Y-4.2069
T2
X1.7996Y-1.8703
X1.7996Y-2.0672
X2.3704Y-1.8703
X2.3704Y-1.9688
X2.3704Y-2.0672
X10.0312Y-1.7812
X10.2188Y-1.7812
X10.4062Y-1.7812
T3
X4.34Y-1.75
X4.34Y-1.85
X4.34Y-1.95
X4.34Y-2.05
X4.34Y-2.15
X4.34Y-2.25
X4.34Y-2.35
X4.34Y-2.45
X4.34Y-2.55
X4.34Y-2.65
X4.34Y-2.75
X4.34Y-2.85
X4.94Y-1.75
X4.94Y-1.85
X4.94Y-1.95
X4.94Y-2.05
X4.94Y-2.15
X4.94Y-2.25
X4.94Y-2.35
X4.94Y-2.45
X4.94Y-2.55
X4.94Y-2.65
X4.94Y-2.75
X4.94Y-2.85
T4
X3.752Y-1.69
X4.008Y-1.69
T1
G00X2.0162Y-3.1222
M15
G01X2.0434Y-3.126
M16
G05
G00X2.1076Y-2.879
M15
G01X2.1232Y-2.8812
M16
G05
G00X2.204Y-3.2281
M15
G01X2.2313Y-3.2319
M16
G05
G00X2.3691Y-2.8148
M15
G01X2.3847Y-2.817
M16
G05
G00X2.7612Y-3.2272
M15
G01X2.7884Y-3.231
M16
G05
G00X2.8526Y-2.984
M15
G01X2.8682Y-2.9862
M16
G05
G00X2.8662Y-2.4822
M15
G01X2.8934Y-2.486
M16
G05
G00X2.949Y-3.3331
M15
G01X2.9763Y-3.3369
M16
G05
G00X2.9576Y-2.239
M15
G01X2.9732Y-2.2412
M16
G05
G00X3.054Y-2.5881
M15
G01X3.0813Y-2.5919
M16
G05
G00X3.1141Y-2.9198
M15
G01X3.1297Y-2.922
M16
G05
G00X3.2191Y-2.1748
M15
G01X3.2347Y-2.177
M16
G05
G00X3.5012Y-3.3322
M15
G01X3.5284Y-3.336
M16
G05
G00X3.5926Y-3.089
M15
G01X3.6082Y-3.0912
M16
G05
G00X3.689Y-3.4381
M15
G01X3.7163Y-3.4419
M16
G05
G00X3.8541Y-3.0248
M15
G01X3.8697Y-3.027
M16
G05
G00X5.1299Y-4.8763
M15
G01X5.1573Y-4.8787
M16
G05
G00X5.2084Y-4.6286
M15
G01X5.2241Y-4.63
M16
G05
G00X5.323Y-4.9722
M15
G01X5.3505Y-4.9746
M16
G05
G00X5.3874Y-3.2495
M15
G01X5.415Y-3.2495
M16
G05
G00X5.4441Y-2.996
M15
G01X5.4599Y-2.996
M16
G05
G00X5.4662Y-4.5508
M15
G01X5.4819Y-4.5522
M16
G05
G00X5.5882Y-3.3283
M15
G01X5.6158Y-3.3283
M16
G05
G00X5.6941Y-2.896
M15
G01X5.7099Y-2.896
M16
G05
G00X6.1384Y-3.2495
M15
G01X6.166Y-3.2495
M16
G05
G00X6.1951Y-2.996
M15
G01X6.2109Y-2.996
M16
G05
G00X6.3392Y-3.3283
M15
G01X6.3668Y-3.3283
M16
G05
G00X6.4451Y-2.896
M15
G01X6.4609Y-2.896
M16
G05
G00X7.7916Y-3.2837
M15
G01X7.8191Y-3.2813
M16
G05
G00X7.826Y-3.0261
M15
G01X7.8417Y-3.0248
M16
G05
G00X7.8566Y-4.0307
M15
G01X7.8841Y-4.0283
M16
G05
G00X7.891Y-3.7731
M15
G01X7.9067Y-3.7718
M16
G05
G00X7.9126Y-2.5197
M15
G01X7.9401Y-2.5173
M16
G05
G00X7.947Y-2.2621
M15
G01X7.9627Y-2.2608
M16
G05
G00X7.9985Y-3.3446
M15
G01X8.026Y-3.3422
M16
G05
G00X8.0663Y-2.9047
M15
G01X8.082Y-2.9034
M16
G05
G00X8.0635Y-4.0916
M15
G01X8.091Y-4.0892
M16
G05
G00X8.1195Y-2.5806
M15
G01X8.147Y-2.5782
M16
G05
G00X8.1313Y-3.6517
M15
G01X8.147Y-3.6504
M16
G05
G00X8.1873Y-2.1407
M15
G01X8.203Y-2.1394
M16
G05
G00X8.5386Y-3.2187
M15
G01X8.5661Y-3.2163
M16
G05
G00X8.573Y-2.9611
M15
G01X8.5887Y-2.9598
M16
G05
G00X8.6036Y-3.9657
M15
G01X8.6311Y-3.9633
M16
G05
G00X8.638Y-3.7081
M15
G01X8.6537Y-3.7068
M16
G05
G00X8.7455Y-3.2796
M15
G01X8.773Y-3.2772
M16
G05
G00X8.8133Y-2.8397
M15
G01X8.829Y-2.8384
M16
G05
G00X8.8105Y-4.0266
M15
G01X8.838Y-4.0242
M16
G05
G00X8.8783Y-3.5867
M15
G01X8.894Y-3.5854
M16
G05
G00X9.0336Y-2.4217
M15
G01X9.0611Y-2.4193
M16
G05
G00X9.068Y-2.1641
M15
G01X9.0837Y-2.1628
M16
G05
G00X9.2405Y-2.4826
M15
G01X9.268Y-2.4802
M16
G05
G00X9.2856Y-3.1527
M15
G01X9.3131Y-3.1503
M16
G05
G00X9.3083Y-2.0427
M15
G01X9.324Y-2.0414
M16
G05
G00X9.32Y-2.8951
M15
G01X9.3357Y-2.8938
M16
G05
G00X9.3506Y-3.9007
M15
G01X9.3781Y-3.8983
M16
G05
G00X9.385Y-3.6431
M15
G01X9.4007Y-3.6418
M16
G05
G00X9.4925Y-3.2136
M15
G01X9.52Y-3.2112
M16
G05
G00X9.5603Y-2.7737
M15
G01X9.576Y-2.7724
M16
G05
G00X9.5575Y-3.9616
M15
G01X9.585Y-3.9592
M16
G05
G00X9.6253Y-3.5217
M15
G01X9.641Y-3.5204
M16
G05
G00X10.0486Y-3.2737
M15
G01X10.0761Y-3.2713
M16
G05
G00X10.083Y-3.0161
M15
G01X10.0987Y-3.0148
M16
G05
G00X10.1146Y-4.0207
M15
G01X10.1421Y-4.0183
M16
G05
G00X10.149Y-3.7631
M15
G01X10.1647Y-3.7618
M16
G05
G00X10.2555Y-3.3346
M15
G01X10.283Y-3.3322
M16
G05
G00X10.3233Y-2.8947
M15
G01X10.339Y-2.8934
M16
G05
G00X10.3215Y-4.0816
M15
G01X10.349Y-4.0792
M16
G05
G00X10.3893Y-3.6417
M15
G01X10.405Y-3.6404
M16
G05
T5
G00X2.1007Y-1.7483
M15
G01X2.0496Y-1.7483
M16
G05
G00X2.1007Y-2.1892
M15
G01X2.0496Y-2.1892
M16
G05
T0
M30
