%TF.GenerationSoftware,KiCad,Pcbnew,(6.0.9)*%
%TF.CreationDate,2023-02-21T23:29:26+05:30*%
%TF.ProjectId,Titan Keyboard,54697461-6e20-44b6-9579-626f6172642e,rev?*%
%TF.SameCoordinates,Original*%
%TF.FileFunction,Soldermask,Top*%
%TF.FilePolarity,Negative*%
%FSLAX46Y46*%
G04 Gerber Fmt 4.6, Leading zero omitted, Abs format (unit mm)*
G04 Created by KiCad (PCBNEW (6.0.9)) date 2023-02-21 23:29:26*
%MOMM*%
%LPD*%
G01*
G04 APERTURE LIST*
G04 Aperture macros list*
%AMHorizOval*
0 Thick line with rounded ends*
0 $1 width*
0 $2 $3 position (X,Y) of the first rounded end (center of the circle)*
0 $4 $5 position (X,Y) of the second rounded end (center of the circle)*
0 Add line between two ends*
20,1,$1,$2,$3,$4,$5,0*
0 Add two circle primitives to create the rounded ends*
1,1,$1,$2,$3*
1,1,$1,$4,$5*%
%AMRotRect*
0 Rectangle, with rotation*
0 The origin of the aperture is its center*
0 $1 length*
0 $2 width*
0 $3 Rotation angle, in degrees counterclockwise*
0 Add horizontal line*
21,1,$1,$2,0,0,$3*%
G04 Aperture macros list end*
%ADD10R,1.752600X1.752600*%
%ADD11C,1.752600*%
%ADD12C,1.800000*%
%ADD13C,2.100000*%
%ADD14C,4.000000*%
%ADD15C,1.900000*%
%ADD16HorizOval,2.000000X0.396107X-0.055669X-0.396107X0.055669X0*%
%ADD17HorizOval,2.000000X0.247567X-0.034793X-0.247567X0.034793X0*%
%ADD18HorizOval,2.000000X0.398478X-0.034862X-0.398478X0.034862X0*%
%ADD19HorizOval,2.000000X0.249049X-0.021789X-0.249049X0.021789X0*%
%ADD20HorizOval,2.000000X0.249049X0.021789X-0.249049X-0.021789X0*%
%ADD21HorizOval,2.000000X0.398478X0.034862X-0.398478X-0.034862X0*%
%ADD22O,2.500000X2.000000*%
%ADD23O,2.800000X2.000000*%
%ADD24C,2.000000*%
%ADD25R,3.200000X2.000000*%
%ADD26R,2.000000X2.000000*%
%ADD27R,1.600000X1.600000*%
%ADD28O,1.600000X1.600000*%
%ADD29RotRect,1.600000X1.600000X185.000000*%
%ADD30HorizOval,1.600000X0.000000X0.000000X0.000000X0.000000X0*%
%ADD31RotRect,1.600000X1.600000X262.000000*%
%ADD32HorizOval,1.600000X0.000000X0.000000X0.000000X0.000000X0*%
%ADD33RotRect,1.600000X1.600000X172.000000*%
%ADD34HorizOval,1.600000X0.000000X0.000000X0.000000X0.000000X0*%
%ADD35RotRect,1.600000X1.600000X265.000000*%
%ADD36HorizOval,1.600000X0.000000X0.000000X0.000000X0.000000X0*%
G04 APERTURE END LIST*
D10*
%TO.C,SW1*%
X95300800Y-42926000D03*
D11*
X101803200Y-42926000D03*
%TD*%
D12*
%TO.C,U1*%
X110236000Y-44450000D03*
X110236000Y-46990000D03*
X110236000Y-49530000D03*
X110236000Y-52070000D03*
X110236000Y-54610000D03*
X110236000Y-57150000D03*
X110236000Y-59690000D03*
X110236000Y-62230000D03*
X110236000Y-64770000D03*
X110236000Y-67310000D03*
X110236000Y-69850000D03*
X110236000Y-72390000D03*
X125476000Y-72390000D03*
X125476000Y-69850000D03*
X125476000Y-67310000D03*
X125476000Y-64770000D03*
X125476000Y-62230000D03*
X125476000Y-59690000D03*
X125476000Y-57150000D03*
X125476000Y-54610000D03*
X125476000Y-52070000D03*
X125476000Y-49530000D03*
X125476000Y-46990000D03*
X125476000Y-44450000D03*
%TD*%
D13*
%TO.C,SW12*%
X100315474Y-82299452D03*
D14*
X94869000Y-81534000D03*
D15*
X89838438Y-80827001D03*
D13*
X89422526Y-80768548D03*
D15*
X99899562Y-82240999D03*
D16*
X89275858Y-84686263D03*
D17*
X91449578Y-78488470D03*
D16*
X94047879Y-87376582D03*
D17*
X98091280Y-76856938D03*
%TD*%
D13*
%TO.C,SW18*%
X130588729Y-119967443D03*
D15*
X131007131Y-120004049D03*
X141128469Y-120889551D03*
D13*
X141546871Y-120926157D03*
D14*
X136067800Y-120446800D03*
D18*
X130647300Y-123887465D03*
D19*
X132493674Y-117584402D03*
X139040886Y-115607507D03*
D18*
X135553581Y-126324349D03*
%TD*%
D13*
%TO.C,SW33*%
X240022671Y-56670643D03*
D15*
X239604269Y-56707249D03*
D14*
X234543600Y-57150000D03*
D13*
X229064529Y-57629357D03*
D15*
X229482931Y-57592751D03*
D20*
X230526723Y-54951729D03*
D21*
X229802914Y-61479654D03*
D20*
X236631183Y-51867955D03*
D21*
X235057819Y-63027549D03*
%TD*%
D14*
%TO.C,SW35*%
X242595400Y-94716600D03*
D13*
X248074471Y-94237243D03*
D15*
X247656069Y-94273849D03*
D13*
X237116329Y-95195957D03*
D15*
X237534731Y-95159351D03*
D20*
X238578523Y-92518329D03*
D21*
X237854714Y-99046254D03*
D20*
X244682983Y-89434555D03*
D21*
X243109619Y-100594149D03*
%TD*%
D13*
%TO.C,SW17*%
X136790800Y-78638400D03*
D15*
X137210800Y-78638400D03*
X147370800Y-78638400D03*
D14*
X142290800Y-78638400D03*
D13*
X147790800Y-78638400D03*
D22*
X138480800Y-76098400D03*
D23*
X137190800Y-82538400D03*
X142290800Y-84538400D03*
D22*
X144830800Y-73558400D03*
%TD*%
D24*
%TO.C,SW4*%
X45709000Y-52506250D03*
X45709000Y-47506250D03*
D25*
X52709000Y-44406250D03*
X52709000Y-55606250D03*
D24*
X60209000Y-50006250D03*
X60209000Y-47506250D03*
D26*
X60209000Y-52506250D03*
%TD*%
D13*
%TO.C,SW8*%
X70626526Y-78101548D03*
D14*
X76073000Y-78867000D03*
D15*
X81103562Y-79573999D03*
D13*
X81519474Y-79632452D03*
D15*
X71042438Y-78160001D03*
D17*
X72653578Y-75821470D03*
D16*
X70479858Y-82019263D03*
X75251879Y-84709582D03*
D17*
X79295280Y-74189938D03*
%TD*%
D14*
%TO.C,SW39*%
X262001000Y-97764600D03*
D13*
X267480071Y-97285243D03*
X256521929Y-98243957D03*
D15*
X267061669Y-97321849D03*
X256940331Y-98207351D03*
D21*
X257260314Y-102094254D03*
D20*
X257984123Y-95566329D03*
X264088583Y-92482555D03*
D21*
X262515219Y-103642149D03*
%TD*%
D13*
%TO.C,SW26*%
X208475871Y-78565443D03*
D14*
X202996800Y-79044800D03*
D15*
X197936131Y-79487551D03*
D13*
X197517729Y-79524157D03*
D15*
X208057469Y-78602049D03*
D20*
X198979923Y-76846529D03*
D21*
X198256114Y-83374454D03*
D20*
X205084383Y-73762755D03*
D21*
X203511019Y-84922349D03*
%TD*%
D13*
%TO.C,SW38*%
X265803671Y-78311443D03*
D15*
X265385269Y-78348049D03*
D13*
X254845529Y-79270157D03*
D15*
X255263931Y-79233551D03*
D14*
X260324600Y-78790800D03*
D21*
X255583914Y-83120454D03*
D20*
X256307723Y-76592529D03*
X262412183Y-73508755D03*
D21*
X260838819Y-84668349D03*
%TD*%
D14*
%TO.C,SW21*%
X161366200Y-78638400D03*
D15*
X156286200Y-78638400D03*
D13*
X155866200Y-78638400D03*
D15*
X166446200Y-78638400D03*
D13*
X166866200Y-78638400D03*
D22*
X157556200Y-76098400D03*
D23*
X156266200Y-82538400D03*
D22*
X163906200Y-73558400D03*
D23*
X161366200Y-84538400D03*
%TD*%
D15*
%TO.C,SW25*%
X201009531Y-60081951D03*
D13*
X211549271Y-59159843D03*
D14*
X206070200Y-59639200D03*
D13*
X200591129Y-60118557D03*
D15*
X211130869Y-59196449D03*
D20*
X202053323Y-57440929D03*
D21*
X201329514Y-63968854D03*
X206584419Y-65516749D03*
D20*
X208157783Y-54357155D03*
%TD*%
D15*
%TO.C,SW2*%
X62180562Y-76906999D03*
D13*
X62596474Y-76965452D03*
X51703526Y-75434548D03*
D15*
X52119438Y-75493001D03*
D14*
X57150000Y-76200000D03*
D16*
X51556858Y-79352263D03*
D17*
X53730578Y-73154470D03*
D16*
X56328879Y-82042582D03*
D17*
X60372280Y-71522938D03*
%TD*%
D14*
%TO.C,SW27*%
X204647800Y-98018600D03*
D13*
X199168729Y-98497957D03*
D15*
X209708469Y-97575849D03*
D13*
X210126871Y-97539243D03*
D15*
X199587131Y-98461351D03*
D21*
X199907114Y-102348254D03*
D20*
X200630923Y-95820329D03*
D21*
X205162019Y-103896149D03*
D20*
X206735383Y-92736555D03*
%TD*%
D15*
%TO.C,SW3*%
X73709438Y-59237001D03*
D13*
X73293526Y-59178548D03*
D14*
X78740000Y-59944000D03*
D15*
X83770562Y-60650999D03*
D13*
X84186474Y-60709452D03*
D16*
X73146858Y-63096263D03*
D17*
X75320578Y-56898470D03*
D16*
X77918879Y-65786582D03*
D17*
X81962280Y-55266938D03*
%TD*%
D15*
%TO.C,SW31*%
X218560931Y-96810351D03*
D14*
X223621600Y-96367600D03*
D15*
X228682269Y-95924849D03*
D13*
X218142529Y-96846957D03*
X229100671Y-95888243D03*
D20*
X219604723Y-94169329D03*
D21*
X218880914Y-100697254D03*
D20*
X225709183Y-91085555D03*
D21*
X224135819Y-102245149D03*
%TD*%
D14*
%TO.C,SW34*%
X240944400Y-75717400D03*
D13*
X235465329Y-76196757D03*
D15*
X235883731Y-76160151D03*
D13*
X246423471Y-75238043D03*
D15*
X246005069Y-75274649D03*
D21*
X236203714Y-80047054D03*
D20*
X236927523Y-73519129D03*
X243031983Y-70435355D03*
D21*
X241458619Y-81594949D03*
%TD*%
D13*
%TO.C,SW30*%
X216491529Y-77873157D03*
D15*
X227031269Y-76951049D03*
D14*
X221970600Y-77393800D03*
D15*
X216909931Y-77836551D03*
D13*
X227449671Y-76914443D03*
D21*
X217229914Y-81723454D03*
D20*
X217953723Y-75195529D03*
X224058183Y-72111755D03*
D21*
X222484819Y-83271349D03*
%TD*%
D27*
%TO.C,D20*%
X157480000Y-87884000D03*
D28*
X165100000Y-87884000D03*
%TD*%
D29*
%TO.C,D38*%
X266685502Y-106855937D03*
D30*
X259094498Y-107520064D03*
%TD*%
D31*
%TO.C,D11*%
X105178250Y-76999079D03*
D32*
X104117751Y-84544922D03*
%TD*%
D26*
%TO.C,J2*%
X259556250Y-45243750D03*
%TD*%
D27*
%TO.C,D16*%
X138430000Y-87884000D03*
D28*
X146050000Y-87884000D03*
%TD*%
D29*
%TO.C,D29*%
X226553502Y-86281937D03*
D30*
X218962498Y-86946064D03*
%TD*%
D29*
%TO.C,D34*%
X247127502Y-103807937D03*
D30*
X239536498Y-104472064D03*
%TD*%
D29*
%TO.C,D26*%
X209281502Y-107109937D03*
D30*
X201690498Y-107774064D03*
%TD*%
D29*
%TO.C,D24*%
X210551502Y-68755937D03*
D30*
X202960498Y-69420064D03*
%TD*%
D31*
%TO.C,D2*%
X88646000Y-57150000D03*
D32*
X87585501Y-64695843D03*
%TD*%
D33*
%TO.C,D3*%
X84507843Y-51098499D03*
D34*
X76962000Y-50038000D03*
%TD*%
D29*
%TO.C,D32*%
X238999502Y-66215937D03*
D30*
X231408498Y-66880064D03*
%TD*%
D31*
%TO.C,D7*%
X86382250Y-74205079D03*
D32*
X85321751Y-81750922D03*
%TD*%
D26*
%TO.C,J1*%
X264318750Y-45243750D03*
%TD*%
%TO.C,J3*%
X254793750Y-45243750D03*
%TD*%
D29*
%TO.C,D30*%
X228077502Y-105585936D03*
D30*
X220486498Y-106250063D03*
%TD*%
D35*
%TO.C,D17*%
X145796000Y-117602000D03*
D36*
X145131873Y-125193004D03*
%TD*%
D29*
%TO.C,D37*%
X264907502Y-87805937D03*
D30*
X257316498Y-88470064D03*
%TD*%
D29*
%TO.C,D25*%
X207503502Y-88059937D03*
D30*
X199912498Y-88724064D03*
%TD*%
D31*
%TO.C,D1*%
X67586250Y-71665079D03*
D32*
X66525751Y-79210922D03*
%TD*%
D29*
%TO.C,D33*%
X245603502Y-84757937D03*
D30*
X238012498Y-85422064D03*
%TD*%
M02*
