%TF.GenerationSoftware,KiCad,Pcbnew,(6.0.9)*%
%TF.CreationDate,2023-02-21T23:29:26+05:30*%
%TF.ProjectId,Titan Keyboard,54697461-6e20-44b6-9579-626f6172642e,rev?*%
%TF.SameCoordinates,Original*%
%TF.FileFunction,Legend,Top*%
%TF.FilePolarity,Positive*%
%FSLAX46Y46*%
G04 Gerber Fmt 4.6, Leading zero omitted, Abs format (unit mm)*
G04 Created by KiCad (PCBNEW (6.0.9)) date 2023-02-21 23:29:26*
%MOMM*%
%LPD*%
G01*
G04 APERTURE LIST*
G04 Aperture macros list*
%AMHorizOval*
0 Thick line with rounded ends*
0 $1 width*
0 $2 $3 position (X,Y) of the first rounded end (center of the circle)*
0 $4 $5 position (X,Y) of the second rounded end (center of the circle)*
0 Add line between two ends*
20,1,$1,$2,$3,$4,$5,0*
0 Add two circle primitives to create the rounded ends*
1,1,$1,$2,$3*
1,1,$1,$4,$5*%
%AMRotRect*
0 Rectangle, with rotation*
0 The origin of the aperture is its center*
0 $1 length*
0 $2 width*
0 $3 Rotation angle, in degrees counterclockwise*
0 Add horizontal line*
21,1,$1,$2,0,0,$3*%
G04 Aperture macros list end*
%ADD10C,0.120000*%
%ADD11C,0.150000*%
%ADD12R,1.752600X1.752600*%
%ADD13C,1.752600*%
%ADD14C,1.800000*%
%ADD15C,2.100000*%
%ADD16C,4.000000*%
%ADD17C,1.900000*%
%ADD18HorizOval,2.000000X0.396107X-0.055669X-0.396107X0.055669X0*%
%ADD19HorizOval,2.000000X0.247567X-0.034793X-0.247567X0.034793X0*%
%ADD20HorizOval,2.000000X0.398478X-0.034862X-0.398478X0.034862X0*%
%ADD21HorizOval,2.000000X0.249049X-0.021789X-0.249049X0.021789X0*%
%ADD22HorizOval,2.000000X0.249049X0.021789X-0.249049X-0.021789X0*%
%ADD23HorizOval,2.000000X0.398478X0.034862X-0.398478X-0.034862X0*%
%ADD24O,2.500000X2.000000*%
%ADD25O,2.800000X2.000000*%
%ADD26C,2.000000*%
%ADD27R,3.200000X2.000000*%
%ADD28R,2.000000X2.000000*%
%ADD29R,1.600000X1.600000*%
%ADD30O,1.600000X1.600000*%
%ADD31RotRect,1.600000X1.600000X185.000000*%
%ADD32HorizOval,1.600000X0.000000X0.000000X0.000000X0.000000X0*%
%ADD33RotRect,1.600000X1.600000X262.000000*%
%ADD34HorizOval,1.600000X0.000000X0.000000X0.000000X0.000000X0*%
%ADD35RotRect,1.600000X1.600000X172.000000*%
%ADD36HorizOval,1.600000X0.000000X0.000000X0.000000X0.000000X0*%
%ADD37RotRect,1.600000X1.600000X265.000000*%
%ADD38HorizOval,1.600000X0.000000X0.000000X0.000000X0.000000X0*%
G04 APERTURE END LIST*
D10*
%TO.C,SW1*%
X95427800Y-41046400D02*
X95427800Y-41716960D01*
X95427800Y-44135040D02*
X95427800Y-44805600D01*
X101676200Y-44805600D02*
X101676200Y-44128351D01*
X101676200Y-41723649D02*
X101676200Y-41046400D01*
X101676200Y-41046400D02*
X95427800Y-41046400D01*
X95427800Y-44805600D02*
X101676200Y-44805600D01*
D11*
%TO.C,U1*%
X114046000Y-43180000D02*
X114046000Y-40640000D01*
X126746000Y-73660000D02*
X108966000Y-73660000D01*
X114046000Y-40640000D02*
X121666000Y-40640000D01*
X108966000Y-43180000D02*
X108966000Y-73660000D01*
X108966000Y-43180000D02*
X114046000Y-43180000D01*
X121666000Y-43180000D02*
X126746000Y-43180000D01*
X126746000Y-43180000D02*
X126746000Y-73660000D01*
X121666000Y-40640000D02*
X121666000Y-43180000D01*
%TO.C,SW12*%
X88772162Y-74618180D02*
X88911335Y-73627912D01*
X100965838Y-88449820D02*
X100826665Y-89440088D01*
X99836397Y-89300915D02*
X100826665Y-89440088D01*
X89901603Y-73767085D02*
X88911335Y-73627912D01*
X86962912Y-87491665D02*
X87102085Y-86501397D01*
X102775088Y-75576335D02*
X102635915Y-76566603D01*
X102775088Y-75576335D02*
X101784820Y-75437162D01*
X86962912Y-87491665D02*
X87953180Y-87630838D01*
%TO.C,SW18*%
X143651253Y-114083527D02*
X142655058Y-113996372D01*
X130700722Y-112950503D02*
X129704527Y-112863347D01*
X128484347Y-126810073D02*
X128571503Y-125813878D01*
X142518228Y-127034058D02*
X142431073Y-128030253D01*
X141434878Y-127943097D02*
X142431073Y-128030253D01*
X128484347Y-126810073D02*
X129480542Y-126897228D01*
X129617372Y-113859542D02*
X129704527Y-112863347D01*
X143651253Y-114083527D02*
X143564097Y-115079722D01*
%TO.C,SW33*%
X228180327Y-64733453D02*
X228093172Y-63737258D01*
X240906873Y-49566547D02*
X240994028Y-50562742D01*
X227047303Y-51782922D02*
X226960147Y-50786727D01*
X241130858Y-63600428D02*
X242127053Y-63513273D01*
X228180327Y-64733453D02*
X229176522Y-64646297D01*
X242039897Y-62517078D02*
X242127053Y-63513273D01*
X240906873Y-49566547D02*
X239910678Y-49653703D01*
X227956342Y-50699572D02*
X226960147Y-50786727D01*
%TO.C,SW35*%
X248958673Y-87133147D02*
X247962478Y-87220303D01*
X236008142Y-88266172D02*
X235011947Y-88353327D01*
X249182658Y-101167028D02*
X250178853Y-101079873D01*
X250091697Y-100083678D02*
X250178853Y-101079873D01*
X248958673Y-87133147D02*
X249045828Y-88129342D01*
X235099103Y-89349522D02*
X235011947Y-88353327D01*
X236232127Y-102300053D02*
X237228322Y-102212897D01*
X236232127Y-102300053D02*
X236144972Y-101303858D01*
%TO.C,SW17*%
X135290800Y-85638400D02*
X136290800Y-85638400D01*
X135290800Y-85638400D02*
X135290800Y-84638400D01*
X149290800Y-71638400D02*
X149290800Y-72638400D01*
X135290800Y-72638400D02*
X135290800Y-71638400D01*
X136290800Y-71638400D02*
X135290800Y-71638400D01*
X148290800Y-85638400D02*
X149290800Y-85638400D01*
X149290800Y-84638400D02*
X149290800Y-85638400D01*
X149290800Y-71638400D02*
X148290800Y-71638400D01*
D10*
%TO.C,SW4*%
X55709000Y-50006250D02*
G75*
G03*
X55709000Y-50006250I-3000000J0D01*
G01*
X59909000Y-54106250D02*
X60209000Y-53806250D01*
X54709000Y-55906250D02*
X58809000Y-55906250D01*
X58809000Y-55906250D02*
X58809000Y-44106250D01*
X60509000Y-54106250D02*
X59909000Y-54106250D01*
X46609000Y-44106250D02*
X50709000Y-44106250D01*
X46609000Y-46506250D02*
X46609000Y-44106250D01*
X53209000Y-50006250D02*
X52209000Y-50006250D01*
X60209000Y-53806250D02*
X60509000Y-54106250D01*
X46609000Y-55906250D02*
X46609000Y-53506250D01*
X46609000Y-51306250D02*
X46609000Y-48706250D01*
X54709000Y-44106250D02*
X58809000Y-44106250D01*
X52709000Y-50506250D02*
X52709000Y-49506250D01*
X50709000Y-55906250D02*
X46609000Y-55906250D01*
D11*
%TO.C,SW8*%
X83979088Y-72909335D02*
X83839915Y-73899603D01*
X82169838Y-85782820D02*
X82030665Y-86773088D01*
X68166912Y-84824665D02*
X68306085Y-83834397D01*
X71105603Y-71100085D02*
X70115335Y-70960912D01*
X81040397Y-86633915D02*
X82030665Y-86773088D01*
X83979088Y-72909335D02*
X82988820Y-72770162D01*
X68166912Y-84824665D02*
X69157180Y-84963838D01*
X69976162Y-71951180D02*
X70115335Y-70960912D01*
%TO.C,SW39*%
X255413742Y-91314172D02*
X254417547Y-91401327D01*
X268588258Y-104215028D02*
X269584453Y-104127873D01*
X255637727Y-105348053D02*
X256633922Y-105260897D01*
X254504703Y-92397522D02*
X254417547Y-91401327D01*
X268364273Y-90181147D02*
X267368078Y-90268303D01*
X255637727Y-105348053D02*
X255550572Y-104351858D01*
X269497297Y-103131678D02*
X269584453Y-104127873D01*
X268364273Y-90181147D02*
X268451428Y-91177342D01*
%TO.C,SW26*%
X209360073Y-71461347D02*
X208363878Y-71548503D01*
X196633527Y-86628253D02*
X197629722Y-86541097D01*
X196633527Y-86628253D02*
X196546372Y-85632058D01*
X209360073Y-71461347D02*
X209447228Y-72457542D01*
X196409542Y-72594372D02*
X195413347Y-72681527D01*
X195500503Y-73677722D02*
X195413347Y-72681527D01*
X209584058Y-85495228D02*
X210580253Y-85408073D01*
X210493097Y-84411878D02*
X210580253Y-85408073D01*
%TO.C,SW38*%
X253961327Y-86374253D02*
X254957522Y-86287097D01*
X253961327Y-86374253D02*
X253874172Y-85378058D01*
X266911858Y-85241228D02*
X267908053Y-85154073D01*
X253737342Y-72340372D02*
X252741147Y-72427527D01*
X266687873Y-71207347D02*
X266775028Y-72203542D01*
X266687873Y-71207347D02*
X265691678Y-71294503D01*
X252828303Y-73423722D02*
X252741147Y-72427527D01*
X267820897Y-84157878D02*
X267908053Y-85154073D01*
%TO.C,SW21*%
X168366200Y-71638400D02*
X167366200Y-71638400D01*
X167366200Y-85638400D02*
X168366200Y-85638400D01*
X154366200Y-85638400D02*
X154366200Y-84638400D01*
X168366200Y-71638400D02*
X168366200Y-72638400D01*
X154366200Y-72638400D02*
X154366200Y-71638400D01*
X168366200Y-84638400D02*
X168366200Y-85638400D01*
X154366200Y-85638400D02*
X155366200Y-85638400D01*
X155366200Y-71638400D02*
X154366200Y-71638400D01*
%TO.C,SW25*%
X212433473Y-52055747D02*
X212520628Y-53051942D01*
X213566497Y-65006278D02*
X213653653Y-66002473D01*
X212433473Y-52055747D02*
X211437278Y-52142903D01*
X212657458Y-66089628D02*
X213653653Y-66002473D01*
X199706927Y-67222653D02*
X200703122Y-67135497D01*
X199482942Y-53188772D02*
X198486747Y-53275927D01*
X198573903Y-54272122D02*
X198486747Y-53275927D01*
X199706927Y-67222653D02*
X199619772Y-66226458D01*
%TO.C,G\u002A\u002A\u002A*%
G36*
X77721843Y-100376616D02*
G01*
X78644711Y-100415376D01*
X79501481Y-100483717D01*
X80295260Y-100582216D01*
X81029155Y-100711451D01*
X81706272Y-100871999D01*
X82329718Y-101064437D01*
X82902600Y-101289343D01*
X83086983Y-101373579D01*
X83603776Y-101644990D01*
X84048348Y-101935031D01*
X84421364Y-102244486D01*
X84723487Y-102574139D01*
X84955381Y-102924775D01*
X85117708Y-103297177D01*
X85211133Y-103692128D01*
X85232810Y-103908558D01*
X85232736Y-104214374D01*
X85193690Y-104507709D01*
X85111181Y-104810432D01*
X84980719Y-105144418D01*
X84977544Y-105151670D01*
X84718542Y-105655521D01*
X84386003Y-106153457D01*
X83979754Y-106645630D01*
X83499622Y-107132193D01*
X82945435Y-107613296D01*
X82317020Y-108089092D01*
X81614205Y-108559734D01*
X80836816Y-109025371D01*
X80142929Y-109403913D01*
X79076060Y-109929207D01*
X77950289Y-110418846D01*
X76773956Y-110870476D01*
X75555398Y-111281747D01*
X74302957Y-111650305D01*
X73024970Y-111973799D01*
X71729777Y-112249876D01*
X70425718Y-112476185D01*
X69121131Y-112650373D01*
X68360625Y-112727206D01*
X68180845Y-112740250D01*
X67946278Y-112752842D01*
X67668454Y-112764734D01*
X67358901Y-112775679D01*
X67029147Y-112785428D01*
X66690721Y-112793732D01*
X66355152Y-112800345D01*
X66033967Y-112805019D01*
X65738695Y-112807504D01*
X65480865Y-112807552D01*
X65272005Y-112804917D01*
X65123644Y-112799350D01*
X65096880Y-112797431D01*
X64999578Y-112789880D01*
X64845545Y-112778546D01*
X64652911Y-112764738D01*
X64439808Y-112749763D01*
X64346510Y-112743299D01*
X63522567Y-112669357D01*
X62760732Y-112564930D01*
X62053990Y-112428730D01*
X61395324Y-112259465D01*
X60958749Y-112120492D01*
X60395429Y-111900628D01*
X59889756Y-111650950D01*
X59443643Y-111373577D01*
X59059003Y-111070623D01*
X58737750Y-110744208D01*
X58481798Y-110396446D01*
X58293062Y-110029456D01*
X58173454Y-109645354D01*
X58124888Y-109246257D01*
X58131243Y-108992857D01*
X58203024Y-108555309D01*
X58348023Y-108111239D01*
X58564846Y-107662099D01*
X58852100Y-107209344D01*
X59208390Y-106754428D01*
X59632322Y-106298802D01*
X60122504Y-105843922D01*
X60677540Y-105391240D01*
X61296038Y-104942211D01*
X61976603Y-104498287D01*
X62717842Y-104060921D01*
X63021433Y-103893328D01*
X63238067Y-103778058D01*
X63460412Y-103663548D01*
X63678156Y-103554708D01*
X63880985Y-103456446D01*
X64058585Y-103373672D01*
X64200642Y-103311295D01*
X64296843Y-103274224D01*
X64336751Y-103267238D01*
X64329919Y-103305479D01*
X64300426Y-103395649D01*
X64254125Y-103520268D01*
X64239816Y-103556760D01*
X64098416Y-103945958D01*
X63964769Y-104374618D01*
X63846989Y-104813478D01*
X63753190Y-105233274D01*
X63712802Y-105457543D01*
X63694499Y-105558365D01*
X63670529Y-105638875D01*
X63631352Y-105714406D01*
X63567429Y-105800292D01*
X63469218Y-105911865D01*
X63350975Y-106039079D01*
X63048569Y-106388783D01*
X62782858Y-106750544D01*
X62560849Y-107112760D01*
X62389549Y-107463824D01*
X62275963Y-107792132D01*
X62264289Y-107838899D01*
X62206832Y-108230221D01*
X62222187Y-108605297D01*
X62309667Y-108962992D01*
X62468584Y-109302172D01*
X62698252Y-109621703D01*
X62997983Y-109920450D01*
X63367089Y-110197279D01*
X63804884Y-110451055D01*
X63865463Y-110481627D01*
X64378401Y-110702588D01*
X64953601Y-110887474D01*
X65587140Y-111035567D01*
X66275096Y-111146147D01*
X67013545Y-111218495D01*
X67798563Y-111251892D01*
X68079598Y-111254246D01*
X69257354Y-111217452D01*
X70443091Y-111107989D01*
X71631329Y-110927009D01*
X72816588Y-110675663D01*
X73993388Y-110355103D01*
X75156249Y-109966479D01*
X76225146Y-109542957D01*
X76921070Y-109226778D01*
X77574709Y-108891886D01*
X78183305Y-108540874D01*
X78744097Y-108176337D01*
X79254324Y-107800868D01*
X79711228Y-107417060D01*
X80112047Y-107027507D01*
X80454023Y-106634803D01*
X80734394Y-106241542D01*
X80950401Y-105850316D01*
X81099284Y-105463721D01*
X81178282Y-105084349D01*
X81190964Y-104876506D01*
X81156994Y-104495892D01*
X81051773Y-104134531D01*
X80877049Y-103794306D01*
X80634568Y-103477099D01*
X80326080Y-103184794D01*
X79953332Y-102919275D01*
X79518071Y-102682423D01*
X79022046Y-102476122D01*
X78934222Y-102445059D01*
X78543468Y-102310078D01*
X78339007Y-102041777D01*
X78093810Y-101727534D01*
X77861475Y-101447504D01*
X77620478Y-101176914D01*
X77349298Y-100890990D01*
X77259623Y-100799314D01*
X76821400Y-100353880D01*
X77721843Y-100376616D01*
G37*
G36*
X76775913Y-123267531D02*
G01*
X76894679Y-123297596D01*
X76963189Y-123346715D01*
X76989367Y-123417150D01*
X76990233Y-123436464D01*
X76972225Y-123500232D01*
X76912261Y-123544447D01*
X76801433Y-123571768D01*
X76630829Y-123584856D01*
X76486200Y-123586993D01*
X76127308Y-123586993D01*
X76127308Y-123849622D01*
X76443535Y-123849622D01*
X76637749Y-123857066D01*
X76767930Y-123882237D01*
X76843865Y-123929395D01*
X76875339Y-124002798D01*
X76877677Y-124038574D01*
X76855859Y-124105919D01*
X76785142Y-124151378D01*
X76657629Y-124177574D01*
X76465426Y-124187128D01*
X76429922Y-124187288D01*
X76127308Y-124187288D01*
X76127308Y-124449917D01*
X76455595Y-124450430D01*
X76659550Y-124453635D01*
X76800984Y-124464736D01*
X76892275Y-124487079D01*
X76945799Y-124524013D01*
X76973935Y-124578884D01*
X76977416Y-124591553D01*
X76984700Y-124664931D01*
X76958372Y-124718045D01*
X76889790Y-124753873D01*
X76770314Y-124775392D01*
X76591302Y-124785583D01*
X76408696Y-124787584D01*
X76190114Y-124784662D01*
X76035903Y-124775193D01*
X75935597Y-124758119D01*
X75881229Y-124734278D01*
X75854883Y-124709885D01*
X75835762Y-124673668D01*
X75822719Y-124614447D01*
X75814610Y-124521043D01*
X75810291Y-124382278D01*
X75808615Y-124186972D01*
X75808401Y-124023263D01*
X75810016Y-123763786D01*
X75815226Y-123571303D01*
X75824581Y-123437830D01*
X75838632Y-123355388D01*
X75857071Y-123316821D01*
X75920182Y-123291016D01*
X76052715Y-123271799D01*
X76256922Y-123258892D01*
X76355920Y-123255524D01*
X76598968Y-123254261D01*
X76775913Y-123267531D01*
G37*
G36*
X77957269Y-110922320D02*
G01*
X77949149Y-110964695D01*
X77895430Y-111052216D01*
X77803104Y-111176501D01*
X77679161Y-111329171D01*
X77530591Y-111501846D01*
X77364385Y-111686146D01*
X77187535Y-111873691D01*
X77032137Y-112031308D01*
X76467764Y-112542154D01*
X75872254Y-112985695D01*
X75243065Y-113363243D01*
X74577656Y-113676108D01*
X73873485Y-113925602D01*
X73128009Y-114113036D01*
X72919479Y-114153144D01*
X72738408Y-114177702D01*
X72500562Y-114198164D01*
X72224114Y-114214063D01*
X71927240Y-114224928D01*
X71628113Y-114230291D01*
X71344907Y-114229682D01*
X71095796Y-114222633D01*
X70898955Y-114208675D01*
X70874723Y-114205916D01*
X70131096Y-114077972D01*
X69388337Y-113875258D01*
X68647303Y-113598041D01*
X68083077Y-113336325D01*
X67959812Y-113266003D01*
X67908770Y-113214319D01*
X67930370Y-113179942D01*
X68025029Y-113161540D01*
X68139229Y-113157434D01*
X68270624Y-113152492D01*
X68462059Y-113139259D01*
X68699169Y-113119161D01*
X68967587Y-113093621D01*
X69252949Y-113064065D01*
X69540888Y-113031917D01*
X69817040Y-112998602D01*
X70049317Y-112968010D01*
X71566450Y-112723443D01*
X73065022Y-112412082D01*
X74552424Y-112032044D01*
X76036048Y-111581446D01*
X77473629Y-111077007D01*
X77646879Y-111014106D01*
X77793752Y-110964301D01*
X77900678Y-110931932D01*
X77954089Y-110921340D01*
X77957269Y-110922320D01*
G37*
G36*
X68000191Y-123253937D02*
G01*
X68107328Y-123262354D01*
X68179854Y-123278406D01*
X68231201Y-123303158D01*
X68231761Y-123303523D01*
X68309441Y-123380846D01*
X68319694Y-123457383D01*
X68269616Y-123523605D01*
X68166306Y-123569982D01*
X68020640Y-123586993D01*
X67835727Y-123586993D01*
X67835727Y-124125196D01*
X67834719Y-124340492D01*
X67830730Y-124493433D01*
X67822311Y-124596685D01*
X67808016Y-124662912D01*
X67786396Y-124704781D01*
X67767116Y-124725491D01*
X67699351Y-124776989D01*
X67646763Y-124775198D01*
X67578641Y-124718069D01*
X67573098Y-124712547D01*
X67542997Y-124675991D01*
X67522167Y-124628019D01*
X67508934Y-124555290D01*
X67501626Y-124444466D01*
X67498570Y-124282206D01*
X67498061Y-124114212D01*
X67498061Y-123590914D01*
X67305433Y-123579574D01*
X67172898Y-123562663D01*
X67093450Y-123526383D01*
X67061660Y-123490855D01*
X67029723Y-123420495D01*
X67052013Y-123357313D01*
X67063591Y-123340781D01*
X67092525Y-123311113D01*
X67137345Y-123290067D01*
X67210919Y-123275704D01*
X67326113Y-123266088D01*
X67495796Y-123259283D01*
X67628361Y-123255760D01*
X67845013Y-123252094D01*
X68000191Y-123253937D01*
G37*
G36*
X69538031Y-115370826D02*
G01*
X69926447Y-115371911D01*
X70288040Y-115373638D01*
X70615889Y-115375939D01*
X70903076Y-115378747D01*
X71142682Y-115381995D01*
X71327788Y-115385614D01*
X71451474Y-115389539D01*
X71506184Y-115393566D01*
X71623555Y-115442439D01*
X71756740Y-115535221D01*
X71881963Y-115652079D01*
X71975449Y-115773180D01*
X71987812Y-115795324D01*
X72024621Y-115904122D01*
X72047690Y-116043842D01*
X72051214Y-116106084D01*
X72018627Y-116320484D01*
X71921737Y-116516991D01*
X71771276Y-116677760D01*
X71666089Y-116746340D01*
X71607838Y-116775317D01*
X71550183Y-116797064D01*
X71481680Y-116812616D01*
X71390884Y-116823007D01*
X71266351Y-116829271D01*
X71096636Y-116832443D01*
X70870294Y-116833558D01*
X70699989Y-116833669D01*
X69899243Y-116833669D01*
X69899243Y-121582615D01*
X69814826Y-121747843D01*
X69730258Y-121876629D01*
X69621920Y-121996938D01*
X69588320Y-122026112D01*
X69488209Y-122094439D01*
X69385941Y-122131683D01*
X69248612Y-122148778D01*
X69213136Y-122150787D01*
X69034789Y-122147620D01*
X68895780Y-122121251D01*
X68867485Y-122110147D01*
X68709355Y-122002176D01*
X68572118Y-121844549D01*
X68494291Y-121702895D01*
X68482274Y-121666455D01*
X68471995Y-121615294D01*
X68463323Y-121543795D01*
X68456128Y-121446340D01*
X68450278Y-121317313D01*
X68445643Y-121151097D01*
X68442093Y-120942073D01*
X68439497Y-120684626D01*
X68437723Y-120373137D01*
X68436642Y-120001989D01*
X68436123Y-119565566D01*
X68436023Y-119198537D01*
X68436023Y-116833669D01*
X67635277Y-116833669D01*
X67368871Y-116833300D01*
X67166055Y-116831501D01*
X67015385Y-116827240D01*
X66905416Y-116819482D01*
X66824702Y-116807192D01*
X66761798Y-116789337D01*
X66705260Y-116764883D01*
X66669177Y-116746372D01*
X66484151Y-116608929D01*
X66350778Y-116425485D01*
X66279304Y-116210824D01*
X66274555Y-116176855D01*
X66267894Y-116054608D01*
X66285968Y-115951284D01*
X66336428Y-115832125D01*
X66360946Y-115784441D01*
X66443311Y-115649356D01*
X66535332Y-115556530D01*
X66666860Y-115475954D01*
X66668848Y-115474913D01*
X66868816Y-115370449D01*
X69129709Y-115370449D01*
X69538031Y-115370826D01*
G37*
G36*
X63844203Y-123294103D02*
G01*
X63854019Y-123294521D01*
X64101973Y-123312054D01*
X64277880Y-123340693D01*
X64370180Y-123372839D01*
X64542094Y-123500189D01*
X64663761Y-123667043D01*
X64735354Y-123859594D01*
X64757049Y-124064037D01*
X64729019Y-124266567D01*
X64651438Y-124453378D01*
X64524480Y-124610665D01*
X64353163Y-124722483D01*
X64215524Y-124769679D01*
X64047861Y-124797614D01*
X63840011Y-124809821D01*
X63682800Y-124811726D01*
X63550559Y-124809147D01*
X63463935Y-124802657D01*
X63446067Y-124798884D01*
X63392798Y-124773100D01*
X63353714Y-124731880D01*
X63326674Y-124664532D01*
X63309539Y-124560364D01*
X63305035Y-124487436D01*
X63633660Y-124487436D01*
X63881120Y-124487436D01*
X64091288Y-124471986D01*
X64233181Y-124425623D01*
X64235956Y-124424008D01*
X64346358Y-124319234D01*
X64405251Y-124178650D01*
X64410896Y-124022603D01*
X64361552Y-123871442D01*
X64291266Y-123777324D01*
X64229696Y-123726199D01*
X64156658Y-123695025D01*
X64049900Y-123677340D01*
X63914918Y-123668031D01*
X63633660Y-123653828D01*
X63633660Y-124487436D01*
X63305035Y-124487436D01*
X63300171Y-124408681D01*
X63296429Y-124198791D01*
X63295993Y-124048803D01*
X63296597Y-123788729D01*
X63301013Y-123653828D01*
X63302956Y-123594459D01*
X63321898Y-123456768D01*
X63360245Y-123366430D01*
X63424825Y-123314220D01*
X63522461Y-123290912D01*
X63659978Y-123287282D01*
X63844203Y-123294103D01*
G37*
G36*
X82660492Y-123647901D02*
G01*
X82690897Y-123595345D01*
X82814796Y-123431186D01*
X82952564Y-123331040D01*
X83123782Y-123284099D01*
X83267609Y-123277040D01*
X83492381Y-123311831D01*
X83686669Y-123404149D01*
X83844194Y-123542419D01*
X83958676Y-123715068D01*
X84023838Y-123910520D01*
X84033400Y-124117203D01*
X83981085Y-124323541D01*
X83907606Y-124456820D01*
X83754427Y-124615303D01*
X83559674Y-124721147D01*
X83339967Y-124769083D01*
X83111927Y-124753840D01*
X83035466Y-124733335D01*
X82834595Y-124633243D01*
X82684626Y-124486134D01*
X82588895Y-124303027D01*
X82550738Y-124094940D01*
X82555971Y-124043874D01*
X82805595Y-124043874D01*
X82832545Y-124217880D01*
X82918775Y-124355102D01*
X83044464Y-124452992D01*
X83172955Y-124512954D01*
X83287171Y-124515360D01*
X83404795Y-124469243D01*
X83545785Y-124362328D01*
X83630344Y-124227265D01*
X83661564Y-124078474D01*
X83642536Y-123930376D01*
X83576355Y-123797393D01*
X83466110Y-123693947D01*
X83314895Y-123634458D01*
X83223925Y-123625697D01*
X83107900Y-123635173D01*
X83018921Y-123676341D01*
X82933157Y-123752074D01*
X82850197Y-123848586D01*
X82813142Y-123940250D01*
X82805595Y-124043874D01*
X82555971Y-124043874D01*
X82573491Y-123872892D01*
X82660492Y-123647901D01*
G37*
G36*
X72941965Y-118926428D02*
G01*
X73202839Y-118426386D01*
X73329189Y-118184334D01*
X73589936Y-117685737D01*
X73818678Y-117250303D01*
X74017451Y-116874324D01*
X74188293Y-116554093D01*
X74333241Y-116285901D01*
X74454331Y-116066040D01*
X74553601Y-115890804D01*
X74633088Y-115756485D01*
X74694828Y-115659373D01*
X74740860Y-115595763D01*
X74767105Y-115567077D01*
X74959720Y-115441546D01*
X75179596Y-115383856D01*
X75370380Y-115389077D01*
X75429403Y-115398739D01*
X75483640Y-115411791D01*
X75535638Y-115432341D01*
X75587943Y-115464499D01*
X75643105Y-115512373D01*
X75703670Y-115580074D01*
X75772186Y-115671709D01*
X75851199Y-115791388D01*
X75943259Y-115943221D01*
X76050911Y-116131316D01*
X76176703Y-116359782D01*
X76323184Y-116632729D01*
X76492900Y-116954265D01*
X76688399Y-117328500D01*
X76912228Y-117759543D01*
X77166935Y-118251503D01*
X77277754Y-118465722D01*
X77532343Y-118958077D01*
X77754572Y-119388452D01*
X77946663Y-119761459D01*
X78110837Y-120081712D01*
X78249318Y-120353823D01*
X78364327Y-120582405D01*
X78458086Y-120772070D01*
X78532818Y-120927431D01*
X78590745Y-121053101D01*
X78634089Y-121153692D01*
X78665072Y-121233818D01*
X78685917Y-121298091D01*
X78698845Y-121351123D01*
X78706079Y-121397527D01*
X78709583Y-121437821D01*
X78713377Y-121582695D01*
X78697126Y-121688616D01*
X78653522Y-121790575D01*
X78625580Y-121840147D01*
X78492946Y-122004892D01*
X78357225Y-122108422D01*
X78244077Y-122166639D01*
X78142350Y-122192792D01*
X78015277Y-122194641D01*
X77964084Y-122191427D01*
X77799122Y-122168697D01*
X77662247Y-122120687D01*
X77542886Y-122038055D01*
X77430469Y-121911463D01*
X77314424Y-121731570D01*
X77196584Y-121513334D01*
X76971473Y-121074159D01*
X75217774Y-121073707D01*
X73464075Y-121073256D01*
X73242917Y-121514098D01*
X73154205Y-121685149D01*
X73070721Y-121835767D01*
X73001199Y-121950864D01*
X72954374Y-122015356D01*
X72950487Y-122019166D01*
X72784394Y-122123159D01*
X72581844Y-122181980D01*
X72368572Y-122192440D01*
X72170314Y-122151350D01*
X72107994Y-122123548D01*
X71923840Y-121985733D01*
X71789117Y-121800287D01*
X71713424Y-121583173D01*
X71700339Y-121445717D01*
X71702167Y-121418301D01*
X71709135Y-121383886D01*
X71723296Y-121338356D01*
X71746709Y-121277592D01*
X71781428Y-121197479D01*
X71829510Y-121093899D01*
X71893010Y-120962736D01*
X71973986Y-120799872D01*
X72074494Y-120601190D01*
X72196589Y-120362574D01*
X72342327Y-120079907D01*
X72513765Y-119749071D01*
X72581177Y-119619415D01*
X74177394Y-119619415D01*
X74213035Y-119626763D01*
X74314145Y-119633396D01*
X74471161Y-119639051D01*
X74674516Y-119643469D01*
X74914645Y-119646387D01*
X75181984Y-119647545D01*
X75208106Y-119647554D01*
X75477499Y-119646575D01*
X75720576Y-119643810D01*
X75927770Y-119639522D01*
X76089519Y-119633972D01*
X76196258Y-119627420D01*
X76238424Y-119620128D01*
X76238724Y-119619415D01*
X76221362Y-119574833D01*
X76173996Y-119476027D01*
X76101986Y-119333044D01*
X76010694Y-119155932D01*
X75905483Y-118954739D01*
X75791713Y-118739510D01*
X75674747Y-118520295D01*
X75559945Y-118307139D01*
X75452669Y-118110089D01*
X75358282Y-117939194D01*
X75282144Y-117804501D01*
X75229617Y-117716056D01*
X75206063Y-117683907D01*
X75205863Y-117683916D01*
X75182754Y-117716960D01*
X75130550Y-117806505D01*
X75054639Y-117942406D01*
X74960412Y-118114523D01*
X74853257Y-118312711D01*
X74738565Y-118526829D01*
X74621725Y-118746733D01*
X74508126Y-118962280D01*
X74403159Y-119163328D01*
X74312212Y-119339734D01*
X74240676Y-119481355D01*
X74193940Y-119578049D01*
X74177394Y-119619415D01*
X72581177Y-119619415D01*
X72712959Y-119365951D01*
X72941965Y-118926428D01*
G37*
G36*
X69260746Y-123250290D02*
G01*
X69416482Y-123254648D01*
X69531008Y-123263198D01*
X69578310Y-123272500D01*
X69644805Y-123323199D01*
X69678165Y-123369417D01*
X69693433Y-123457858D01*
X69643295Y-123528234D01*
X69536567Y-123573505D01*
X69405688Y-123586993D01*
X69223911Y-123586993D01*
X69223911Y-124128883D01*
X69223329Y-124341382D01*
X69220410Y-124491531D01*
X69213392Y-124592013D01*
X69200512Y-124655511D01*
X69180009Y-124694711D01*
X69150121Y-124722295D01*
X69140526Y-124729178D01*
X69062530Y-124777117D01*
X69011408Y-124776792D01*
X68955191Y-124726506D01*
X68948337Y-124718972D01*
X68922991Y-124679264D01*
X68905409Y-124617349D01*
X68894295Y-124520724D01*
X68888358Y-124376885D01*
X68886304Y-124173328D01*
X68886244Y-124118677D01*
X68886244Y-123586993D01*
X68704467Y-123586993D01*
X68564736Y-123567832D01*
X68465972Y-123518451D01*
X68414876Y-123451005D01*
X68418151Y-123377647D01*
X68482498Y-123310529D01*
X68537378Y-123283971D01*
X68610536Y-123270546D01*
X68738694Y-123260253D01*
X68902610Y-123253305D01*
X69083041Y-123249913D01*
X69260746Y-123250290D01*
G37*
G36*
X72149230Y-123255607D02*
G01*
X72313007Y-123276214D01*
X72418669Y-123313801D01*
X72474220Y-123371020D01*
X72488017Y-123437726D01*
X72468734Y-123502348D01*
X72405140Y-123546787D01*
X72288617Y-123573696D01*
X72110546Y-123585725D01*
X72002743Y-123586993D01*
X71662611Y-123586993D01*
X71662611Y-123849622D01*
X71975703Y-123849622D01*
X72139386Y-123852675D01*
X72245673Y-123863966D01*
X72312037Y-123886688D01*
X72350887Y-123918233D01*
X72406259Y-124004292D01*
X72394121Y-124079313D01*
X72354022Y-124128331D01*
X72299825Y-124160080D01*
X72205681Y-124178762D01*
X72057142Y-124186648D01*
X71978838Y-124187288D01*
X71662611Y-124187288D01*
X71662611Y-124449917D01*
X72016356Y-124449917D01*
X72198352Y-124453171D01*
X72319724Y-124464285D01*
X72394661Y-124485285D01*
X72429059Y-124508875D01*
X72481638Y-124599875D01*
X72473174Y-124689605D01*
X72415447Y-124748745D01*
X72345605Y-124765447D01*
X72220698Y-124777111D01*
X72059841Y-124783767D01*
X71882154Y-124785448D01*
X71706752Y-124782184D01*
X71552753Y-124774007D01*
X71439275Y-124760949D01*
X71390602Y-124747060D01*
X71367287Y-124726817D01*
X71350191Y-124690242D01*
X71338370Y-124626844D01*
X71330883Y-124526133D01*
X71326789Y-124377618D01*
X71325146Y-124170810D01*
X71324945Y-124015662D01*
X71324945Y-123322506D01*
X71421183Y-123285916D01*
X71498162Y-123270657D01*
X71629520Y-123258516D01*
X71794616Y-123251011D01*
X71919334Y-123249327D01*
X72149230Y-123255607D01*
G37*
G36*
X57600681Y-123266035D02*
G01*
X57664439Y-123320578D01*
X57701595Y-123375098D01*
X57728555Y-123461949D01*
X57748769Y-123596288D01*
X57762696Y-123752041D01*
X57776860Y-123905972D01*
X57792997Y-124027086D01*
X57808674Y-124099214D01*
X57816887Y-124112251D01*
X57850827Y-124083681D01*
X57911287Y-124009529D01*
X57970784Y-123926565D01*
X58094654Y-123771608D01*
X58207048Y-123685208D01*
X58305171Y-123669379D01*
X58321250Y-123674236D01*
X58372424Y-123713821D01*
X58450716Y-123796123D01*
X58537911Y-123901739D01*
X58619915Y-124001593D01*
X58685190Y-124069847D01*
X58720227Y-124092451D01*
X58720982Y-124092107D01*
X58736798Y-124049776D01*
X58753994Y-123954288D01*
X58767280Y-123841451D01*
X58798739Y-123605977D01*
X58843498Y-123439722D01*
X58903561Y-123337722D01*
X58980930Y-123295015D01*
X58988226Y-123293976D01*
X59055638Y-123293463D01*
X59103299Y-123315643D01*
X59132377Y-123369174D01*
X59144037Y-123462715D01*
X59139446Y-123604922D01*
X59119769Y-123804455D01*
X59089434Y-124045423D01*
X59050088Y-124322187D01*
X59012930Y-124530823D01*
X58974867Y-124678053D01*
X58932810Y-124770599D01*
X58883667Y-124815185D01*
X58824347Y-124818532D01*
X58751759Y-124787363D01*
X58749007Y-124785769D01*
X58701477Y-124739186D01*
X58626948Y-124645144D01*
X58537939Y-124519971D01*
X58490900Y-124449243D01*
X58404400Y-124320142D01*
X58331641Y-124218986D01*
X58282843Y-124159613D01*
X58269684Y-124149770D01*
X58235561Y-124179688D01*
X58204050Y-124234186D01*
X58163134Y-124304928D01*
X58091306Y-124413372D01*
X58003176Y-124537571D01*
X57991754Y-124553093D01*
X57864698Y-124702853D01*
X57756911Y-124781302D01*
X57666802Y-124789206D01*
X57602644Y-124740685D01*
X57585992Y-124689757D01*
X57562661Y-124577200D01*
X57534884Y-124415894D01*
X57504899Y-124218715D01*
X57478142Y-124023328D01*
X57447406Y-123784878D01*
X57426300Y-123609895D01*
X57414576Y-123487463D01*
X57411985Y-123406666D01*
X57418278Y-123356587D01*
X57433207Y-123326310D01*
X57456524Y-123304919D01*
X57461691Y-123301097D01*
X57539691Y-123256166D01*
X57600681Y-123266035D01*
G37*
G36*
X80507589Y-124510408D02*
G01*
X80571380Y-124583937D01*
X80581230Y-124671073D01*
X80543056Y-124746839D01*
X80462773Y-124786259D01*
X80441931Y-124787584D01*
X80362632Y-124760524D01*
X80330872Y-124733108D01*
X80298075Y-124649417D01*
X80318491Y-124567754D01*
X80376144Y-124508253D01*
X80455058Y-124491047D01*
X80507589Y-124510408D01*
G37*
G36*
X81759462Y-123287677D02*
G01*
X81973439Y-123345985D01*
X82119114Y-123427659D01*
X82196603Y-123526613D01*
X82212398Y-123624520D01*
X82173887Y-123695993D01*
X82099844Y-123731637D01*
X82009038Y-123722057D01*
X81924575Y-123662763D01*
X81813609Y-123590007D01*
X81668280Y-123559873D01*
X81519275Y-123577572D01*
X81488407Y-123588667D01*
X81395102Y-123650473D01*
X81302163Y-123746828D01*
X81277756Y-123780459D01*
X81205852Y-123942833D01*
X81208727Y-124099335D01*
X81286323Y-124249579D01*
X81359282Y-124327982D01*
X81514253Y-124427293D01*
X81679552Y-124453610D01*
X81846624Y-124406563D01*
X81931585Y-124352812D01*
X82042353Y-124286804D01*
X82125014Y-124285521D01*
X82190865Y-124349828D01*
X82204711Y-124373781D01*
X82223618Y-124433593D01*
X82200128Y-124491549D01*
X82138551Y-124559956D01*
X81976262Y-124672498D01*
X81777469Y-124734280D01*
X81563658Y-124742167D01*
X81356314Y-124693020D01*
X81323615Y-124678935D01*
X81124317Y-124549890D01*
X80983991Y-124379876D01*
X80906089Y-124178402D01*
X80894063Y-123954978D01*
X80951364Y-123719111D01*
X80963993Y-123688247D01*
X81081542Y-123502999D01*
X81247219Y-123368413D01*
X81448701Y-123290694D01*
X81673668Y-123276045D01*
X81759462Y-123287677D01*
G37*
G36*
X61236570Y-123290702D02*
G01*
X61253578Y-123302602D01*
X61280393Y-123328037D01*
X61300124Y-123366892D01*
X61314159Y-123430503D01*
X61323882Y-123530207D01*
X61330679Y-123677338D01*
X61335935Y-123883232D01*
X61338094Y-123994156D01*
X61341921Y-124228107D01*
X61342700Y-124398885D01*
X61339345Y-124518328D01*
X61330771Y-124598275D01*
X61315893Y-124650563D01*
X61293624Y-124687031D01*
X61272437Y-124710106D01*
X61195842Y-124773740D01*
X61137326Y-124777140D01*
X61071566Y-124721283D01*
X61068550Y-124717967D01*
X61045430Y-124683812D01*
X61029120Y-124633003D01*
X61018786Y-124554170D01*
X61013592Y-124435944D01*
X61012703Y-124266956D01*
X61015285Y-124035837D01*
X61015837Y-124000267D01*
X61020111Y-123764423D01*
X61025252Y-123592354D01*
X61032673Y-123472799D01*
X61043784Y-123394495D01*
X61059998Y-123346183D01*
X61082725Y-123316602D01*
X61103505Y-123300851D01*
X61173694Y-123268731D01*
X61236570Y-123290702D01*
G37*
G36*
X74916306Y-123249327D02*
G01*
X75103917Y-123250683D01*
X75231967Y-123256351D01*
X75315907Y-123268731D01*
X75371190Y-123290222D01*
X75413267Y-123323223D01*
X75417207Y-123327114D01*
X75468621Y-123389649D01*
X75466854Y-123442114D01*
X75440873Y-123486567D01*
X75409095Y-123524158D01*
X75363131Y-123548929D01*
X75287350Y-123564202D01*
X75166124Y-123573304D01*
X75006661Y-123578926D01*
X74626569Y-123589618D01*
X74626569Y-123849622D01*
X74929184Y-123849622D01*
X75127283Y-123856093D01*
X75260958Y-123877942D01*
X75339899Y-123918822D01*
X75373797Y-123982389D01*
X75376939Y-124018455D01*
X75359777Y-124093152D01*
X75301833Y-124143556D01*
X75193415Y-124173322D01*
X75024833Y-124186103D01*
X74929184Y-124187288D01*
X74626569Y-124187288D01*
X74626569Y-124449917D01*
X74961793Y-124449917D01*
X75179926Y-124455262D01*
X75332685Y-124473197D01*
X75429101Y-124506572D01*
X75478203Y-124558238D01*
X75489494Y-124616502D01*
X75478078Y-124682162D01*
X75437246Y-124729151D01*
X75357124Y-124760307D01*
X75227838Y-124778468D01*
X75039514Y-124786474D01*
X74894345Y-124787584D01*
X74691806Y-124785591D01*
X74551276Y-124778614D01*
X74459809Y-124765151D01*
X74404460Y-124743705D01*
X74385379Y-124728626D01*
X74363403Y-124695323D01*
X74347478Y-124638842D01*
X74336712Y-124548426D01*
X74330214Y-124413317D01*
X74327091Y-124222758D01*
X74326422Y-124017903D01*
X74326363Y-123759456D01*
X74331065Y-123566469D01*
X74347846Y-123429406D01*
X74384023Y-123338734D01*
X74446914Y-123284918D01*
X74543836Y-123258424D01*
X74682107Y-123249718D01*
X74869044Y-123249265D01*
X74916306Y-123249327D01*
G37*
G36*
X85204677Y-115407402D02*
G01*
X85367236Y-115480232D01*
X85522196Y-115599071D01*
X85645366Y-115742319D01*
X85701803Y-115851285D01*
X85711412Y-115893078D01*
X85719766Y-115963554D01*
X85726939Y-116067214D01*
X85733005Y-116208560D01*
X85738040Y-116392093D01*
X85742118Y-116622313D01*
X85745314Y-116903724D01*
X85747703Y-117240825D01*
X85749359Y-117638117D01*
X85750357Y-118100103D01*
X85750772Y-118631284D01*
X85750794Y-118803389D01*
X85750794Y-121617273D01*
X85647950Y-121792221D01*
X85507304Y-121971100D01*
X85328967Y-122087746D01*
X85105122Y-122147058D01*
X85076453Y-122150389D01*
X84935853Y-122159029D01*
X84815510Y-122148638D01*
X84704993Y-122112497D01*
X84593873Y-122043886D01*
X84471721Y-121936086D01*
X84328105Y-121782378D01*
X84152598Y-121576042D01*
X84115662Y-121531398D01*
X83810850Y-121162123D01*
X83547156Y-120843159D01*
X83318126Y-120566790D01*
X83117303Y-120325300D01*
X82938232Y-120110973D01*
X82774457Y-119916092D01*
X82619521Y-119732941D01*
X82466969Y-119553805D01*
X82310344Y-119370967D01*
X82225580Y-119272369D01*
X82047540Y-119064886D01*
X81871046Y-118858123D01*
X81707094Y-118665045D01*
X81566681Y-118498613D01*
X81460803Y-118371789D01*
X81435807Y-118341437D01*
X81211060Y-118067078D01*
X81192301Y-119860935D01*
X81187666Y-120280734D01*
X81183119Y-120632013D01*
X81178386Y-120921285D01*
X81173191Y-121155066D01*
X81167259Y-121339870D01*
X81160314Y-121482214D01*
X81152081Y-121588611D01*
X81142284Y-121665576D01*
X81130648Y-121719625D01*
X81116899Y-121757272D01*
X81111725Y-121767436D01*
X80982828Y-121931246D01*
X80808231Y-122054314D01*
X80607745Y-122127735D01*
X80401180Y-122142603D01*
X80310617Y-122127591D01*
X80108592Y-122041529D01*
X79936681Y-121900569D01*
X79811962Y-121721060D01*
X79768855Y-121608919D01*
X79760978Y-121542751D01*
X79753947Y-121408988D01*
X79747760Y-121215067D01*
X79742414Y-120968425D01*
X79737907Y-120676499D01*
X79734237Y-120346727D01*
X79731400Y-119986545D01*
X79729395Y-119603391D01*
X79728219Y-119204701D01*
X79727870Y-118797914D01*
X79728345Y-118390465D01*
X79729642Y-117989792D01*
X79731758Y-117603333D01*
X79734690Y-117238524D01*
X79738438Y-116902802D01*
X79742997Y-116603604D01*
X79748365Y-116348368D01*
X79754541Y-116144531D01*
X79761522Y-115999529D01*
X79769304Y-115920801D01*
X79770728Y-115914467D01*
X79849886Y-115749780D01*
X79982651Y-115598396D01*
X80147840Y-115479710D01*
X80316665Y-115414659D01*
X80519638Y-115396109D01*
X80721581Y-115419467D01*
X80878363Y-115475395D01*
X80922378Y-115514900D01*
X81006613Y-115604884D01*
X81124170Y-115737431D01*
X81268152Y-115904623D01*
X81431660Y-116098541D01*
X81607796Y-116311267D01*
X81627674Y-116335509D01*
X81819700Y-116569327D01*
X82012818Y-116803386D01*
X82197066Y-117025692D01*
X82362483Y-117224252D01*
X82499107Y-117387070D01*
X82586734Y-117490242D01*
X82690713Y-117611897D01*
X82832963Y-117779028D01*
X83003393Y-117979742D01*
X83191911Y-118202145D01*
X83388426Y-118434341D01*
X83557617Y-118634555D01*
X83735225Y-118843982D01*
X83897884Y-119034040D01*
X84039129Y-119197316D01*
X84152496Y-119326395D01*
X84231519Y-119413861D01*
X84269734Y-119452301D01*
X84271493Y-119453360D01*
X84278344Y-119419521D01*
X84285105Y-119317480D01*
X84291613Y-119154076D01*
X84297705Y-118936142D01*
X84303216Y-118670516D01*
X84307983Y-118364034D01*
X84311843Y-118023532D01*
X84314631Y-117655846D01*
X84314667Y-117649519D01*
X84325092Y-115833520D01*
X84432614Y-115692586D01*
X84604132Y-115520675D01*
X84801568Y-115416090D01*
X85017728Y-115381486D01*
X85204677Y-115407402D01*
G37*
G36*
X77256845Y-124076428D02*
G01*
X77259361Y-123947214D01*
X77261731Y-123849622D01*
X77628047Y-123849622D01*
X77867903Y-123849622D01*
X78007516Y-123845099D01*
X78088512Y-123829055D01*
X78126901Y-123797777D01*
X78131179Y-123788589D01*
X78134221Y-123707133D01*
X78069368Y-123653606D01*
X77935704Y-123627478D01*
X77848563Y-123624511D01*
X77725558Y-123626076D01*
X77659721Y-123636850D01*
X77633181Y-123665956D01*
X77628070Y-123722513D01*
X77628047Y-123737067D01*
X77628047Y-123849622D01*
X77261731Y-123849622D01*
X77265114Y-123710365D01*
X77275764Y-123538182D01*
X77299491Y-123420366D01*
X77344478Y-123346618D01*
X77418907Y-123306639D01*
X77530959Y-123290130D01*
X77688816Y-123286793D01*
X77783986Y-123286845D01*
X77953970Y-123287938D01*
X78068065Y-123294191D01*
X78145415Y-123310071D01*
X78205163Y-123340041D01*
X78266453Y-123388564D01*
X78283314Y-123403287D01*
X78367446Y-123487566D01*
X78405859Y-123567354D01*
X78415354Y-123679651D01*
X78415360Y-123694055D01*
X78408200Y-123810412D01*
X78390829Y-123899462D01*
X78381673Y-123920673D01*
X78376948Y-123996402D01*
X78419626Y-124089506D01*
X78469479Y-124207799D01*
X78490820Y-124330886D01*
X78490831Y-124332934D01*
X78464133Y-124470701D01*
X78395413Y-124610922D01*
X78302146Y-124722393D01*
X78253496Y-124756683D01*
X78173764Y-124779143D01*
X78041318Y-124796763D01*
X77878373Y-124808710D01*
X77707146Y-124814148D01*
X77549852Y-124812243D01*
X77428707Y-124802162D01*
X77376868Y-124789603D01*
X77330891Y-124758904D01*
X77297094Y-124705779D01*
X77274135Y-124620598D01*
X77260669Y-124493732D01*
X77259362Y-124449917D01*
X77628047Y-124449917D01*
X77872721Y-124449917D01*
X78006243Y-124447522D01*
X78085083Y-124435739D01*
X78129554Y-124407677D01*
X78159968Y-124356444D01*
X78162140Y-124351714D01*
X78176283Y-124253355D01*
X78123158Y-124178149D01*
X78007990Y-124129863D01*
X77836000Y-124112266D01*
X77830242Y-124112251D01*
X77628047Y-124112251D01*
X77628047Y-124449917D01*
X77259362Y-124449917D01*
X77255353Y-124315552D01*
X77256845Y-124076428D01*
G37*
G36*
X64675365Y-115419982D02*
G01*
X64859032Y-115504996D01*
X65015806Y-115643587D01*
X65113779Y-115794751D01*
X65211283Y-115994042D01*
X65200979Y-118824417D01*
X65199005Y-119352779D01*
X65197097Y-119811320D01*
X65195104Y-120205257D01*
X65192875Y-120539806D01*
X65190260Y-120820182D01*
X65187109Y-121051601D01*
X65183271Y-121239279D01*
X65178596Y-121388433D01*
X65172932Y-121504279D01*
X65166130Y-121592032D01*
X65158039Y-121656908D01*
X65148509Y-121704123D01*
X65137389Y-121738894D01*
X65124528Y-121766437D01*
X65115639Y-121782129D01*
X65037803Y-121886565D01*
X64933724Y-121994006D01*
X64898512Y-122024309D01*
X64799739Y-122093249D01*
X64700007Y-122130891D01*
X64566578Y-122148274D01*
X64523328Y-122150787D01*
X64344981Y-122147620D01*
X64205972Y-122121251D01*
X64177677Y-122110147D01*
X64019547Y-122002176D01*
X63882310Y-121844549D01*
X63804483Y-121702895D01*
X63793411Y-121669216D01*
X63783815Y-121621468D01*
X63775594Y-121554528D01*
X63768648Y-121463276D01*
X63762878Y-121342589D01*
X63758184Y-121187348D01*
X63754466Y-120992430D01*
X63751624Y-120752714D01*
X63749558Y-120463080D01*
X63748168Y-120118406D01*
X63747354Y-119713570D01*
X63747017Y-119243451D01*
X63747039Y-118757696D01*
X63747269Y-118230614D01*
X63747714Y-117773284D01*
X63748500Y-117380421D01*
X63749753Y-117046741D01*
X63751601Y-116766957D01*
X63754170Y-116535786D01*
X63757586Y-116347942D01*
X63761977Y-116198140D01*
X63767469Y-116081096D01*
X63774189Y-115991525D01*
X63782263Y-115924141D01*
X63791818Y-115873660D01*
X63802980Y-115834796D01*
X63815878Y-115802266D01*
X63817992Y-115797556D01*
X63937113Y-115615118D01*
X64095679Y-115486112D01*
X64280421Y-115410569D01*
X64478072Y-115388515D01*
X64675365Y-115419982D01*
G37*
G36*
X74001023Y-123316026D02*
G01*
X74018770Y-123331867D01*
X74061261Y-123419660D01*
X74036760Y-123517448D01*
X73979376Y-123583967D01*
X73910305Y-123641926D01*
X73804119Y-123730412D01*
X73681550Y-123832157D01*
X73657577Y-123852012D01*
X73420194Y-124048542D01*
X73526262Y-124137467D01*
X73610531Y-124206624D01*
X73727912Y-124301132D01*
X73848061Y-124396625D01*
X73975127Y-124506197D01*
X74044209Y-124590970D01*
X74063792Y-124657142D01*
X74032921Y-124746468D01*
X73957884Y-124797427D01*
X73876200Y-124795112D01*
X73825313Y-124763687D01*
X73732256Y-124694465D01*
X73611682Y-124598662D01*
X73515193Y-124518794D01*
X73388261Y-124413587D01*
X73282883Y-124329284D01*
X73211873Y-124275952D01*
X73188696Y-124262325D01*
X73175682Y-124296454D01*
X73163501Y-124385343D01*
X73155760Y-124492914D01*
X73133689Y-124661845D01*
X73087629Y-124761589D01*
X73018277Y-124791237D01*
X72947618Y-124764584D01*
X72923905Y-124742217D01*
X72906224Y-124702203D01*
X72893460Y-124633939D01*
X72884494Y-124526821D01*
X72878211Y-124370245D01*
X72873493Y-124153608D01*
X72871742Y-124044315D01*
X72868508Y-123802912D01*
X72867807Y-123625729D01*
X72870625Y-123501968D01*
X72877945Y-123420828D01*
X72890755Y-123371511D01*
X72910040Y-123343215D01*
X72936785Y-123325142D01*
X72937399Y-123324813D01*
X73034891Y-123304900D01*
X73086608Y-123323451D01*
X73128670Y-123360545D01*
X73153818Y-123428153D01*
X73167537Y-123544819D01*
X73171024Y-123608688D01*
X73182109Y-123854679D01*
X73519775Y-123571835D01*
X73683870Y-123437808D01*
X73803673Y-123350200D01*
X73889552Y-123304025D01*
X73951879Y-123294296D01*
X74001023Y-123316026D01*
G37*
G36*
X72105752Y-98993444D02*
G01*
X72849644Y-99069119D01*
X73596187Y-99216503D01*
X73763645Y-99259609D01*
X74437513Y-99478944D01*
X75085364Y-99766025D01*
X75703161Y-100116854D01*
X76286866Y-100527433D01*
X76832444Y-100993761D01*
X77335857Y-101511840D01*
X77793068Y-102077672D01*
X78200039Y-102687257D01*
X78552735Y-103336597D01*
X78847117Y-104021693D01*
X78990591Y-104437159D01*
X79081118Y-104770513D01*
X79159823Y-105150155D01*
X79224199Y-105555588D01*
X79271738Y-105966316D01*
X79299934Y-106361843D01*
X79306279Y-106721674D01*
X79296584Y-106938713D01*
X79270808Y-107267537D01*
X79077861Y-107430594D01*
X78756821Y-107681944D01*
X78375388Y-107946523D01*
X77945461Y-108217440D01*
X77478937Y-108487803D01*
X76987714Y-108750720D01*
X76483687Y-108999301D01*
X75978756Y-109226653D01*
X75972946Y-109229136D01*
X75182763Y-109543602D01*
X74345304Y-109834149D01*
X73480416Y-110095254D01*
X72607948Y-110321394D01*
X71747746Y-110507045D01*
X70919658Y-110646686D01*
X70837205Y-110658205D01*
X70495139Y-110700701D01*
X70120798Y-110739649D01*
X69726663Y-110774338D01*
X69325216Y-110804059D01*
X68928938Y-110828100D01*
X68550311Y-110845751D01*
X68201816Y-110856300D01*
X67895936Y-110859038D01*
X67645150Y-110853253D01*
X67535580Y-110846211D01*
X67432600Y-110837492D01*
X67275876Y-110824357D01*
X67086447Y-110808564D01*
X66885352Y-110791871D01*
X66879007Y-110791346D01*
X66690063Y-110773159D01*
X66472745Y-110748174D01*
X66242688Y-110718639D01*
X66015524Y-110686798D01*
X65806890Y-110654898D01*
X65632419Y-110625187D01*
X65507746Y-110599909D01*
X65464038Y-110588039D01*
X65399010Y-110568957D01*
X65295570Y-110541153D01*
X65260282Y-110532037D01*
X65201026Y-110515161D01*
X65153298Y-110492109D01*
X65109401Y-110452413D01*
X65061638Y-110385604D01*
X65002312Y-110281214D01*
X64923726Y-110128775D01*
X64838243Y-109958028D01*
X64531195Y-109261270D01*
X64297542Y-108548938D01*
X64137219Y-107820754D01*
X64050157Y-107076436D01*
X64032787Y-106572369D01*
X64066084Y-105884388D01*
X64166725Y-105186754D01*
X64331057Y-104494117D01*
X64555431Y-103821127D01*
X64836196Y-103182430D01*
X64916343Y-103026875D01*
X65300451Y-102381704D01*
X65737669Y-101786756D01*
X66223790Y-101243822D01*
X66754611Y-100754691D01*
X67325925Y-100321155D01*
X67933529Y-99945004D01*
X68573216Y-99628028D01*
X69240784Y-99372018D01*
X69932026Y-99178764D01*
X70642738Y-99050056D01*
X71368715Y-98987686D01*
X72105752Y-98993444D01*
G37*
G36*
X60416834Y-123254681D02*
G01*
X60515225Y-123265446D01*
X60582282Y-123285357D01*
X60615153Y-123303287D01*
X60692934Y-123379966D01*
X60696130Y-123461005D01*
X60648262Y-123528035D01*
X60598947Y-123557825D01*
X60513889Y-123576202D01*
X60378902Y-123585191D01*
X60235559Y-123586993D01*
X59881813Y-123586993D01*
X59881813Y-123849622D01*
X60160522Y-123849622D01*
X60347015Y-123859293D01*
X60469429Y-123891096D01*
X60536546Y-123949214D01*
X60557145Y-124037829D01*
X60557146Y-124038574D01*
X60535328Y-124105919D01*
X60464610Y-124151378D01*
X60337098Y-124177574D01*
X60144894Y-124187128D01*
X60109390Y-124187288D01*
X59806776Y-124187288D01*
X59806776Y-124449917D01*
X60142000Y-124449917D01*
X60385468Y-124460006D01*
X60561081Y-124489845D01*
X60667606Y-124538792D01*
X60703809Y-124606206D01*
X60668457Y-124691445D01*
X60649677Y-124713944D01*
X60614044Y-124745132D01*
X60564586Y-124766113D01*
X60487160Y-124778855D01*
X60367623Y-124785322D01*
X60191830Y-124787481D01*
X60119868Y-124787584D01*
X59922376Y-124786392D01*
X59785473Y-124781476D01*
X59694734Y-124770825D01*
X59635730Y-124752428D01*
X59594034Y-124724271D01*
X59581665Y-124712547D01*
X59553596Y-124678971D01*
X59533519Y-124635189D01*
X59520112Y-124569106D01*
X59512053Y-124468624D01*
X59508022Y-124321649D01*
X59506697Y-124116082D01*
X59506629Y-124025626D01*
X59508268Y-123778473D01*
X59513705Y-123596310D01*
X59523715Y-123469152D01*
X59539072Y-123387013D01*
X59559806Y-123340914D01*
X59590910Y-123309531D01*
X59639452Y-123287731D01*
X59719210Y-123273198D01*
X59843958Y-123263619D01*
X60027475Y-123256678D01*
X60068035Y-123255524D01*
X60272605Y-123251796D01*
X60416834Y-123254681D01*
G37*
G36*
X79659860Y-123303585D02*
G01*
X79783839Y-123352763D01*
X79860971Y-123424635D01*
X79879154Y-123489962D01*
X79855120Y-123582526D01*
X79779842Y-123631095D01*
X79648561Y-123637426D01*
X79528692Y-123619272D01*
X79353137Y-123596358D01*
X79224730Y-123602474D01*
X79148327Y-123630909D01*
X79128781Y-123674954D01*
X79170946Y-123727899D01*
X79279675Y-123783034D01*
X79386164Y-123816299D01*
X79579777Y-123873296D01*
X79713673Y-123930328D01*
X79802719Y-123995635D01*
X79861786Y-124077460D01*
X79863596Y-124080922D01*
X79915943Y-124252880D01*
X79897377Y-124417307D01*
X79811983Y-124564327D01*
X79663848Y-124684060D01*
X79600715Y-124716436D01*
X79447007Y-124768956D01*
X79291599Y-124780024D01*
X79107228Y-124750558D01*
X79046462Y-124735105D01*
X78891290Y-124682632D01*
X78799261Y-124621187D01*
X78758490Y-124540710D01*
X78753600Y-124487218D01*
X78780370Y-124396996D01*
X78857146Y-124359187D01*
X78978625Y-124375493D01*
X79036136Y-124396537D01*
X79177225Y-124437884D01*
X79312774Y-124448154D01*
X79430385Y-124431832D01*
X79517659Y-124393405D01*
X79562201Y-124337359D01*
X79551611Y-124268180D01*
X79514811Y-124223326D01*
X79445427Y-124183463D01*
X79327679Y-124138988D01*
X79186890Y-124099448D01*
X79185063Y-124099018D01*
X78982175Y-124034610D01*
X78846739Y-123949683D01*
X78772724Y-123838932D01*
X78753600Y-123719284D01*
X78762588Y-123594028D01*
X78799625Y-123507008D01*
X78879823Y-123436348D01*
X78992773Y-123373032D01*
X79155491Y-123311825D01*
X79330821Y-123281155D01*
X79503899Y-123279062D01*
X79659860Y-123303585D01*
G37*
G36*
X66658533Y-123279857D02*
G01*
X66673072Y-123287068D01*
X66713528Y-123315127D01*
X66743140Y-123356720D01*
X66763272Y-123422366D01*
X66775290Y-123522580D01*
X66780560Y-123667881D01*
X66780447Y-123868785D01*
X66777177Y-124088970D01*
X66772481Y-124314132D01*
X66766716Y-124476066D01*
X66758284Y-124586579D01*
X66745588Y-124657479D01*
X66727029Y-124700571D01*
X66701011Y-124727665D01*
X66689674Y-124735667D01*
X66621319Y-124766715D01*
X66557007Y-124746402D01*
X66530221Y-124728682D01*
X66500014Y-124704299D01*
X66478227Y-124672327D01*
X66463488Y-124621245D01*
X66454424Y-124539536D01*
X66449661Y-124415679D01*
X66447827Y-124238156D01*
X66447544Y-124035087D01*
X66448154Y-123800845D01*
X66450823Y-123629800D01*
X66456816Y-123510113D01*
X66467394Y-123429948D01*
X66483819Y-123377468D01*
X66507355Y-123340837D01*
X66523441Y-123323504D01*
X66593038Y-123272722D01*
X66658533Y-123279857D01*
G37*
G36*
X70126983Y-123284117D02*
G01*
X70190641Y-123360898D01*
X70202265Y-123388201D01*
X70215440Y-123459519D01*
X70226310Y-123588184D01*
X70233813Y-123756516D01*
X70236886Y-123946833D01*
X70236909Y-123964620D01*
X70236909Y-124449917D01*
X70587520Y-124449917D01*
X70760081Y-124452297D01*
X70874065Y-124461249D01*
X70945834Y-124479493D01*
X70991748Y-124509749D01*
X71000223Y-124518529D01*
X71055015Y-124600857D01*
X71043693Y-124670053D01*
X70993704Y-124725491D01*
X70921600Y-124755546D01*
X70794046Y-124776854D01*
X70630125Y-124789347D01*
X70448923Y-124792960D01*
X70269521Y-124787623D01*
X70111003Y-124773272D01*
X69992453Y-124749838D01*
X69945110Y-124729178D01*
X69914133Y-124704218D01*
X69891958Y-124671717D01*
X69877118Y-124619881D01*
X69868145Y-124536912D01*
X69863568Y-124411017D01*
X69861921Y-124230397D01*
X69861725Y-124059325D01*
X69862140Y-123831782D01*
X69864465Y-123666743D01*
X69870316Y-123551673D01*
X69881312Y-123474039D01*
X69899068Y-123421307D01*
X69925204Y-123380944D01*
X69953394Y-123348963D01*
X70046535Y-123279923D01*
X70126983Y-123284117D01*
G37*
G36*
X65285144Y-123292798D02*
G01*
X65332250Y-123317595D01*
X65364027Y-123371640D01*
X65383416Y-123465340D01*
X65393362Y-123609100D01*
X65396809Y-123813325D01*
X65397027Y-123913403D01*
X65397027Y-124449917D01*
X65766397Y-124449917D01*
X65943407Y-124452047D01*
X66061321Y-124460117D01*
X66136000Y-124476650D01*
X66183308Y-124504169D01*
X66197859Y-124518529D01*
X66252652Y-124600857D01*
X66241329Y-124670053D01*
X66191340Y-124725491D01*
X66147719Y-124752784D01*
X66079305Y-124771020D01*
X65972512Y-124781805D01*
X65813751Y-124786744D01*
X65666082Y-124787584D01*
X65470069Y-124786356D01*
X65334511Y-124781303D01*
X65244848Y-124770371D01*
X65186518Y-124751503D01*
X65144961Y-124722646D01*
X65134398Y-124712547D01*
X65105631Y-124677961D01*
X65085283Y-124632772D01*
X65071919Y-124564463D01*
X65064103Y-124460518D01*
X65060400Y-124308421D01*
X65059373Y-124095654D01*
X65059361Y-124058416D01*
X65061642Y-123793704D01*
X65069696Y-123595191D01*
X65085337Y-123454144D01*
X65110382Y-123361830D01*
X65146646Y-123309515D01*
X65195945Y-123288466D01*
X65219762Y-123286845D01*
X65285144Y-123292798D01*
G37*
G36*
X84569239Y-123274662D02*
G01*
X84632002Y-123322719D01*
X84714357Y-123407571D01*
X84824124Y-123535734D01*
X84969123Y-123713725D01*
X85041527Y-123803808D01*
X85140233Y-123926826D01*
X85287563Y-123729360D01*
X85425679Y-123557547D01*
X85555690Y-123420518D01*
X85667716Y-123327486D01*
X85751877Y-123287663D01*
X85762137Y-123286845D01*
X85816446Y-123292743D01*
X85856710Y-123316848D01*
X85884993Y-123368775D01*
X85903360Y-123458139D01*
X85913877Y-123594556D01*
X85918609Y-123787640D01*
X85919627Y-124020144D01*
X85918901Y-124257236D01*
X85915985Y-124430708D01*
X85909767Y-124551966D01*
X85899140Y-124632420D01*
X85882992Y-124683478D01*
X85860214Y-124716547D01*
X85851016Y-124725491D01*
X85787826Y-124776313D01*
X85740632Y-124778030D01*
X85673548Y-124734455D01*
X85638438Y-124697612D01*
X85614378Y-124637732D01*
X85598029Y-124539427D01*
X85586052Y-124387308D01*
X85581961Y-124312373D01*
X85563202Y-123943418D01*
X85394863Y-124159149D01*
X85283506Y-124290269D01*
X85193534Y-124358356D01*
X85110570Y-124363148D01*
X85020238Y-124304388D01*
X84908162Y-124181816D01*
X84882097Y-124149900D01*
X84700277Y-123924919D01*
X84681518Y-124275672D01*
X84658880Y-124503735D01*
X84619300Y-124659135D01*
X84562867Y-124741742D01*
X84489666Y-124751426D01*
X84402809Y-124691107D01*
X84380845Y-124657827D01*
X84364926Y-124601384D01*
X84354160Y-124511028D01*
X84347657Y-124376009D01*
X84344527Y-124185576D01*
X84343852Y-123979577D01*
X84344314Y-123743317D01*
X84346514Y-123571048D01*
X84351668Y-123451725D01*
X84360994Y-123374303D01*
X84375711Y-123327739D01*
X84397034Y-123300987D01*
X84420306Y-123286087D01*
X84471211Y-123262863D01*
X84518249Y-123256882D01*
X84569239Y-123274662D01*
G37*
G36*
X61723722Y-123583348D02*
G01*
X61738834Y-123448570D01*
X61772392Y-123360688D01*
X61831552Y-123310341D01*
X61923467Y-123288168D01*
X62055292Y-123284810D01*
X62234183Y-123290906D01*
X62284556Y-123292723D01*
X62491864Y-123303657D01*
X62639650Y-123324256D01*
X62743365Y-123361090D01*
X62818459Y-123420729D01*
X62880384Y-123509741D01*
X62905891Y-123556902D01*
X62949881Y-123707861D01*
X62949201Y-123880507D01*
X62908348Y-124047969D01*
X62831818Y-124183378D01*
X62794856Y-124220394D01*
X62763347Y-124255376D01*
X62765239Y-124296055D01*
X62806569Y-124360970D01*
X62864082Y-124433060D01*
X62961153Y-124573091D01*
X62992946Y-124677065D01*
X62959542Y-124745783D01*
X62898645Y-124773031D01*
X62843366Y-124777851D01*
X62785324Y-124756703D01*
X62709867Y-124700438D01*
X62602342Y-124599906D01*
X62569349Y-124567394D01*
X62452236Y-124454675D01*
X62367978Y-124386123D01*
X62298309Y-124350979D01*
X62224961Y-124338482D01*
X62178810Y-124337362D01*
X62020366Y-124337362D01*
X62020366Y-124517451D01*
X62004485Y-124670253D01*
X61955294Y-124758902D01*
X61870465Y-124787583D01*
X61870292Y-124787584D01*
X61791513Y-124762553D01*
X61765240Y-124742561D01*
X61746921Y-124694566D01*
X61733614Y-124589139D01*
X61725007Y-124421328D01*
X61720785Y-124186182D01*
X61720218Y-124031031D01*
X61719917Y-123787091D01*
X62020366Y-123787091D01*
X62024715Y-123903853D01*
X62035874Y-123987606D01*
X62045378Y-124012202D01*
X62094545Y-124026633D01*
X62192165Y-124035670D01*
X62258691Y-124037214D01*
X62399287Y-124025895D01*
X62495716Y-123986365D01*
X62533826Y-123955637D01*
X62608218Y-123852303D01*
X62613991Y-123755888D01*
X62557555Y-123674391D01*
X62445320Y-123615810D01*
X62283697Y-123588144D01*
X62238402Y-123586993D01*
X62020366Y-123586993D01*
X62020366Y-123787091D01*
X61719917Y-123787091D01*
X61719901Y-123774381D01*
X61723722Y-123583348D01*
G37*
G36*
X61197288Y-115376041D02*
G01*
X61491104Y-115377497D01*
X61737975Y-115379646D01*
X61930817Y-115382454D01*
X62062549Y-115385885D01*
X62125125Y-115389759D01*
X62301494Y-115450721D01*
X62464914Y-115573589D01*
X62599225Y-115745299D01*
X62626916Y-115795412D01*
X62676235Y-115921742D01*
X62692083Y-116058776D01*
X62688222Y-116161262D01*
X62643165Y-116384782D01*
X62540763Y-116562019D01*
X62376114Y-116700363D01*
X62303767Y-116740513D01*
X62238739Y-116771724D01*
X62177312Y-116795054D01*
X62107608Y-116811648D01*
X62017750Y-116822650D01*
X61895861Y-116829207D01*
X61730062Y-116832464D01*
X61508477Y-116833566D01*
X61337667Y-116833669D01*
X60557146Y-116833669D01*
X60556228Y-119131675D01*
X60555368Y-119644023D01*
X60553250Y-120104550D01*
X60549929Y-120509968D01*
X60545456Y-120856989D01*
X60539885Y-121142325D01*
X60533269Y-121362686D01*
X60525660Y-121514785D01*
X60517111Y-121595333D01*
X60516582Y-121597762D01*
X60433101Y-121809224D01*
X60297855Y-121976452D01*
X60123511Y-122093674D01*
X59922736Y-122155116D01*
X59708195Y-122155007D01*
X59492556Y-122087571D01*
X59468583Y-122075410D01*
X59339830Y-121988852D01*
X59218497Y-121878660D01*
X59190673Y-121846841D01*
X59075166Y-121704153D01*
X59054304Y-116833669D01*
X58258088Y-116832845D01*
X57951483Y-116830794D01*
X57709681Y-116823837D01*
X57522494Y-116809703D01*
X57379735Y-116786122D01*
X57271216Y-116750825D01*
X57186749Y-116701540D01*
X57116146Y-116635999D01*
X57059375Y-116565744D01*
X56938480Y-116362517D01*
X56888710Y-116167106D01*
X56908807Y-115967551D01*
X56977759Y-115789975D01*
X57074140Y-115635970D01*
X57197038Y-115525171D01*
X57249768Y-115491840D01*
X57424354Y-115389208D01*
X59694221Y-115377843D01*
X60104993Y-115376179D01*
X60497150Y-115375348D01*
X60863610Y-115375313D01*
X61197288Y-115376041D01*
G37*
%TO.C,SW2*%
X62117397Y-83966915D02*
X63107665Y-84106088D01*
X65056088Y-70242335D02*
X64916915Y-71232603D01*
X65056088Y-70242335D02*
X64065820Y-70103162D01*
X49243912Y-82157665D02*
X50234180Y-82296838D01*
X52182603Y-68433085D02*
X51192335Y-68293912D01*
X63246838Y-83115820D02*
X63107665Y-84106088D01*
X49243912Y-82157665D02*
X49383085Y-81167397D01*
X51053162Y-69284180D02*
X51192335Y-68293912D01*
%TO.C,SW27*%
X211011073Y-90435147D02*
X210014878Y-90522303D01*
X197151503Y-92651522D02*
X197064347Y-91655327D01*
X212144097Y-103385678D02*
X212231253Y-104381873D01*
X211235058Y-104469028D02*
X212231253Y-104381873D01*
X198284527Y-105602053D02*
X199280722Y-105514897D01*
X198060542Y-91568172D02*
X197064347Y-91655327D01*
X211011073Y-90435147D02*
X211098228Y-91431342D01*
X198284527Y-105602053D02*
X198197372Y-104605858D01*
%TO.C,SW3*%
X72643162Y-53028180D02*
X72782335Y-52037912D01*
X86646088Y-53986335D02*
X85655820Y-53847162D01*
X70833912Y-65901665D02*
X70973085Y-64911397D01*
X86646088Y-53986335D02*
X86506915Y-54976603D01*
X83707397Y-67710915D02*
X84697665Y-67850088D01*
X84836838Y-66859820D02*
X84697665Y-67850088D01*
X70833912Y-65901665D02*
X71824180Y-66040838D01*
X73772603Y-52177085D02*
X72782335Y-52037912D01*
%TO.C,SW31*%
X217258327Y-103951053D02*
X218254522Y-103863897D01*
X231117897Y-101734678D02*
X231205053Y-102730873D01*
X216125303Y-91000522D02*
X216038147Y-90004327D01*
X230208858Y-102818028D02*
X231205053Y-102730873D01*
X217034342Y-89917172D02*
X216038147Y-90004327D01*
X229984873Y-88784147D02*
X230072028Y-89780342D01*
X217258327Y-103951053D02*
X217171172Y-102954858D01*
X229984873Y-88784147D02*
X228988678Y-88871303D01*
%TO.C,SW34*%
X234581127Y-83300853D02*
X234493972Y-82304658D01*
X247307673Y-68133947D02*
X246311478Y-68221103D01*
X234357142Y-69266972D02*
X233360947Y-69354127D01*
X247307673Y-68133947D02*
X247394828Y-69130142D01*
X233448103Y-70350322D02*
X233360947Y-69354127D01*
X247531658Y-82167828D02*
X248527853Y-82080673D01*
X234581127Y-83300853D02*
X235577322Y-83213697D01*
X248440697Y-81084478D02*
X248527853Y-82080673D01*
%TO.C,SW30*%
X228557858Y-83844228D02*
X229554053Y-83757073D01*
X215607327Y-84977253D02*
X216603522Y-84890097D01*
X215607327Y-84977253D02*
X215520172Y-83981058D01*
X214474303Y-72026722D02*
X214387147Y-71030527D01*
X229466897Y-82760878D02*
X229554053Y-83757073D01*
X228333873Y-69810347D02*
X228421028Y-70806542D01*
X228333873Y-69810347D02*
X227337678Y-69897503D01*
X215383342Y-70943372D02*
X214387147Y-71030527D01*
%TD*%
%LPC*%
D12*
%TO.C,SW1*%
X95300800Y-42926000D03*
D13*
X101803200Y-42926000D03*
%TD*%
D14*
%TO.C,U1*%
X110236000Y-44450000D03*
X110236000Y-46990000D03*
X110236000Y-49530000D03*
X110236000Y-52070000D03*
X110236000Y-54610000D03*
X110236000Y-57150000D03*
X110236000Y-59690000D03*
X110236000Y-62230000D03*
X110236000Y-64770000D03*
X110236000Y-67310000D03*
X110236000Y-69850000D03*
X110236000Y-72390000D03*
X125476000Y-72390000D03*
X125476000Y-69850000D03*
X125476000Y-67310000D03*
X125476000Y-64770000D03*
X125476000Y-62230000D03*
X125476000Y-59690000D03*
X125476000Y-57150000D03*
X125476000Y-54610000D03*
X125476000Y-52070000D03*
X125476000Y-49530000D03*
X125476000Y-46990000D03*
X125476000Y-44450000D03*
%TD*%
D15*
%TO.C,SW12*%
X100315474Y-82299452D03*
D16*
X94869000Y-81534000D03*
D17*
X89838438Y-80827001D03*
D15*
X89422526Y-80768548D03*
D17*
X99899562Y-82240999D03*
D18*
X89275858Y-84686263D03*
D19*
X91449578Y-78488470D03*
D18*
X94047879Y-87376582D03*
D19*
X98091280Y-76856938D03*
%TD*%
D15*
%TO.C,SW18*%
X130588729Y-119967443D03*
D17*
X131007131Y-120004049D03*
X141128469Y-120889551D03*
D15*
X141546871Y-120926157D03*
D16*
X136067800Y-120446800D03*
D20*
X130647300Y-123887465D03*
D21*
X132493674Y-117584402D03*
X139040886Y-115607507D03*
D20*
X135553581Y-126324349D03*
%TD*%
D15*
%TO.C,SW33*%
X240022671Y-56670643D03*
D17*
X239604269Y-56707249D03*
D16*
X234543600Y-57150000D03*
D15*
X229064529Y-57629357D03*
D17*
X229482931Y-57592751D03*
D22*
X230526723Y-54951729D03*
D23*
X229802914Y-61479654D03*
D22*
X236631183Y-51867955D03*
D23*
X235057819Y-63027549D03*
%TD*%
D16*
%TO.C,SW35*%
X242595400Y-94716600D03*
D15*
X248074471Y-94237243D03*
D17*
X247656069Y-94273849D03*
D15*
X237116329Y-95195957D03*
D17*
X237534731Y-95159351D03*
D22*
X238578523Y-92518329D03*
D23*
X237854714Y-99046254D03*
D22*
X244682983Y-89434555D03*
D23*
X243109619Y-100594149D03*
%TD*%
D15*
%TO.C,SW17*%
X136790800Y-78638400D03*
D17*
X137210800Y-78638400D03*
X147370800Y-78638400D03*
D16*
X142290800Y-78638400D03*
D15*
X147790800Y-78638400D03*
D24*
X138480800Y-76098400D03*
D25*
X137190800Y-82538400D03*
X142290800Y-84538400D03*
D24*
X144830800Y-73558400D03*
%TD*%
D26*
%TO.C,SW4*%
X45709000Y-52506250D03*
X45709000Y-47506250D03*
D27*
X52709000Y-44406250D03*
X52709000Y-55606250D03*
D26*
X60209000Y-50006250D03*
X60209000Y-47506250D03*
D28*
X60209000Y-52506250D03*
%TD*%
D15*
%TO.C,SW8*%
X70626526Y-78101548D03*
D16*
X76073000Y-78867000D03*
D17*
X81103562Y-79573999D03*
D15*
X81519474Y-79632452D03*
D17*
X71042438Y-78160001D03*
D19*
X72653578Y-75821470D03*
D18*
X70479858Y-82019263D03*
X75251879Y-84709582D03*
D19*
X79295280Y-74189938D03*
%TD*%
D16*
%TO.C,SW39*%
X262001000Y-97764600D03*
D15*
X267480071Y-97285243D03*
X256521929Y-98243957D03*
D17*
X267061669Y-97321849D03*
X256940331Y-98207351D03*
D23*
X257260314Y-102094254D03*
D22*
X257984123Y-95566329D03*
X264088583Y-92482555D03*
D23*
X262515219Y-103642149D03*
%TD*%
D15*
%TO.C,SW26*%
X208475871Y-78565443D03*
D16*
X202996800Y-79044800D03*
D17*
X197936131Y-79487551D03*
D15*
X197517729Y-79524157D03*
D17*
X208057469Y-78602049D03*
D22*
X198979923Y-76846529D03*
D23*
X198256114Y-83374454D03*
D22*
X205084383Y-73762755D03*
D23*
X203511019Y-84922349D03*
%TD*%
D15*
%TO.C,SW38*%
X265803671Y-78311443D03*
D17*
X265385269Y-78348049D03*
D15*
X254845529Y-79270157D03*
D17*
X255263931Y-79233551D03*
D16*
X260324600Y-78790800D03*
D23*
X255583914Y-83120454D03*
D22*
X256307723Y-76592529D03*
X262412183Y-73508755D03*
D23*
X260838819Y-84668349D03*
%TD*%
D16*
%TO.C,SW21*%
X161366200Y-78638400D03*
D17*
X156286200Y-78638400D03*
D15*
X155866200Y-78638400D03*
D17*
X166446200Y-78638400D03*
D15*
X166866200Y-78638400D03*
D24*
X157556200Y-76098400D03*
D25*
X156266200Y-82538400D03*
D24*
X163906200Y-73558400D03*
D25*
X161366200Y-84538400D03*
%TD*%
D17*
%TO.C,SW25*%
X201009531Y-60081951D03*
D15*
X211549271Y-59159843D03*
D16*
X206070200Y-59639200D03*
D15*
X200591129Y-60118557D03*
D17*
X211130869Y-59196449D03*
D22*
X202053323Y-57440929D03*
D23*
X201329514Y-63968854D03*
X206584419Y-65516749D03*
D22*
X208157783Y-54357155D03*
%TD*%
D17*
%TO.C,SW2*%
X62180562Y-76906999D03*
D15*
X62596474Y-76965452D03*
X51703526Y-75434548D03*
D17*
X52119438Y-75493001D03*
D16*
X57150000Y-76200000D03*
D18*
X51556858Y-79352263D03*
D19*
X53730578Y-73154470D03*
D18*
X56328879Y-82042582D03*
D19*
X60372280Y-71522938D03*
%TD*%
D16*
%TO.C,SW27*%
X204647800Y-98018600D03*
D15*
X199168729Y-98497957D03*
D17*
X209708469Y-97575849D03*
D15*
X210126871Y-97539243D03*
D17*
X199587131Y-98461351D03*
D23*
X199907114Y-102348254D03*
D22*
X200630923Y-95820329D03*
D23*
X205162019Y-103896149D03*
D22*
X206735383Y-92736555D03*
%TD*%
D17*
%TO.C,SW3*%
X73709438Y-59237001D03*
D15*
X73293526Y-59178548D03*
D16*
X78740000Y-59944000D03*
D17*
X83770562Y-60650999D03*
D15*
X84186474Y-60709452D03*
D18*
X73146858Y-63096263D03*
D19*
X75320578Y-56898470D03*
D18*
X77918879Y-65786582D03*
D19*
X81962280Y-55266938D03*
%TD*%
D17*
%TO.C,SW31*%
X218560931Y-96810351D03*
D16*
X223621600Y-96367600D03*
D17*
X228682269Y-95924849D03*
D15*
X218142529Y-96846957D03*
X229100671Y-95888243D03*
D22*
X219604723Y-94169329D03*
D23*
X218880914Y-100697254D03*
D22*
X225709183Y-91085555D03*
D23*
X224135819Y-102245149D03*
%TD*%
D16*
%TO.C,SW34*%
X240944400Y-75717400D03*
D15*
X235465329Y-76196757D03*
D17*
X235883731Y-76160151D03*
D15*
X246423471Y-75238043D03*
D17*
X246005069Y-75274649D03*
D23*
X236203714Y-80047054D03*
D22*
X236927523Y-73519129D03*
X243031983Y-70435355D03*
D23*
X241458619Y-81594949D03*
%TD*%
D15*
%TO.C,SW30*%
X216491529Y-77873157D03*
D17*
X227031269Y-76951049D03*
D16*
X221970600Y-77393800D03*
D17*
X216909931Y-77836551D03*
D15*
X227449671Y-76914443D03*
D23*
X217229914Y-81723454D03*
D22*
X217953723Y-75195529D03*
X224058183Y-72111755D03*
D23*
X222484819Y-83271349D03*
%TD*%
D29*
%TO.C,D20*%
X157480000Y-87884000D03*
D30*
X165100000Y-87884000D03*
%TD*%
D31*
%TO.C,D38*%
X266685502Y-106855937D03*
D32*
X259094498Y-107520064D03*
%TD*%
D33*
%TO.C,D11*%
X105178250Y-76999079D03*
D34*
X104117751Y-84544922D03*
%TD*%
D28*
%TO.C,J2*%
X259556250Y-45243750D03*
%TD*%
D29*
%TO.C,D16*%
X138430000Y-87884000D03*
D30*
X146050000Y-87884000D03*
%TD*%
D31*
%TO.C,D29*%
X226553502Y-86281937D03*
D32*
X218962498Y-86946064D03*
%TD*%
D31*
%TO.C,D34*%
X247127502Y-103807937D03*
D32*
X239536498Y-104472064D03*
%TD*%
D31*
%TO.C,D26*%
X209281502Y-107109937D03*
D32*
X201690498Y-107774064D03*
%TD*%
D31*
%TO.C,D24*%
X210551502Y-68755937D03*
D32*
X202960498Y-69420064D03*
%TD*%
D33*
%TO.C,D2*%
X88646000Y-57150000D03*
D34*
X87585501Y-64695843D03*
%TD*%
D35*
%TO.C,D3*%
X84507843Y-51098499D03*
D36*
X76962000Y-50038000D03*
%TD*%
D31*
%TO.C,D32*%
X238999502Y-66215937D03*
D32*
X231408498Y-66880064D03*
%TD*%
D33*
%TO.C,D7*%
X86382250Y-74205079D03*
D34*
X85321751Y-81750922D03*
%TD*%
D28*
%TO.C,J1*%
X264318750Y-45243750D03*
%TD*%
%TO.C,J3*%
X254793750Y-45243750D03*
%TD*%
D31*
%TO.C,D30*%
X228077502Y-105585936D03*
D32*
X220486498Y-106250063D03*
%TD*%
D37*
%TO.C,D17*%
X145796000Y-117602000D03*
D38*
X145131873Y-125193004D03*
%TD*%
D31*
%TO.C,D37*%
X264907502Y-87805937D03*
D32*
X257316498Y-88470064D03*
%TD*%
D31*
%TO.C,D25*%
X207503502Y-88059937D03*
D32*
X199912498Y-88724064D03*
%TD*%
D33*
%TO.C,D1*%
X67586250Y-71665079D03*
D34*
X66525751Y-79210922D03*
%TD*%
D31*
%TO.C,D33*%
X245603502Y-84757937D03*
D32*
X238012498Y-85422064D03*
%TD*%
M02*
