%TF.GenerationSoftware,KiCad,Pcbnew,(6.0.9)*%
%TF.CreationDate,2023-02-21T23:29:26+05:30*%
%TF.ProjectId,Titan Keyboard,54697461-6e20-44b6-9579-626f6172642e,rev?*%
%TF.SameCoordinates,Original*%
%TF.FileFunction,Copper,L2,Bot*%
%TF.FilePolarity,Positive*%
%FSLAX46Y46*%
G04 Gerber Fmt 4.6, Leading zero omitted, Abs format (unit mm)*
G04 Created by KiCad (PCBNEW (6.0.9)) date 2023-02-21 23:29:26*
%MOMM*%
%LPD*%
G01*
G04 APERTURE LIST*
G04 Aperture macros list*
%AMHorizOval*
0 Thick line with rounded ends*
0 $1 width*
0 $2 $3 position (X,Y) of the first rounded end (center of the circle)*
0 $4 $5 position (X,Y) of the second rounded end (center of the circle)*
0 Add line between two ends*
20,1,$1,$2,$3,$4,$5,0*
0 Add two circle primitives to create the rounded ends*
1,1,$1,$2,$3*
1,1,$1,$4,$5*%
%AMRotRect*
0 Rectangle, with rotation*
0 The origin of the aperture is its center*
0 $1 length*
0 $2 width*
0 $3 Rotation angle, in degrees counterclockwise*
0 Add horizontal line*
21,1,$1,$2,0,0,$3*%
G04 Aperture macros list end*
%TA.AperFunction,ComponentPad*%
%ADD10R,1.752600X1.752600*%
%TD*%
%TA.AperFunction,ComponentPad*%
%ADD11C,1.752600*%
%TD*%
%TA.AperFunction,ComponentPad*%
%ADD12C,1.800000*%
%TD*%
%TA.AperFunction,WasherPad*%
%ADD13C,2.100000*%
%TD*%
%TA.AperFunction,WasherPad*%
%ADD14C,1.900000*%
%TD*%
%TA.AperFunction,ComponentPad*%
%ADD15HorizOval,2.000000X0.396107X-0.055669X-0.396107X0.055669X0*%
%TD*%
%TA.AperFunction,ComponentPad*%
%ADD16HorizOval,2.000000X0.247567X-0.034793X-0.247567X0.034793X0*%
%TD*%
%TA.AperFunction,ComponentPad*%
%ADD17HorizOval,2.000000X0.398478X-0.034862X-0.398478X0.034862X0*%
%TD*%
%TA.AperFunction,ComponentPad*%
%ADD18HorizOval,2.000000X0.249049X-0.021789X-0.249049X0.021789X0*%
%TD*%
%TA.AperFunction,ComponentPad*%
%ADD19HorizOval,2.000000X0.249049X0.021789X-0.249049X-0.021789X0*%
%TD*%
%TA.AperFunction,ComponentPad*%
%ADD20HorizOval,2.000000X0.398478X0.034862X-0.398478X-0.034862X0*%
%TD*%
%TA.AperFunction,ComponentPad*%
%ADD21O,2.500000X2.000000*%
%TD*%
%TA.AperFunction,ComponentPad*%
%ADD22O,2.800000X2.000000*%
%TD*%
%TA.AperFunction,ComponentPad*%
%ADD23C,2.000000*%
%TD*%
%TA.AperFunction,ComponentPad*%
%ADD24R,3.200000X2.000000*%
%TD*%
%TA.AperFunction,ComponentPad*%
%ADD25R,2.000000X2.000000*%
%TD*%
%TA.AperFunction,ComponentPad*%
%ADD26R,1.600000X1.600000*%
%TD*%
%TA.AperFunction,ComponentPad*%
%ADD27O,1.600000X1.600000*%
%TD*%
%TA.AperFunction,ComponentPad*%
%ADD28RotRect,1.600000X1.600000X185.000000*%
%TD*%
%TA.AperFunction,ComponentPad*%
%ADD29HorizOval,1.600000X0.000000X0.000000X0.000000X0.000000X0*%
%TD*%
%TA.AperFunction,ComponentPad*%
%ADD30RotRect,1.600000X1.600000X262.000000*%
%TD*%
%TA.AperFunction,ComponentPad*%
%ADD31HorizOval,1.600000X0.000000X0.000000X0.000000X0.000000X0*%
%TD*%
%TA.AperFunction,ComponentPad*%
%ADD32RotRect,1.600000X1.600000X172.000000*%
%TD*%
%TA.AperFunction,ComponentPad*%
%ADD33HorizOval,1.600000X0.000000X0.000000X0.000000X0.000000X0*%
%TD*%
%TA.AperFunction,ComponentPad*%
%ADD34RotRect,1.600000X1.600000X265.000000*%
%TD*%
%TA.AperFunction,ComponentPad*%
%ADD35HorizOval,1.600000X0.000000X0.000000X0.000000X0.000000X0*%
%TD*%
%TA.AperFunction,Conductor*%
%ADD36C,0.250000*%
%TD*%
%TA.AperFunction,Conductor*%
%ADD37C,1.000000*%
%TD*%
G04 APERTURE END LIST*
D10*
%TO.P,SW1,1,1*%
%TO.N,GND*%
X95300800Y-42926000D03*
D11*
%TO.P,SW1,2,2*%
%TO.N,RESET*%
X101803200Y-42926000D03*
%TD*%
D12*
%TO.P,U1,1,TX*%
%TO.N,ENC_B*%
X110236000Y-44450000D03*
%TO.P,U1,2,RX*%
%TO.N,ENC_A*%
X110236000Y-46990000D03*
%TO.P,U1,3,GND*%
%TO.N,GND*%
X110236000Y-49530000D03*
%TO.P,U1,4,GND*%
X110236000Y-52070000D03*
%TO.P,U1,5,SDA*%
%TO.N,ROW0*%
X110236000Y-54610000D03*
%TO.P,U1,6,SCL*%
%TO.N,COL8*%
X110236000Y-57150000D03*
%TO.P,U1,7,D4*%
%TO.N,COL1*%
X110236000Y-59690000D03*
%TO.P,U1,8,C6*%
%TO.N,COL0*%
X110236000Y-62230000D03*
%TO.P,U1,9,D7*%
%TO.N,ROW1*%
X110236000Y-64770000D03*
%TO.P,U1,10,E6*%
%TO.N,COL2*%
X110236000Y-67310000D03*
%TO.P,U1,11,B4*%
%TO.N,COL3*%
X110236000Y-69850000D03*
%TO.P,U1,12,B5*%
%TO.N,ROW2*%
X110236000Y-72390000D03*
%TO.P,U1,13,B6*%
%TO.N,COL4*%
X125476000Y-72390000D03*
%TO.P,U1,14,B2*%
%TO.N,COL6*%
X125476000Y-69850000D03*
%TO.P,U1,15,B3*%
%TO.N,COL5*%
X125476000Y-67310000D03*
%TO.P,U1,16,B1*%
%TO.N,COL9*%
X125476000Y-64770000D03*
%TO.P,U1,17,F7*%
%TO.N,ROW3*%
X125476000Y-62230000D03*
%TO.P,U1,18,F6*%
%TO.N,COL7*%
X125476000Y-59690000D03*
%TO.P,U1,19,F5*%
%TO.N,LED_DAT*%
X125476000Y-57150000D03*
%TO.P,U1,20,F4*%
%TO.N,unconnected-(U1-Pad20)*%
X125476000Y-54610000D03*
%TO.P,U1,21,VCC*%
%TO.N,unconnected-(U1-Pad21)*%
X125476000Y-52070000D03*
%TO.P,U1,22,RST*%
%TO.N,RESET*%
X125476000Y-49530000D03*
%TO.P,U1,23,GND*%
%TO.N,GND*%
X125476000Y-46990000D03*
%TO.P,U1,24,RAW*%
%TO.N,+5V*%
X125476000Y-44450000D03*
%TD*%
D13*
%TO.P,SW12,*%
%TO.N,*%
X100315474Y-82299452D03*
D14*
X89838438Y-80827001D03*
D13*
X89422526Y-80768548D03*
D14*
X99899562Y-82240999D03*
D15*
%TO.P,SW12,1,1*%
%TO.N,ROW1*%
X89275858Y-84686263D03*
D16*
X91449578Y-78488470D03*
D15*
%TO.P,SW12,2,2*%
%TO.N,Net-(D11-Pad2)*%
X94047879Y-87376582D03*
D16*
X98091280Y-76856938D03*
%TD*%
D13*
%TO.P,SW18,*%
%TO.N,*%
X130588729Y-119967443D03*
D14*
X131007131Y-120004049D03*
X141128469Y-120889551D03*
D13*
X141546871Y-120926157D03*
D17*
%TO.P,SW18,1,1*%
%TO.N,ROW2*%
X130647300Y-123887465D03*
D18*
X132493674Y-117584402D03*
%TO.P,SW18,2,2*%
%TO.N,Net-(D17-Pad2)*%
X139040886Y-115607507D03*
D17*
X135553581Y-126324349D03*
%TD*%
D13*
%TO.P,SW33,*%
%TO.N,*%
X240022671Y-56670643D03*
D14*
X239604269Y-56707249D03*
D13*
X229064529Y-57629357D03*
D14*
X229482931Y-57592751D03*
D19*
%TO.P,SW33,1,1*%
%TO.N,ROW0*%
X230526723Y-54951729D03*
D20*
X229802914Y-61479654D03*
D19*
%TO.P,SW33,2,2*%
%TO.N,Net-(D32-Pad2)*%
X236631183Y-51867955D03*
D20*
X235057819Y-63027549D03*
%TD*%
D13*
%TO.P,SW35,*%
%TO.N,*%
X248074471Y-94237243D03*
D14*
X247656069Y-94273849D03*
D13*
X237116329Y-95195957D03*
D14*
X237534731Y-95159351D03*
D19*
%TO.P,SW35,1,1*%
%TO.N,ROW2*%
X238578523Y-92518329D03*
D20*
X237854714Y-99046254D03*
D19*
%TO.P,SW35,2,2*%
%TO.N,Net-(D34-Pad2)*%
X244682983Y-89434555D03*
D20*
X243109619Y-100594149D03*
%TD*%
D13*
%TO.P,SW17,*%
%TO.N,*%
X136790800Y-78638400D03*
D14*
X137210800Y-78638400D03*
X147370800Y-78638400D03*
D13*
X147790800Y-78638400D03*
D21*
%TO.P,SW17,1,1*%
%TO.N,ROW1*%
X138480800Y-76098400D03*
D22*
X137190800Y-82538400D03*
%TO.P,SW17,2,2*%
%TO.N,Net-(D16-Pad2)*%
X142290800Y-84538400D03*
D21*
X144830800Y-73558400D03*
%TD*%
D23*
%TO.P,SW4,S2,S2*%
%TO.N,Net-(D3-Pad2)*%
X45709000Y-52506250D03*
%TO.P,SW4,S1,S1*%
%TO.N,ROW0*%
X45709000Y-47506250D03*
D24*
%TO.P,SW4,MP*%
%TO.N,N/C*%
X52709000Y-44406250D03*
X52709000Y-55606250D03*
D23*
%TO.P,SW4,C,C*%
%TO.N,GND*%
X60209000Y-50006250D03*
%TO.P,SW4,B,B*%
%TO.N,ENC_B*%
X60209000Y-47506250D03*
D25*
%TO.P,SW4,A,A*%
%TO.N,ENC_A*%
X60209000Y-52506250D03*
%TD*%
D13*
%TO.P,SW8,*%
%TO.N,*%
X70626526Y-78101548D03*
D14*
X81103562Y-79573999D03*
D13*
X81519474Y-79632452D03*
D14*
X71042438Y-78160001D03*
D16*
%TO.P,SW8,1,1*%
%TO.N,ROW1*%
X72653578Y-75821470D03*
D15*
X70479858Y-82019263D03*
%TO.P,SW8,2,2*%
%TO.N,Net-(D7-Pad2)*%
X75251879Y-84709582D03*
D16*
X79295280Y-74189938D03*
%TD*%
D13*
%TO.P,SW39,*%
%TO.N,*%
X267480071Y-97285243D03*
X256521929Y-98243957D03*
D14*
X267061669Y-97321849D03*
X256940331Y-98207351D03*
D20*
%TO.P,SW39,1,1*%
%TO.N,ROW2*%
X257260314Y-102094254D03*
D19*
X257984123Y-95566329D03*
%TO.P,SW39,2,2*%
%TO.N,Net-(D38-Pad2)*%
X264088583Y-92482555D03*
D20*
X262515219Y-103642149D03*
%TD*%
D13*
%TO.P,SW26,*%
%TO.N,*%
X208475871Y-78565443D03*
D14*
X197936131Y-79487551D03*
D13*
X197517729Y-79524157D03*
D14*
X208057469Y-78602049D03*
D19*
%TO.P,SW26,1,1*%
%TO.N,ROW1*%
X198979923Y-76846529D03*
D20*
X198256114Y-83374454D03*
D19*
%TO.P,SW26,2,2*%
%TO.N,Net-(D25-Pad2)*%
X205084383Y-73762755D03*
D20*
X203511019Y-84922349D03*
%TD*%
D13*
%TO.P,SW38,*%
%TO.N,*%
X265803671Y-78311443D03*
D14*
X265385269Y-78348049D03*
D13*
X254845529Y-79270157D03*
D14*
X255263931Y-79233551D03*
D20*
%TO.P,SW38,1,1*%
%TO.N,ROW1*%
X255583914Y-83120454D03*
D19*
X256307723Y-76592529D03*
%TO.P,SW38,2,2*%
%TO.N,Net-(D37-Pad2)*%
X262412183Y-73508755D03*
D20*
X260838819Y-84668349D03*
%TD*%
D14*
%TO.P,SW21,*%
%TO.N,*%
X156286200Y-78638400D03*
D13*
X155866200Y-78638400D03*
D14*
X166446200Y-78638400D03*
D13*
X166866200Y-78638400D03*
D21*
%TO.P,SW21,1,1*%
%TO.N,ROW1*%
X157556200Y-76098400D03*
D22*
X156266200Y-82538400D03*
D21*
%TO.P,SW21,2,2*%
%TO.N,Net-(D20-Pad2)*%
X163906200Y-73558400D03*
D22*
X161366200Y-84538400D03*
%TD*%
D14*
%TO.P,SW25,*%
%TO.N,*%
X201009531Y-60081951D03*
D13*
X211549271Y-59159843D03*
X200591129Y-60118557D03*
D14*
X211130869Y-59196449D03*
D19*
%TO.P,SW25,1,1*%
%TO.N,ROW0*%
X202053323Y-57440929D03*
D20*
X201329514Y-63968854D03*
%TO.P,SW25,2,2*%
%TO.N,Net-(D24-Pad2)*%
X206584419Y-65516749D03*
D19*
X208157783Y-54357155D03*
%TD*%
D14*
%TO.P,SW2,*%
%TO.N,*%
X62180562Y-76906999D03*
D13*
X62596474Y-76965452D03*
X51703526Y-75434548D03*
D14*
X52119438Y-75493001D03*
D15*
%TO.P,SW2,1,1*%
%TO.N,ROW1*%
X51556858Y-79352263D03*
D16*
X53730578Y-73154470D03*
D15*
%TO.P,SW2,2,2*%
%TO.N,Net-(D1-Pad2)*%
X56328879Y-82042582D03*
D16*
X60372280Y-71522938D03*
%TD*%
D13*
%TO.P,SW27,*%
%TO.N,*%
X199168729Y-98497957D03*
D14*
X209708469Y-97575849D03*
D13*
X210126871Y-97539243D03*
D14*
X199587131Y-98461351D03*
D20*
%TO.P,SW27,1,1*%
%TO.N,ROW2*%
X199907114Y-102348254D03*
D19*
X200630923Y-95820329D03*
D20*
%TO.P,SW27,2,2*%
%TO.N,Net-(D26-Pad2)*%
X205162019Y-103896149D03*
D19*
X206735383Y-92736555D03*
%TD*%
D14*
%TO.P,SW3,*%
%TO.N,*%
X73709438Y-59237001D03*
D13*
X73293526Y-59178548D03*
D14*
X83770562Y-60650999D03*
D13*
X84186474Y-60709452D03*
D15*
%TO.P,SW3,1,1*%
%TO.N,ROW0*%
X73146858Y-63096263D03*
D16*
X75320578Y-56898470D03*
D15*
%TO.P,SW3,2,2*%
%TO.N,Net-(D2-Pad2)*%
X77918879Y-65786582D03*
D16*
X81962280Y-55266938D03*
%TD*%
D14*
%TO.P,SW31,*%
%TO.N,*%
X218560931Y-96810351D03*
X228682269Y-95924849D03*
D13*
X218142529Y-96846957D03*
X229100671Y-95888243D03*
D19*
%TO.P,SW31,1,1*%
%TO.N,ROW2*%
X219604723Y-94169329D03*
D20*
X218880914Y-100697254D03*
D19*
%TO.P,SW31,2,2*%
%TO.N,Net-(D30-Pad2)*%
X225709183Y-91085555D03*
D20*
X224135819Y-102245149D03*
%TD*%
D13*
%TO.P,SW34,*%
%TO.N,*%
X235465329Y-76196757D03*
D14*
X235883731Y-76160151D03*
D13*
X246423471Y-75238043D03*
D14*
X246005069Y-75274649D03*
D20*
%TO.P,SW34,1,1*%
%TO.N,ROW1*%
X236203714Y-80047054D03*
D19*
X236927523Y-73519129D03*
%TO.P,SW34,2,2*%
%TO.N,Net-(D33-Pad2)*%
X243031983Y-70435355D03*
D20*
X241458619Y-81594949D03*
%TD*%
D13*
%TO.P,SW30,*%
%TO.N,*%
X216491529Y-77873157D03*
D14*
X227031269Y-76951049D03*
X216909931Y-77836551D03*
D13*
X227449671Y-76914443D03*
D20*
%TO.P,SW30,1,1*%
%TO.N,ROW1*%
X217229914Y-81723454D03*
D19*
X217953723Y-75195529D03*
%TO.P,SW30,2,2*%
%TO.N,Net-(D29-Pad2)*%
X224058183Y-72111755D03*
D20*
X222484819Y-83271349D03*
%TD*%
D26*
%TO.P,D20,1,K*%
%TO.N,COL4*%
X157480000Y-87884000D03*
D27*
%TO.P,D20,2,A*%
%TO.N,Net-(D20-Pad2)*%
X165100000Y-87884000D03*
%TD*%
D28*
%TO.P,D38,1,K*%
%TO.N,COL8*%
X266685502Y-106855937D03*
D29*
%TO.P,D38,2,A*%
%TO.N,Net-(D38-Pad2)*%
X259094498Y-107520064D03*
%TD*%
D30*
%TO.P,D11,1,K*%
%TO.N,COL2*%
X105178250Y-76999079D03*
D31*
%TO.P,D11,2,A*%
%TO.N,Net-(D11-Pad2)*%
X104117751Y-84544922D03*
%TD*%
D25*
%TO.P,J2,1,Pin_1*%
%TO.N,LED_DAT*%
X259556250Y-45243750D03*
%TD*%
D26*
%TO.P,D16,1,K*%
%TO.N,COL3*%
X138430000Y-87884000D03*
D27*
%TO.P,D16,2,A*%
%TO.N,Net-(D16-Pad2)*%
X146050000Y-87884000D03*
%TD*%
D28*
%TO.P,D29,1,K*%
%TO.N,COL6*%
X226553502Y-86281937D03*
D29*
%TO.P,D29,2,A*%
%TO.N,Net-(D29-Pad2)*%
X218962498Y-86946064D03*
%TD*%
D28*
%TO.P,D34,1,K*%
%TO.N,COL7*%
X247127502Y-103807937D03*
D29*
%TO.P,D34,2,A*%
%TO.N,Net-(D34-Pad2)*%
X239536498Y-104472064D03*
%TD*%
D28*
%TO.P,D26,1,K*%
%TO.N,COL5*%
X209281502Y-107109937D03*
D29*
%TO.P,D26,2,A*%
%TO.N,Net-(D26-Pad2)*%
X201690498Y-107774064D03*
%TD*%
D28*
%TO.P,D24,1,K*%
%TO.N,COL5*%
X210551502Y-68755937D03*
D29*
%TO.P,D24,2,A*%
%TO.N,Net-(D24-Pad2)*%
X202960498Y-69420064D03*
%TD*%
D30*
%TO.P,D2,1,K*%
%TO.N,COL1*%
X88646000Y-57150000D03*
D31*
%TO.P,D2,2,A*%
%TO.N,Net-(D2-Pad2)*%
X87585501Y-64695843D03*
%TD*%
D32*
%TO.P,D3,1,K*%
%TO.N,COL8*%
X84507843Y-51098499D03*
D33*
%TO.P,D3,2,A*%
%TO.N,Net-(D3-Pad2)*%
X76962000Y-50038000D03*
%TD*%
D28*
%TO.P,D32,1,K*%
%TO.N,COL7*%
X238999502Y-66215937D03*
D29*
%TO.P,D32,2,A*%
%TO.N,Net-(D32-Pad2)*%
X231408498Y-66880064D03*
%TD*%
D30*
%TO.P,D7,1,K*%
%TO.N,COL1*%
X86382250Y-74205079D03*
D31*
%TO.P,D7,2,A*%
%TO.N,Net-(D7-Pad2)*%
X85321751Y-81750922D03*
%TD*%
D25*
%TO.P,J1,1,Pin_1*%
%TO.N,+5V*%
X264318750Y-45243750D03*
%TD*%
%TO.P,J3,1,Pin_1*%
%TO.N,GND*%
X254793750Y-45243750D03*
%TD*%
D28*
%TO.P,D30,1,K*%
%TO.N,COL6*%
X228077502Y-105585936D03*
D29*
%TO.P,D30,2,A*%
%TO.N,Net-(D30-Pad2)*%
X220486498Y-106250063D03*
%TD*%
D34*
%TO.P,D17,1,K*%
%TO.N,COL3*%
X145796000Y-117602000D03*
D35*
%TO.P,D17,2,A*%
%TO.N,Net-(D17-Pad2)*%
X145131873Y-125193004D03*
%TD*%
D28*
%TO.P,D37,1,K*%
%TO.N,COL8*%
X264907502Y-87805937D03*
D29*
%TO.P,D37,2,A*%
%TO.N,Net-(D37-Pad2)*%
X257316498Y-88470064D03*
%TD*%
D28*
%TO.P,D25,1,K*%
%TO.N,COL5*%
X207503502Y-88059937D03*
D29*
%TO.P,D25,2,A*%
%TO.N,Net-(D25-Pad2)*%
X199912498Y-88724064D03*
%TD*%
D30*
%TO.P,D1,1,K*%
%TO.N,COL0*%
X67586250Y-71665079D03*
D31*
%TO.P,D1,2,A*%
%TO.N,Net-(D1-Pad2)*%
X66525751Y-79210922D03*
%TD*%
D28*
%TO.P,D33,1,K*%
%TO.N,COL7*%
X245603502Y-84757937D03*
D29*
%TO.P,D33,2,A*%
%TO.N,Net-(D33-Pad2)*%
X238012498Y-85422064D03*
%TD*%
D36*
%TO.N,GND*%
X101904800Y-49530000D02*
X110236000Y-49530000D01*
X95300800Y-42926000D02*
X101904800Y-49530000D01*
D37*
X118364000Y-46990000D02*
X125476000Y-46990000D01*
X115824000Y-49530000D02*
X118364000Y-46990000D01*
X110236000Y-49530000D02*
X115824000Y-49530000D01*
D36*
%TO.N,ROW0*%
X227390994Y-51816000D02*
X230526723Y-54951729D01*
X206502000Y-51816000D02*
X227390994Y-51816000D01*
X202053323Y-56264677D02*
X206502000Y-51816000D01*
X202053323Y-57440929D02*
X202053323Y-56264677D01*
%TO.N,ROW1*%
X198979923Y-76805923D02*
X198979923Y-76846529D01*
X193548000Y-71374000D02*
X198979923Y-76805923D01*
X162280600Y-71374000D02*
X193548000Y-71374000D01*
X157556200Y-76098400D02*
X162280600Y-71374000D01*
X157556200Y-75768200D02*
X157556200Y-76098400D01*
X143002000Y-71374000D02*
X153162000Y-71374000D01*
X138480800Y-76098400D02*
X138480800Y-75895200D01*
X138480800Y-75895200D02*
X143002000Y-71374000D01*
X153162000Y-71374000D02*
X157556200Y-75768200D01*
%TO.N,ROW2*%
X147729822Y-102348254D02*
X132493674Y-117584402D01*
X199907114Y-102348254D02*
X147729822Y-102348254D01*
%TO.N,COL1*%
X89408000Y-71374000D02*
X89408000Y-57912000D01*
X86576921Y-74205079D02*
X89408000Y-71374000D01*
X89408000Y-57912000D02*
X88646000Y-57150000D01*
X86382250Y-74205079D02*
X86576921Y-74205079D01*
%TO.N,ROW1*%
X256307723Y-74951723D02*
X256307723Y-76592529D01*
X237744000Y-64262000D02*
X245618000Y-64262000D01*
X245618000Y-64262000D02*
X256307723Y-74951723D01*
X236927523Y-65078477D02*
X237744000Y-64262000D01*
X236927523Y-73519129D02*
X236927523Y-65078477D01*
X217181529Y-75195529D02*
X217953723Y-75195529D01*
X214884000Y-72898000D02*
X217181529Y-75195529D01*
X214884000Y-68580000D02*
X214884000Y-72898000D01*
X208788000Y-66802000D02*
X213106000Y-66802000D01*
X213106000Y-66802000D02*
X214884000Y-68580000D01*
X198979923Y-76846529D02*
X198979923Y-76610077D01*
X198979923Y-76610077D02*
X208788000Y-66802000D01*
X227148211Y-69850000D02*
X230817340Y-73519129D01*
X220218000Y-72136000D02*
X222504000Y-69850000D01*
X220218000Y-73660000D02*
X220218000Y-72136000D01*
X230817340Y-73519129D02*
X236927523Y-73519129D01*
X218682471Y-75195529D02*
X220218000Y-73660000D01*
X222504000Y-69850000D02*
X227148211Y-69850000D01*
X217953723Y-75195529D02*
X218682471Y-75195529D01*
%TO.N,ROW2*%
X237490000Y-104902000D02*
X239522000Y-106934000D01*
X237490000Y-99410968D02*
X237490000Y-104902000D01*
X252420568Y-106934000D02*
X257260314Y-102094254D01*
X237854714Y-99046254D02*
X237490000Y-99410968D01*
X239522000Y-106934000D02*
X252420568Y-106934000D01*
X235725746Y-99046254D02*
X237854714Y-99046254D01*
X233426000Y-106172000D02*
X233426000Y-101346000D01*
X231140000Y-108458000D02*
X233426000Y-106172000D01*
X219964000Y-108458000D02*
X231140000Y-108458000D01*
X218440000Y-106934000D02*
X219964000Y-108458000D01*
X233426000Y-101346000D02*
X235725746Y-99046254D01*
X218880914Y-100697254D02*
X218440000Y-101138168D01*
X218440000Y-101138168D02*
X218440000Y-106934000D01*
X198374000Y-103881368D02*
X199907114Y-102348254D01*
X198374000Y-108712000D02*
X198374000Y-103881368D01*
X199898000Y-110236000D02*
X198374000Y-108712000D01*
X211328000Y-110236000D02*
X199898000Y-110236000D01*
X214376000Y-107188000D02*
X211328000Y-110236000D01*
X214376000Y-103378000D02*
X214376000Y-107188000D01*
X217056746Y-100697254D02*
X214376000Y-103378000D01*
X218880914Y-100697254D02*
X217056746Y-100697254D01*
%TO.N,COL5*%
X207503502Y-85612498D02*
X207503502Y-88059937D01*
X210551502Y-82564498D02*
X207503502Y-85612498D01*
X210551502Y-68755937D02*
X210551502Y-82564498D01*
X212090000Y-92646435D02*
X207503502Y-88059937D01*
X212090000Y-104301439D02*
X212090000Y-92646435D01*
X209281502Y-107109937D02*
X212090000Y-104301439D01*
%TO.N,COL6*%
X231140000Y-90868435D02*
X226553502Y-86281937D01*
X231140000Y-102523438D02*
X231140000Y-90868435D01*
X228077502Y-105585936D02*
X231140000Y-102523438D01*
%TO.N,COL7*%
X245603502Y-81802498D02*
X245603502Y-84757937D01*
X248412000Y-78994000D02*
X245603502Y-81802498D01*
X248412000Y-72390000D02*
X248412000Y-78994000D01*
X238999502Y-66215937D02*
X242237937Y-66215937D01*
X242237937Y-66215937D02*
X248412000Y-72390000D01*
X249936000Y-100999439D02*
X247127502Y-103807937D01*
X249936000Y-89090435D02*
X249936000Y-100999439D01*
X245603502Y-84757937D02*
X249936000Y-89090435D01*
%TO.N,Net-(D32-Pad2)*%
X231408498Y-66880064D02*
X235057819Y-63230743D01*
X235057819Y-63230743D02*
X235057819Y-63027549D01*
%TO.N,Net-(D24-Pad2)*%
X206584419Y-65796143D02*
X206584419Y-65516749D01*
X202960498Y-69420064D02*
X206584419Y-65796143D01*
%TO.N,Net-(D38-Pad2)*%
X262515219Y-104099343D02*
X262515219Y-103642149D01*
X259094498Y-107520064D02*
X262515219Y-104099343D01*
%TO.N,Net-(D34-Pad2)*%
X239536498Y-104472064D02*
X243109619Y-100898943D01*
X243109619Y-100898943D02*
X243109619Y-100594149D01*
%TO.N,Net-(D30-Pad2)*%
X224135819Y-102600742D02*
X224135819Y-102245149D01*
X220486498Y-106250063D02*
X224135819Y-102600742D01*
%TO.N,Net-(D26-Pad2)*%
X205162019Y-104302543D02*
X205162019Y-103896149D01*
X201690498Y-107774064D02*
X205162019Y-104302543D01*
%TO.N,Net-(D29-Pad2)*%
X222484819Y-83423743D02*
X222484819Y-83271349D01*
X218962498Y-86946064D02*
X222484819Y-83423743D01*
%TO.N,Net-(D33-Pad2)*%
X241458619Y-81975943D02*
X241458619Y-81594949D01*
X238012498Y-85422064D02*
X241458619Y-81975943D01*
%TO.N,Net-(D37-Pad2)*%
X260838819Y-84947743D02*
X260838819Y-84668349D01*
X257316498Y-88470064D02*
X260838819Y-84947743D01*
%TO.N,COL8*%
X266685502Y-104916498D02*
X266685502Y-106855937D01*
X270002000Y-92900435D02*
X270002000Y-101600000D01*
X270002000Y-101600000D02*
X266685502Y-104916498D01*
X264907502Y-87805937D02*
X270002000Y-92900435D01*
%TO.N,ROW1*%
X257048000Y-81656368D02*
X255583914Y-83120454D01*
X257048000Y-77332806D02*
X257048000Y-81656368D01*
X256307723Y-76592529D02*
X257048000Y-77332806D01*
%TO.N,Net-(D37-Pad2)*%
X263144000Y-82363168D02*
X260838819Y-84668349D01*
X263144000Y-74240572D02*
X263144000Y-82363168D01*
X262412183Y-73508755D02*
X263144000Y-74240572D01*
%TO.N,Net-(D38-Pad2)*%
X264668000Y-101489368D02*
X262515219Y-103642149D01*
X264668000Y-93061972D02*
X264668000Y-101489368D01*
X264088583Y-92482555D02*
X264668000Y-93061972D01*
%TO.N,ROW2*%
X258572000Y-100782568D02*
X257260314Y-102094254D01*
X258572000Y-96154206D02*
X258572000Y-100782568D01*
X257984123Y-95566329D02*
X258572000Y-96154206D01*
X201168000Y-96357406D02*
X201168000Y-101087368D01*
X201168000Y-101087368D02*
X199907114Y-102348254D01*
X200630923Y-95820329D02*
X201168000Y-96357406D01*
%TO.N,Net-(D26-Pad2)*%
X207264000Y-101794168D02*
X205162019Y-103896149D01*
X207264000Y-93265172D02*
X207264000Y-101794168D01*
X206735383Y-92736555D02*
X207264000Y-93265172D01*
%TO.N,ROW2*%
X220472000Y-99106168D02*
X218880914Y-100697254D01*
X220472000Y-95036606D02*
X220472000Y-99106168D01*
X219604723Y-94169329D02*
X220472000Y-95036606D01*
%TO.N,Net-(D30-Pad2)*%
X226314000Y-100066968D02*
X224135819Y-102245149D01*
X226314000Y-91690372D02*
X226314000Y-100066968D01*
X225709183Y-91085555D02*
X226314000Y-91690372D01*
%TO.N,Net-(D34-Pad2)*%
X245364000Y-90115572D02*
X245364000Y-98339768D01*
X245364000Y-98339768D02*
X243109619Y-100594149D01*
X244682983Y-89434555D02*
X245364000Y-90115572D01*
%TO.N,ROW2*%
X239268000Y-97632968D02*
X237854714Y-99046254D01*
X239268000Y-93207806D02*
X239268000Y-97632968D01*
X238578523Y-92518329D02*
X239268000Y-93207806D01*
%TO.N,Net-(D33-Pad2)*%
X243840000Y-79213568D02*
X241458619Y-81594949D01*
X243840000Y-71243372D02*
X243840000Y-79213568D01*
X243031983Y-70435355D02*
X243840000Y-71243372D01*
%TO.N,ROW1*%
X237490000Y-78760768D02*
X236203714Y-80047054D01*
X237490000Y-74081606D02*
X237490000Y-78760768D01*
X236927523Y-73519129D02*
X237490000Y-74081606D01*
%TO.N,Net-(D32-Pad2)*%
X237236000Y-52472772D02*
X237236000Y-60849368D01*
X236631183Y-51867955D02*
X237236000Y-52472772D01*
X237236000Y-60849368D02*
X235057819Y-63027549D01*
%TO.N,ROW0*%
X231140000Y-60142568D02*
X229802914Y-61479654D01*
X231140000Y-55565006D02*
X231140000Y-60142568D01*
X230526723Y-54951729D02*
X231140000Y-55565006D01*
%TO.N,Net-(D24-Pad2)*%
X208788000Y-63313168D02*
X206584419Y-65516749D01*
X208788000Y-54987372D02*
X208788000Y-63313168D01*
X208157783Y-54357155D02*
X208788000Y-54987372D01*
%TO.N,ROW0*%
X202692000Y-58079606D02*
X202692000Y-62606368D01*
X202053323Y-57440929D02*
X202692000Y-58079606D01*
X202692000Y-62606368D02*
X201329514Y-63968854D01*
%TO.N,Net-(D29-Pad2)*%
X224790000Y-80966168D02*
X222484819Y-83271349D01*
X224790000Y-72843572D02*
X224790000Y-80966168D01*
X224058183Y-72111755D02*
X224790000Y-72843572D01*
%TO.N,ROW1*%
X218694000Y-80259368D02*
X217229914Y-81723454D01*
X218694000Y-75935806D02*
X218694000Y-80259368D01*
X217953723Y-75195529D02*
X218694000Y-75935806D01*
X199644000Y-77510606D02*
X199644000Y-81986568D01*
X198979923Y-76846529D02*
X199644000Y-77510606D01*
X199644000Y-81986568D02*
X198256114Y-83374454D01*
%TO.N,Net-(D25-Pad2)*%
X205740000Y-82693368D02*
X203511019Y-84922349D01*
X205084383Y-73762755D02*
X205740000Y-74418372D01*
X205740000Y-74418372D02*
X205740000Y-82693368D01*
X203511019Y-85125543D02*
X203511019Y-84922349D01*
X199912498Y-88724064D02*
X203511019Y-85125543D01*
%TO.N,ROW1*%
X138938000Y-76555600D02*
X138938000Y-80791200D01*
X138480800Y-76098400D02*
X138938000Y-76555600D01*
X138938000Y-80791200D02*
X137190800Y-82538400D01*
X157988000Y-80816600D02*
X156266200Y-82538400D01*
X157988000Y-76530200D02*
X157988000Y-80816600D01*
X157556200Y-76098400D02*
X157988000Y-76530200D01*
%TO.N,Net-(D20-Pad2)*%
X161754400Y-84538400D02*
X161366200Y-84538400D01*
X165100000Y-87884000D02*
X161754400Y-84538400D01*
X164084000Y-81820600D02*
X161366200Y-84538400D01*
X164084000Y-73736200D02*
X164084000Y-81820600D01*
X163906200Y-73558400D02*
X164084000Y-73736200D01*
%TO.N,Net-(D16-Pad2)*%
X145034000Y-81795200D02*
X142290800Y-84538400D01*
X145034000Y-73761600D02*
X145034000Y-81795200D01*
X144830800Y-73558400D02*
X145034000Y-73761600D01*
X142704400Y-84538400D02*
X142290800Y-84538400D01*
X146050000Y-87884000D02*
X142704400Y-84538400D01*
%TO.N,ROW2*%
X132842000Y-117932728D02*
X132493674Y-117584402D01*
X132842000Y-121692765D02*
X132842000Y-117932728D01*
X130647300Y-123887465D02*
X132842000Y-121692765D01*
%TO.N,Net-(D17-Pad2)*%
X145131873Y-121471234D02*
X145131873Y-125193004D01*
X139268146Y-115607507D02*
X145131873Y-121471234D01*
X139040886Y-115607507D02*
X139268146Y-115607507D01*
X144000528Y-126324349D02*
X145131873Y-125193004D01*
X135553581Y-126324349D02*
X144000528Y-126324349D01*
%TO.N,Net-(D2-Pad2)*%
X87585501Y-60890159D02*
X87585501Y-64695843D01*
X81962280Y-55266938D02*
X87585501Y-60890159D01*
X86494762Y-65786582D02*
X87585501Y-64695843D01*
X77918879Y-65786582D02*
X86494762Y-65786582D01*
%TO.N,ROW0*%
X75320578Y-60922543D02*
X75320578Y-56898470D01*
X73146858Y-63096263D02*
X75320578Y-60922543D01*
%TO.N,ROW1*%
X74022926Y-86868000D02*
X87094121Y-86868000D01*
X72390000Y-85235074D02*
X74022926Y-86868000D01*
X87094121Y-86868000D02*
X89275858Y-84686263D01*
X70589263Y-82019263D02*
X72390000Y-83820000D01*
X70479858Y-82019263D02*
X70589263Y-82019263D01*
X72390000Y-83820000D02*
X72390000Y-85235074D01*
X68094737Y-82019263D02*
X70479858Y-82019263D01*
X66040000Y-84074000D02*
X68094737Y-82019263D01*
X54972926Y-84074000D02*
X66040000Y-84074000D01*
X51556858Y-80657932D02*
X54972926Y-84074000D01*
X51556858Y-79352263D02*
X51556858Y-80657932D01*
%TO.N,Net-(D11-Pad2)*%
X94047879Y-87376582D02*
X101286091Y-87376582D01*
X101286091Y-87376582D02*
X104117751Y-84544922D01*
X104117751Y-82883409D02*
X104117751Y-84544922D01*
X98091280Y-76856938D02*
X104117751Y-82883409D01*
%TO.N,Net-(D7-Pad2)*%
X85321751Y-80216409D02*
X85321751Y-81750922D01*
X79295280Y-74189938D02*
X85321751Y-80216409D01*
X82363091Y-84709582D02*
X85321751Y-81750922D01*
X75251879Y-84709582D02*
X82363091Y-84709582D01*
%TO.N,ROW1*%
X91449578Y-82512543D02*
X89275858Y-84686263D01*
X91449578Y-78488470D02*
X91449578Y-82512543D01*
X72653578Y-79845543D02*
X70479858Y-82019263D01*
X72653578Y-75821470D02*
X72653578Y-79845543D01*
X53730578Y-77178543D02*
X51556858Y-79352263D01*
X53730578Y-73154470D02*
X53730578Y-77178543D01*
%TO.N,Net-(D1-Pad2)*%
X63694091Y-82042582D02*
X66525751Y-79210922D01*
X56328879Y-82042582D02*
X63694091Y-82042582D01*
X60372280Y-71522938D02*
X66525751Y-77676409D01*
X66525751Y-77676409D02*
X66525751Y-79210922D01*
%TD*%
M02*
