%TF.GenerationSoftware,KiCad,Pcbnew,(6.0.9)*%
%TF.CreationDate,2023-02-22T02:05:46+05:30*%
%TF.ProjectId,Titan Keyboard,54697461-6e20-44b6-9579-626f6172642e,rev?*%
%TF.SameCoordinates,Original*%
%TF.FileFunction,Legend,Bot*%
%TF.FilePolarity,Positive*%
%FSLAX46Y46*%
G04 Gerber Fmt 4.6, Leading zero omitted, Abs format (unit mm)*
G04 Created by KiCad (PCBNEW (6.0.9)) date 2023-02-22 02:05:46*
%MOMM*%
%LPD*%
G01*
G04 APERTURE LIST*
%ADD10C,2.700000*%
G04 APERTURE END LIST*
%TO.C,G\u002A\u002A\u002A*%
G36*
X65615377Y-100799314D02*
G01*
X65525702Y-100890990D01*
X65254522Y-101176914D01*
X65013525Y-101447504D01*
X64781190Y-101727534D01*
X64535993Y-102041777D01*
X64331532Y-102310078D01*
X63940778Y-102445059D01*
X63852954Y-102476122D01*
X63356929Y-102682423D01*
X62921668Y-102919275D01*
X62548920Y-103184794D01*
X62240432Y-103477099D01*
X61997951Y-103794306D01*
X61823227Y-104134531D01*
X61718006Y-104495892D01*
X61684036Y-104876506D01*
X61696718Y-105084349D01*
X61775716Y-105463721D01*
X61924599Y-105850316D01*
X62140606Y-106241542D01*
X62420977Y-106634803D01*
X62762953Y-107027507D01*
X63163772Y-107417060D01*
X63620676Y-107800868D01*
X64130903Y-108176337D01*
X64691695Y-108540874D01*
X65300291Y-108891886D01*
X65953930Y-109226778D01*
X66649854Y-109542957D01*
X67718751Y-109966479D01*
X68881612Y-110355103D01*
X70058412Y-110675663D01*
X71243671Y-110927009D01*
X72431909Y-111107989D01*
X73617646Y-111217452D01*
X74795402Y-111254246D01*
X75076437Y-111251892D01*
X75861455Y-111218495D01*
X76599904Y-111146147D01*
X77287860Y-111035567D01*
X77921399Y-110887474D01*
X78496599Y-110702588D01*
X79009537Y-110481627D01*
X79070116Y-110451055D01*
X79507911Y-110197279D01*
X79877017Y-109920450D01*
X80176748Y-109621703D01*
X80406416Y-109302172D01*
X80565333Y-108962992D01*
X80652813Y-108605297D01*
X80668168Y-108230221D01*
X80610711Y-107838899D01*
X80599037Y-107792132D01*
X80485451Y-107463824D01*
X80314151Y-107112760D01*
X80092142Y-106750544D01*
X79826431Y-106388783D01*
X79524025Y-106039079D01*
X79405782Y-105911865D01*
X79307571Y-105800292D01*
X79243648Y-105714406D01*
X79204471Y-105638875D01*
X79180501Y-105558365D01*
X79162198Y-105457543D01*
X79121810Y-105233274D01*
X79028011Y-104813478D01*
X78910231Y-104374618D01*
X78776584Y-103945958D01*
X78635184Y-103556760D01*
X78620875Y-103520268D01*
X78574574Y-103395649D01*
X78545081Y-103305479D01*
X78538249Y-103267238D01*
X78578157Y-103274224D01*
X78674358Y-103311295D01*
X78816415Y-103373672D01*
X78994015Y-103456446D01*
X79196844Y-103554708D01*
X79414588Y-103663548D01*
X79636933Y-103778058D01*
X79853567Y-103893328D01*
X80157158Y-104060921D01*
X80898397Y-104498287D01*
X81578962Y-104942211D01*
X82197460Y-105391240D01*
X82752496Y-105843922D01*
X83242678Y-106298802D01*
X83666610Y-106754428D01*
X84022900Y-107209344D01*
X84310154Y-107662099D01*
X84526977Y-108111239D01*
X84671976Y-108555309D01*
X84743757Y-108992857D01*
X84750112Y-109246257D01*
X84701546Y-109645354D01*
X84581938Y-110029456D01*
X84393202Y-110396446D01*
X84137250Y-110744208D01*
X83815997Y-111070623D01*
X83431357Y-111373577D01*
X82985244Y-111650950D01*
X82479571Y-111900628D01*
X81916251Y-112120492D01*
X81479676Y-112259465D01*
X80821010Y-112428730D01*
X80114268Y-112564930D01*
X79352433Y-112669357D01*
X78528490Y-112743299D01*
X78435192Y-112749763D01*
X78222089Y-112764738D01*
X78029455Y-112778546D01*
X77875422Y-112789880D01*
X77778120Y-112797431D01*
X77751356Y-112799350D01*
X77602995Y-112804917D01*
X77394135Y-112807552D01*
X77136305Y-112807504D01*
X76841033Y-112805019D01*
X76519848Y-112800345D01*
X76184279Y-112793732D01*
X75845853Y-112785428D01*
X75516099Y-112775679D01*
X75206546Y-112764734D01*
X74928722Y-112752842D01*
X74694155Y-112740250D01*
X74514375Y-112727206D01*
X73753869Y-112650373D01*
X72449282Y-112476185D01*
X71145223Y-112249876D01*
X69850030Y-111973799D01*
X68572043Y-111650305D01*
X67319602Y-111281747D01*
X66101044Y-110870476D01*
X64924711Y-110418846D01*
X63798940Y-109929207D01*
X62732071Y-109403913D01*
X62038184Y-109025371D01*
X61260795Y-108559734D01*
X60557980Y-108089092D01*
X59929565Y-107613296D01*
X59375378Y-107132193D01*
X58895246Y-106645630D01*
X58488997Y-106153457D01*
X58156458Y-105655521D01*
X57897456Y-105151670D01*
X57894281Y-105144418D01*
X57763819Y-104810432D01*
X57681310Y-104507709D01*
X57642264Y-104214374D01*
X57642190Y-103908558D01*
X57663867Y-103692128D01*
X57757292Y-103297177D01*
X57919619Y-102924775D01*
X58151513Y-102574139D01*
X58453636Y-102244486D01*
X58826652Y-101935031D01*
X59271224Y-101644990D01*
X59788017Y-101373579D01*
X59972400Y-101289343D01*
X60545282Y-101064437D01*
X61168728Y-100871999D01*
X61845845Y-100711451D01*
X62579740Y-100582216D01*
X63373519Y-100483717D01*
X64230289Y-100415376D01*
X65153157Y-100376616D01*
X66053600Y-100353880D01*
X65615377Y-100799314D01*
G37*
G36*
X66519080Y-123255524D02*
G01*
X66618078Y-123258892D01*
X66822285Y-123271799D01*
X66954818Y-123291016D01*
X67017929Y-123316821D01*
X67036368Y-123355388D01*
X67050419Y-123437830D01*
X67059774Y-123571303D01*
X67064984Y-123763786D01*
X67066599Y-124023263D01*
X67066385Y-124186972D01*
X67064709Y-124382278D01*
X67060390Y-124521043D01*
X67052281Y-124614447D01*
X67039238Y-124673668D01*
X67020117Y-124709885D01*
X66993771Y-124734278D01*
X66939403Y-124758119D01*
X66839097Y-124775193D01*
X66684886Y-124784662D01*
X66466304Y-124787584D01*
X66283698Y-124785583D01*
X66104686Y-124775392D01*
X65985210Y-124753873D01*
X65916628Y-124718045D01*
X65890300Y-124664931D01*
X65897584Y-124591553D01*
X65901065Y-124578884D01*
X65929201Y-124524013D01*
X65982725Y-124487079D01*
X66074016Y-124464736D01*
X66215450Y-124453635D01*
X66419405Y-124450430D01*
X66747692Y-124449917D01*
X66747692Y-124187288D01*
X66445078Y-124187288D01*
X66409574Y-124187128D01*
X66217371Y-124177574D01*
X66089858Y-124151378D01*
X66019141Y-124105919D01*
X65997323Y-124038574D01*
X65999661Y-124002798D01*
X66031135Y-123929395D01*
X66107070Y-123882237D01*
X66237251Y-123857066D01*
X66431465Y-123849622D01*
X66747692Y-123849622D01*
X66747692Y-123586993D01*
X66388800Y-123586993D01*
X66244171Y-123584856D01*
X66073567Y-123571768D01*
X65962739Y-123544447D01*
X65902775Y-123500232D01*
X65884767Y-123436464D01*
X65885633Y-123417150D01*
X65911811Y-123346715D01*
X65980321Y-123297596D01*
X66099087Y-123267531D01*
X66276032Y-123254261D01*
X66519080Y-123255524D01*
G37*
G36*
X64974322Y-110931932D02*
G01*
X65081248Y-110964301D01*
X65228121Y-111014106D01*
X65401371Y-111077007D01*
X66838952Y-111581446D01*
X68322576Y-112032044D01*
X69809978Y-112412082D01*
X71308550Y-112723443D01*
X72825683Y-112968010D01*
X73057960Y-112998602D01*
X73334112Y-113031917D01*
X73622051Y-113064065D01*
X73907413Y-113093621D01*
X74175831Y-113119161D01*
X74412941Y-113139259D01*
X74604376Y-113152492D01*
X74735771Y-113157434D01*
X74849971Y-113161540D01*
X74944630Y-113179942D01*
X74966230Y-113214319D01*
X74915188Y-113266003D01*
X74791923Y-113336325D01*
X74227697Y-113598041D01*
X73486663Y-113875258D01*
X72743904Y-114077972D01*
X72000277Y-114205916D01*
X71976045Y-114208675D01*
X71779204Y-114222633D01*
X71530093Y-114229682D01*
X71246887Y-114230291D01*
X70947760Y-114224928D01*
X70650886Y-114214063D01*
X70374438Y-114198164D01*
X70136592Y-114177702D01*
X69955521Y-114153144D01*
X69746991Y-114113036D01*
X69001515Y-113925602D01*
X68297344Y-113676108D01*
X67631935Y-113363243D01*
X67002746Y-112985695D01*
X66407236Y-112542154D01*
X65842863Y-112031308D01*
X65687465Y-111873691D01*
X65510615Y-111686146D01*
X65344409Y-111501846D01*
X65195839Y-111329171D01*
X65071896Y-111176501D01*
X64979570Y-111052216D01*
X64925851Y-110964695D01*
X64917731Y-110922320D01*
X64920911Y-110921340D01*
X64974322Y-110931932D01*
G37*
G36*
X75246639Y-123255760D02*
G01*
X75379204Y-123259283D01*
X75548887Y-123266088D01*
X75664081Y-123275704D01*
X75737655Y-123290067D01*
X75782475Y-123311113D01*
X75811409Y-123340781D01*
X75822987Y-123357313D01*
X75845277Y-123420495D01*
X75813340Y-123490855D01*
X75781550Y-123526383D01*
X75702102Y-123562663D01*
X75569567Y-123579574D01*
X75376939Y-123590914D01*
X75376939Y-124114212D01*
X75376430Y-124282206D01*
X75373374Y-124444466D01*
X75366066Y-124555290D01*
X75352833Y-124628019D01*
X75332003Y-124675991D01*
X75301902Y-124712547D01*
X75296359Y-124718069D01*
X75228237Y-124775198D01*
X75175649Y-124776989D01*
X75107884Y-124725491D01*
X75088604Y-124704781D01*
X75066984Y-124662912D01*
X75052689Y-124596685D01*
X75044270Y-124493433D01*
X75040281Y-124340492D01*
X75039273Y-124125196D01*
X75039273Y-123586993D01*
X74854360Y-123586993D01*
X74708694Y-123569982D01*
X74605384Y-123523605D01*
X74555306Y-123457383D01*
X74565559Y-123380846D01*
X74643239Y-123303523D01*
X74643799Y-123303158D01*
X74695146Y-123278406D01*
X74767672Y-123262354D01*
X74874809Y-123253937D01*
X75029987Y-123252094D01*
X75246639Y-123255760D01*
G37*
G36*
X76206152Y-115474913D02*
G01*
X76208140Y-115475954D01*
X76339668Y-115556530D01*
X76431689Y-115649356D01*
X76514054Y-115784441D01*
X76538572Y-115832125D01*
X76589032Y-115951284D01*
X76607106Y-116054608D01*
X76600445Y-116176855D01*
X76595696Y-116210824D01*
X76524222Y-116425485D01*
X76390849Y-116608929D01*
X76205823Y-116746372D01*
X76169740Y-116764883D01*
X76113202Y-116789337D01*
X76050298Y-116807192D01*
X75969584Y-116819482D01*
X75859615Y-116827240D01*
X75708945Y-116831501D01*
X75506129Y-116833300D01*
X75239723Y-116833669D01*
X74438977Y-116833669D01*
X74438977Y-119198537D01*
X74438877Y-119565566D01*
X74438358Y-120001989D01*
X74437277Y-120373137D01*
X74435503Y-120684626D01*
X74432907Y-120942073D01*
X74429357Y-121151097D01*
X74424722Y-121317313D01*
X74418872Y-121446340D01*
X74411677Y-121543795D01*
X74403005Y-121615294D01*
X74392726Y-121666455D01*
X74380709Y-121702895D01*
X74302882Y-121844549D01*
X74165645Y-122002176D01*
X74007515Y-122110147D01*
X73979220Y-122121251D01*
X73840211Y-122147620D01*
X73661864Y-122150787D01*
X73626388Y-122148778D01*
X73489059Y-122131683D01*
X73386791Y-122094439D01*
X73286680Y-122026112D01*
X73253080Y-121996938D01*
X73144742Y-121876629D01*
X73060174Y-121747843D01*
X72975757Y-121582615D01*
X72975757Y-116833669D01*
X72175011Y-116833669D01*
X72004706Y-116833558D01*
X71778364Y-116832443D01*
X71608649Y-116829271D01*
X71484116Y-116823007D01*
X71393320Y-116812616D01*
X71324817Y-116797064D01*
X71267162Y-116775317D01*
X71208911Y-116746340D01*
X71103724Y-116677760D01*
X70953263Y-116516991D01*
X70856373Y-116320484D01*
X70823786Y-116106084D01*
X70827310Y-116043842D01*
X70850379Y-115904122D01*
X70887188Y-115795324D01*
X70899551Y-115773180D01*
X70993037Y-115652079D01*
X71118260Y-115535221D01*
X71251445Y-115442439D01*
X71368816Y-115393566D01*
X71423526Y-115389539D01*
X71547212Y-115385614D01*
X71732318Y-115381995D01*
X71971924Y-115378747D01*
X72259111Y-115375939D01*
X72586960Y-115373638D01*
X72948553Y-115371911D01*
X73336969Y-115370826D01*
X73745291Y-115370449D01*
X76006184Y-115370449D01*
X76206152Y-115474913D01*
G37*
G36*
X79579007Y-124048803D02*
G01*
X79578571Y-124198791D01*
X79574829Y-124408681D01*
X79565461Y-124560364D01*
X79548326Y-124664532D01*
X79521286Y-124731880D01*
X79482202Y-124773100D01*
X79428933Y-124798884D01*
X79411065Y-124802657D01*
X79324441Y-124809147D01*
X79192200Y-124811726D01*
X79034989Y-124809821D01*
X78827139Y-124797614D01*
X78659476Y-124769679D01*
X78521837Y-124722483D01*
X78350520Y-124610665D01*
X78223562Y-124453378D01*
X78145981Y-124266567D01*
X78117951Y-124064037D01*
X78122348Y-124022603D01*
X78464104Y-124022603D01*
X78469749Y-124178650D01*
X78528642Y-124319234D01*
X78639044Y-124424008D01*
X78641819Y-124425623D01*
X78783712Y-124471986D01*
X78993880Y-124487436D01*
X79241340Y-124487436D01*
X79241340Y-123653828D01*
X78960082Y-123668031D01*
X78825100Y-123677340D01*
X78718342Y-123695025D01*
X78645304Y-123726199D01*
X78583734Y-123777324D01*
X78513448Y-123871442D01*
X78464104Y-124022603D01*
X78122348Y-124022603D01*
X78139646Y-123859594D01*
X78211239Y-123667043D01*
X78332906Y-123500189D01*
X78504820Y-123372839D01*
X78597120Y-123340693D01*
X78773027Y-123312054D01*
X79020981Y-123294521D01*
X79030797Y-123294103D01*
X79215022Y-123287282D01*
X79352539Y-123290912D01*
X79450175Y-123314220D01*
X79514755Y-123366430D01*
X79553102Y-123456768D01*
X79572044Y-123594459D01*
X79573987Y-123653828D01*
X79578403Y-123788729D01*
X79579007Y-124048803D01*
G37*
G36*
X60286105Y-124303027D02*
G01*
X60190374Y-124486134D01*
X60040405Y-124633243D01*
X59839534Y-124733335D01*
X59763073Y-124753840D01*
X59535033Y-124769083D01*
X59315326Y-124721147D01*
X59120573Y-124615303D01*
X58967394Y-124456820D01*
X58893915Y-124323541D01*
X58841600Y-124117203D01*
X58843392Y-124078474D01*
X59213436Y-124078474D01*
X59244656Y-124227265D01*
X59329215Y-124362328D01*
X59470205Y-124469243D01*
X59587829Y-124515360D01*
X59702045Y-124512954D01*
X59830536Y-124452992D01*
X59956225Y-124355102D01*
X60042455Y-124217880D01*
X60069405Y-124043874D01*
X60061858Y-123940250D01*
X60024803Y-123848586D01*
X59941843Y-123752074D01*
X59856079Y-123676341D01*
X59767100Y-123635173D01*
X59651075Y-123625697D01*
X59560105Y-123634458D01*
X59408890Y-123693947D01*
X59298645Y-123797393D01*
X59232464Y-123930376D01*
X59213436Y-124078474D01*
X58843392Y-124078474D01*
X58851162Y-123910520D01*
X58916324Y-123715068D01*
X59030806Y-123542419D01*
X59188331Y-123404149D01*
X59382619Y-123311831D01*
X59607391Y-123277040D01*
X59751218Y-123284099D01*
X59922436Y-123331040D01*
X60060204Y-123431186D01*
X60184103Y-123595345D01*
X60214508Y-123647901D01*
X60301509Y-123872892D01*
X60319029Y-124043874D01*
X60324262Y-124094940D01*
X60286105Y-124303027D01*
G37*
G36*
X70532673Y-120079907D02*
G01*
X70678411Y-120362574D01*
X70800506Y-120601190D01*
X70901014Y-120799872D01*
X70981990Y-120962736D01*
X71045490Y-121093899D01*
X71093572Y-121197479D01*
X71128291Y-121277592D01*
X71151704Y-121338356D01*
X71165865Y-121383886D01*
X71172833Y-121418301D01*
X71174661Y-121445717D01*
X71161576Y-121583173D01*
X71085883Y-121800287D01*
X70951160Y-121985733D01*
X70767006Y-122123548D01*
X70704686Y-122151350D01*
X70506428Y-122192440D01*
X70293156Y-122181980D01*
X70090606Y-122123159D01*
X69924513Y-122019166D01*
X69920626Y-122015356D01*
X69873801Y-121950864D01*
X69804279Y-121835767D01*
X69720795Y-121685149D01*
X69632083Y-121514098D01*
X69410925Y-121073256D01*
X67657226Y-121073707D01*
X65903527Y-121074159D01*
X65678416Y-121513334D01*
X65560576Y-121731570D01*
X65444531Y-121911463D01*
X65332114Y-122038055D01*
X65212753Y-122120687D01*
X65075878Y-122168697D01*
X64910916Y-122191427D01*
X64859723Y-122194641D01*
X64732650Y-122192792D01*
X64630923Y-122166639D01*
X64517775Y-122108422D01*
X64382054Y-122004892D01*
X64249420Y-121840147D01*
X64221478Y-121790575D01*
X64177874Y-121688616D01*
X64161623Y-121582695D01*
X64165417Y-121437821D01*
X64168921Y-121397527D01*
X64176155Y-121351123D01*
X64189083Y-121298091D01*
X64209928Y-121233818D01*
X64240911Y-121153692D01*
X64284255Y-121053101D01*
X64342182Y-120927431D01*
X64416914Y-120772070D01*
X64510673Y-120582405D01*
X64625682Y-120353823D01*
X64764163Y-120081712D01*
X64928337Y-119761459D01*
X65001487Y-119619415D01*
X66636276Y-119619415D01*
X66636576Y-119620128D01*
X66678742Y-119627420D01*
X66785481Y-119633972D01*
X66947230Y-119639522D01*
X67154424Y-119643810D01*
X67397501Y-119646575D01*
X67666894Y-119647554D01*
X67693016Y-119647545D01*
X67960355Y-119646387D01*
X68200484Y-119643469D01*
X68403839Y-119639051D01*
X68560855Y-119633396D01*
X68661965Y-119626763D01*
X68697606Y-119619415D01*
X68681060Y-119578049D01*
X68634324Y-119481355D01*
X68562788Y-119339734D01*
X68471841Y-119163328D01*
X68366874Y-118962280D01*
X68253275Y-118746733D01*
X68136435Y-118526829D01*
X68021743Y-118312711D01*
X67914588Y-118114523D01*
X67820361Y-117942406D01*
X67744450Y-117806505D01*
X67692246Y-117716960D01*
X67669137Y-117683916D01*
X67668937Y-117683907D01*
X67645383Y-117716056D01*
X67592856Y-117804501D01*
X67516718Y-117939194D01*
X67422331Y-118110089D01*
X67315055Y-118307139D01*
X67200253Y-118520295D01*
X67083287Y-118739510D01*
X66969517Y-118954739D01*
X66864306Y-119155932D01*
X66773014Y-119333044D01*
X66701004Y-119476027D01*
X66653638Y-119574833D01*
X66636276Y-119619415D01*
X65001487Y-119619415D01*
X65120428Y-119388452D01*
X65342657Y-118958077D01*
X65597246Y-118465722D01*
X65708065Y-118251503D01*
X65962772Y-117759543D01*
X66186601Y-117328500D01*
X66382100Y-116954265D01*
X66551816Y-116632729D01*
X66698297Y-116359782D01*
X66824089Y-116131316D01*
X66931741Y-115943221D01*
X67023801Y-115791388D01*
X67102814Y-115671709D01*
X67171330Y-115580074D01*
X67231895Y-115512373D01*
X67287057Y-115464499D01*
X67339362Y-115432341D01*
X67391360Y-115411791D01*
X67445597Y-115398739D01*
X67504620Y-115389077D01*
X67695404Y-115383856D01*
X67915280Y-115441546D01*
X68107895Y-115567077D01*
X68134140Y-115595763D01*
X68180172Y-115659373D01*
X68241912Y-115756485D01*
X68321399Y-115890804D01*
X68420669Y-116066040D01*
X68541759Y-116285901D01*
X68686707Y-116554093D01*
X68857549Y-116874324D01*
X69056322Y-117250303D01*
X69285064Y-117685737D01*
X69545811Y-118184334D01*
X69672161Y-118426386D01*
X69933035Y-118926428D01*
X70162041Y-119365951D01*
X70293823Y-119619415D01*
X70361235Y-119749071D01*
X70532673Y-120079907D01*
G37*
G36*
X73972390Y-123253305D02*
G01*
X74136306Y-123260253D01*
X74264464Y-123270546D01*
X74337622Y-123283971D01*
X74392502Y-123310529D01*
X74456849Y-123377647D01*
X74460124Y-123451005D01*
X74409028Y-123518451D01*
X74310264Y-123567832D01*
X74170533Y-123586993D01*
X73988756Y-123586993D01*
X73988756Y-124118677D01*
X73988696Y-124173328D01*
X73986642Y-124376885D01*
X73980705Y-124520724D01*
X73969591Y-124617349D01*
X73952009Y-124679264D01*
X73926663Y-124718972D01*
X73919809Y-124726506D01*
X73863592Y-124776792D01*
X73812470Y-124777117D01*
X73734474Y-124729178D01*
X73724879Y-124722295D01*
X73694991Y-124694711D01*
X73674488Y-124655511D01*
X73661608Y-124592013D01*
X73654590Y-124491531D01*
X73651671Y-124341382D01*
X73651089Y-124128883D01*
X73651089Y-123586993D01*
X73469312Y-123586993D01*
X73338433Y-123573505D01*
X73231705Y-123528234D01*
X73181567Y-123457858D01*
X73196835Y-123369417D01*
X73230195Y-123323199D01*
X73296690Y-123272500D01*
X73343992Y-123263198D01*
X73458518Y-123254648D01*
X73614254Y-123250290D01*
X73791959Y-123249913D01*
X73972390Y-123253305D01*
G37*
G36*
X71080384Y-123251011D02*
G01*
X71245480Y-123258516D01*
X71376838Y-123270657D01*
X71453817Y-123285916D01*
X71550055Y-123322506D01*
X71550055Y-124015662D01*
X71549854Y-124170810D01*
X71548211Y-124377618D01*
X71544117Y-124526133D01*
X71536630Y-124626844D01*
X71524809Y-124690242D01*
X71507713Y-124726817D01*
X71484398Y-124747060D01*
X71435725Y-124760949D01*
X71322247Y-124774007D01*
X71168248Y-124782184D01*
X70992846Y-124785448D01*
X70815159Y-124783767D01*
X70654302Y-124777111D01*
X70529395Y-124765447D01*
X70459553Y-124748745D01*
X70401826Y-124689605D01*
X70393362Y-124599875D01*
X70445941Y-124508875D01*
X70480339Y-124485285D01*
X70555276Y-124464285D01*
X70676648Y-124453171D01*
X70858644Y-124449917D01*
X71212389Y-124449917D01*
X71212389Y-124187288D01*
X70896162Y-124187288D01*
X70817858Y-124186648D01*
X70669319Y-124178762D01*
X70575175Y-124160080D01*
X70520978Y-124128331D01*
X70480879Y-124079313D01*
X70468741Y-124004292D01*
X70524113Y-123918233D01*
X70562963Y-123886688D01*
X70629327Y-123863966D01*
X70735614Y-123852675D01*
X70899297Y-123849622D01*
X71212389Y-123849622D01*
X71212389Y-123586993D01*
X70872257Y-123586993D01*
X70764454Y-123585725D01*
X70586383Y-123573696D01*
X70469860Y-123546787D01*
X70406266Y-123502348D01*
X70386983Y-123437726D01*
X70400780Y-123371020D01*
X70456331Y-123313801D01*
X70561993Y-123276214D01*
X70725770Y-123255607D01*
X70955666Y-123249327D01*
X71080384Y-123251011D01*
G37*
G36*
X85413309Y-123301097D02*
G01*
X85418476Y-123304919D01*
X85441793Y-123326310D01*
X85456722Y-123356587D01*
X85463015Y-123406666D01*
X85460424Y-123487463D01*
X85448700Y-123609895D01*
X85427594Y-123784878D01*
X85396858Y-124023328D01*
X85370101Y-124218715D01*
X85340116Y-124415894D01*
X85312339Y-124577200D01*
X85289008Y-124689757D01*
X85272356Y-124740685D01*
X85208198Y-124789206D01*
X85118089Y-124781302D01*
X85010302Y-124702853D01*
X84883246Y-124553093D01*
X84871824Y-124537571D01*
X84783694Y-124413372D01*
X84711866Y-124304928D01*
X84670950Y-124234186D01*
X84639439Y-124179688D01*
X84605316Y-124149770D01*
X84592157Y-124159613D01*
X84543359Y-124218986D01*
X84470600Y-124320142D01*
X84384100Y-124449243D01*
X84337061Y-124519971D01*
X84248052Y-124645144D01*
X84173523Y-124739186D01*
X84125993Y-124785769D01*
X84123241Y-124787363D01*
X84050653Y-124818532D01*
X83991333Y-124815185D01*
X83942190Y-124770599D01*
X83900133Y-124678053D01*
X83862070Y-124530823D01*
X83824912Y-124322187D01*
X83785566Y-124045423D01*
X83755231Y-123804455D01*
X83735554Y-123604922D01*
X83730963Y-123462715D01*
X83742623Y-123369174D01*
X83771701Y-123315643D01*
X83819362Y-123293463D01*
X83886774Y-123293976D01*
X83894070Y-123295015D01*
X83971439Y-123337722D01*
X84031502Y-123439722D01*
X84076261Y-123605977D01*
X84107720Y-123841451D01*
X84121006Y-123954288D01*
X84138202Y-124049776D01*
X84154018Y-124092107D01*
X84154773Y-124092451D01*
X84189810Y-124069847D01*
X84255085Y-124001593D01*
X84337089Y-123901739D01*
X84424284Y-123796123D01*
X84502576Y-123713821D01*
X84553750Y-123674236D01*
X84569829Y-123669379D01*
X84667952Y-123685208D01*
X84780346Y-123771608D01*
X84904216Y-123926565D01*
X84963713Y-124009529D01*
X85024173Y-124083681D01*
X85058113Y-124112251D01*
X85066326Y-124099214D01*
X85082003Y-124027086D01*
X85098140Y-123905972D01*
X85112304Y-123752041D01*
X85126231Y-123596288D01*
X85146445Y-123461949D01*
X85173405Y-123375098D01*
X85210561Y-123320578D01*
X85274319Y-123266035D01*
X85335309Y-123256166D01*
X85413309Y-123301097D01*
G37*
G36*
X62498856Y-124508253D02*
G01*
X62556509Y-124567754D01*
X62576925Y-124649417D01*
X62544128Y-124733108D01*
X62512368Y-124760524D01*
X62433069Y-124787584D01*
X62412227Y-124786259D01*
X62331944Y-124746839D01*
X62293770Y-124671073D01*
X62303620Y-124583937D01*
X62367411Y-124510408D01*
X62419942Y-124491047D01*
X62498856Y-124508253D01*
G37*
G36*
X61426299Y-123290694D02*
G01*
X61627781Y-123368413D01*
X61793458Y-123502999D01*
X61911007Y-123688247D01*
X61923636Y-123719111D01*
X61980937Y-123954978D01*
X61968911Y-124178402D01*
X61891009Y-124379876D01*
X61750683Y-124549890D01*
X61551385Y-124678935D01*
X61518686Y-124693020D01*
X61311342Y-124742167D01*
X61097531Y-124734280D01*
X60898738Y-124672498D01*
X60736449Y-124559956D01*
X60674872Y-124491549D01*
X60651382Y-124433593D01*
X60670289Y-124373781D01*
X60684135Y-124349828D01*
X60749986Y-124285521D01*
X60832647Y-124286804D01*
X60943415Y-124352812D01*
X61028376Y-124406563D01*
X61195448Y-124453610D01*
X61360747Y-124427293D01*
X61515718Y-124327982D01*
X61588677Y-124249579D01*
X61666273Y-124099335D01*
X61669148Y-123942833D01*
X61597244Y-123780459D01*
X61572837Y-123746828D01*
X61479898Y-123650473D01*
X61386593Y-123588667D01*
X61355725Y-123577572D01*
X61206720Y-123559873D01*
X61061391Y-123590007D01*
X60950425Y-123662763D01*
X60865962Y-123722057D01*
X60775156Y-123731637D01*
X60701113Y-123695993D01*
X60662602Y-123624520D01*
X60678397Y-123526613D01*
X60755886Y-123427659D01*
X60901561Y-123345985D01*
X61115538Y-123287677D01*
X61201332Y-123276045D01*
X61426299Y-123290694D01*
G37*
G36*
X81771495Y-123300851D02*
G01*
X81792275Y-123316602D01*
X81815002Y-123346183D01*
X81831216Y-123394495D01*
X81842327Y-123472799D01*
X81849748Y-123592354D01*
X81854889Y-123764423D01*
X81859163Y-124000267D01*
X81859715Y-124035837D01*
X81862297Y-124266956D01*
X81861408Y-124435944D01*
X81856214Y-124554170D01*
X81845880Y-124633003D01*
X81829570Y-124683812D01*
X81806450Y-124717967D01*
X81803434Y-124721283D01*
X81737674Y-124777140D01*
X81679158Y-124773740D01*
X81602563Y-124710106D01*
X81581376Y-124687031D01*
X81559107Y-124650563D01*
X81544229Y-124598275D01*
X81535655Y-124518328D01*
X81532300Y-124398885D01*
X81533079Y-124228107D01*
X81536906Y-123994156D01*
X81539065Y-123883232D01*
X81544321Y-123677338D01*
X81551118Y-123530207D01*
X81560841Y-123430503D01*
X81574876Y-123366892D01*
X81594607Y-123328037D01*
X81621422Y-123302602D01*
X81638430Y-123290702D01*
X81701306Y-123268731D01*
X81771495Y-123300851D01*
G37*
G36*
X68192893Y-123249718D02*
G01*
X68331164Y-123258424D01*
X68428086Y-123284918D01*
X68490977Y-123338734D01*
X68527154Y-123429406D01*
X68543935Y-123566469D01*
X68548637Y-123759456D01*
X68548578Y-124017903D01*
X68547909Y-124222758D01*
X68544786Y-124413317D01*
X68538288Y-124548426D01*
X68527522Y-124638842D01*
X68511597Y-124695323D01*
X68489621Y-124728626D01*
X68470540Y-124743705D01*
X68415191Y-124765151D01*
X68323724Y-124778614D01*
X68183194Y-124785591D01*
X67980655Y-124787584D01*
X67835486Y-124786474D01*
X67647162Y-124778468D01*
X67517876Y-124760307D01*
X67437754Y-124729151D01*
X67396922Y-124682162D01*
X67385506Y-124616502D01*
X67396797Y-124558238D01*
X67445899Y-124506572D01*
X67542315Y-124473197D01*
X67695074Y-124455262D01*
X67913207Y-124449917D01*
X68248431Y-124449917D01*
X68248431Y-124187288D01*
X67945816Y-124187288D01*
X67850167Y-124186103D01*
X67681585Y-124173322D01*
X67573167Y-124143556D01*
X67515223Y-124093152D01*
X67498061Y-124018455D01*
X67501203Y-123982389D01*
X67535101Y-123918822D01*
X67614042Y-123877942D01*
X67747717Y-123856093D01*
X67945816Y-123849622D01*
X68248431Y-123849622D01*
X68248431Y-123589618D01*
X67868339Y-123578926D01*
X67708876Y-123573304D01*
X67587650Y-123564202D01*
X67511869Y-123548929D01*
X67465905Y-123524158D01*
X67434127Y-123486567D01*
X67408146Y-123442114D01*
X67406379Y-123389649D01*
X67457793Y-123327114D01*
X67461733Y-123323223D01*
X67503810Y-123290222D01*
X67559093Y-123268731D01*
X67643033Y-123256351D01*
X67771083Y-123250683D01*
X67958694Y-123249327D01*
X68005956Y-123249265D01*
X68192893Y-123249718D01*
G37*
G36*
X58073432Y-115416090D02*
G01*
X58270868Y-115520675D01*
X58442386Y-115692586D01*
X58549908Y-115833520D01*
X58560333Y-117649519D01*
X58560369Y-117655846D01*
X58563157Y-118023532D01*
X58567017Y-118364034D01*
X58571784Y-118670516D01*
X58577295Y-118936142D01*
X58583387Y-119154076D01*
X58589895Y-119317480D01*
X58596656Y-119419521D01*
X58603507Y-119453360D01*
X58605266Y-119452301D01*
X58643481Y-119413861D01*
X58722504Y-119326395D01*
X58835871Y-119197316D01*
X58977116Y-119034040D01*
X59139775Y-118843982D01*
X59317383Y-118634555D01*
X59486574Y-118434341D01*
X59683089Y-118202145D01*
X59871607Y-117979742D01*
X60042037Y-117779028D01*
X60184287Y-117611897D01*
X60288266Y-117490242D01*
X60375893Y-117387070D01*
X60512517Y-117224252D01*
X60677934Y-117025692D01*
X60862182Y-116803386D01*
X61055300Y-116569327D01*
X61247326Y-116335509D01*
X61267204Y-116311267D01*
X61443340Y-116098541D01*
X61606848Y-115904623D01*
X61750830Y-115737431D01*
X61868387Y-115604884D01*
X61952622Y-115514900D01*
X61996637Y-115475395D01*
X62153419Y-115419467D01*
X62355362Y-115396109D01*
X62558335Y-115414659D01*
X62727160Y-115479710D01*
X62892349Y-115598396D01*
X63025114Y-115749780D01*
X63104272Y-115914467D01*
X63105696Y-115920801D01*
X63113478Y-115999529D01*
X63120459Y-116144531D01*
X63126635Y-116348368D01*
X63132003Y-116603604D01*
X63136562Y-116902802D01*
X63140310Y-117238524D01*
X63143242Y-117603333D01*
X63145358Y-117989792D01*
X63146655Y-118390465D01*
X63147130Y-118797914D01*
X63146781Y-119204701D01*
X63145605Y-119603391D01*
X63143600Y-119986545D01*
X63140763Y-120346727D01*
X63137093Y-120676499D01*
X63132586Y-120968425D01*
X63127240Y-121215067D01*
X63121053Y-121408988D01*
X63114022Y-121542751D01*
X63106145Y-121608919D01*
X63063038Y-121721060D01*
X62938319Y-121900569D01*
X62766408Y-122041529D01*
X62564383Y-122127591D01*
X62473820Y-122142603D01*
X62267255Y-122127735D01*
X62066769Y-122054314D01*
X61892172Y-121931246D01*
X61763275Y-121767436D01*
X61758101Y-121757272D01*
X61744352Y-121719625D01*
X61732716Y-121665576D01*
X61722919Y-121588611D01*
X61714686Y-121482214D01*
X61707741Y-121339870D01*
X61701809Y-121155066D01*
X61696614Y-120921285D01*
X61691881Y-120632013D01*
X61687334Y-120280734D01*
X61682699Y-119860935D01*
X61663940Y-118067078D01*
X61439193Y-118341437D01*
X61414197Y-118371789D01*
X61308319Y-118498613D01*
X61167906Y-118665045D01*
X61003954Y-118858123D01*
X60827460Y-119064886D01*
X60649420Y-119272369D01*
X60564656Y-119370967D01*
X60408031Y-119553805D01*
X60255479Y-119732941D01*
X60100543Y-119916092D01*
X59936768Y-120110973D01*
X59757697Y-120325300D01*
X59556874Y-120566790D01*
X59327844Y-120843159D01*
X59064150Y-121162123D01*
X58759338Y-121531398D01*
X58722402Y-121576042D01*
X58546895Y-121782378D01*
X58403279Y-121936086D01*
X58281127Y-122043886D01*
X58170007Y-122112497D01*
X58059490Y-122148638D01*
X57939147Y-122159029D01*
X57798547Y-122150389D01*
X57769878Y-122147058D01*
X57546033Y-122087746D01*
X57367696Y-121971100D01*
X57227050Y-121792221D01*
X57124206Y-121617273D01*
X57124206Y-118803389D01*
X57124228Y-118631284D01*
X57124643Y-118100103D01*
X57125641Y-117638117D01*
X57127297Y-117240825D01*
X57129686Y-116903724D01*
X57132882Y-116622313D01*
X57136960Y-116392093D01*
X57141995Y-116208560D01*
X57148061Y-116067214D01*
X57155234Y-115963554D01*
X57163588Y-115893078D01*
X57173197Y-115851285D01*
X57229634Y-115742319D01*
X57352804Y-115599071D01*
X57507764Y-115480232D01*
X57670323Y-115407402D01*
X57857272Y-115381486D01*
X58073432Y-115416090D01*
G37*
G36*
X65600865Y-124620598D02*
G01*
X65577906Y-124705779D01*
X65544109Y-124758904D01*
X65498132Y-124789603D01*
X65446293Y-124802162D01*
X65325148Y-124812243D01*
X65167854Y-124814148D01*
X64996627Y-124808710D01*
X64833682Y-124796763D01*
X64701236Y-124779143D01*
X64621504Y-124756683D01*
X64572854Y-124722393D01*
X64479587Y-124610922D01*
X64410867Y-124470701D01*
X64384169Y-124332934D01*
X64384180Y-124330886D01*
X64397622Y-124253355D01*
X64698717Y-124253355D01*
X64712860Y-124351714D01*
X64715032Y-124356444D01*
X64745446Y-124407677D01*
X64789917Y-124435739D01*
X64868757Y-124447522D01*
X65002279Y-124449917D01*
X65246953Y-124449917D01*
X65246953Y-124112251D01*
X65044758Y-124112251D01*
X65039000Y-124112266D01*
X64867010Y-124129863D01*
X64751842Y-124178149D01*
X64698717Y-124253355D01*
X64397622Y-124253355D01*
X64405521Y-124207799D01*
X64455374Y-124089506D01*
X64498052Y-123996402D01*
X64493327Y-123920673D01*
X64484171Y-123899462D01*
X64466800Y-123810412D01*
X64460445Y-123707133D01*
X64740779Y-123707133D01*
X64743821Y-123788589D01*
X64748099Y-123797777D01*
X64786488Y-123829055D01*
X64867484Y-123845099D01*
X65007097Y-123849622D01*
X65246953Y-123849622D01*
X65246953Y-123737067D01*
X65246930Y-123722513D01*
X65241819Y-123665956D01*
X65215279Y-123636850D01*
X65149442Y-123626076D01*
X65026437Y-123624511D01*
X64939296Y-123627478D01*
X64805632Y-123653606D01*
X64740779Y-123707133D01*
X64460445Y-123707133D01*
X64459640Y-123694055D01*
X64459646Y-123679651D01*
X64469141Y-123567354D01*
X64507554Y-123487566D01*
X64591686Y-123403287D01*
X64608547Y-123388564D01*
X64669837Y-123340041D01*
X64729585Y-123310071D01*
X64806935Y-123294191D01*
X64921030Y-123287938D01*
X65091014Y-123286845D01*
X65186184Y-123286793D01*
X65344041Y-123290130D01*
X65456093Y-123306639D01*
X65530522Y-123346618D01*
X65575509Y-123420366D01*
X65599236Y-123538182D01*
X65609886Y-123710365D01*
X65613269Y-123849622D01*
X65615639Y-123947214D01*
X65618155Y-124076428D01*
X65619647Y-124315552D01*
X65615638Y-124449917D01*
X65614331Y-124493732D01*
X65600865Y-124620598D01*
G37*
G36*
X78594579Y-115410569D02*
G01*
X78779321Y-115486112D01*
X78937887Y-115615118D01*
X79057008Y-115797556D01*
X79059122Y-115802266D01*
X79072020Y-115834796D01*
X79083182Y-115873660D01*
X79092737Y-115924141D01*
X79100811Y-115991525D01*
X79107531Y-116081096D01*
X79113023Y-116198140D01*
X79117414Y-116347942D01*
X79120830Y-116535786D01*
X79123399Y-116766957D01*
X79125247Y-117046741D01*
X79126500Y-117380421D01*
X79127286Y-117773284D01*
X79127731Y-118230614D01*
X79127961Y-118757696D01*
X79127983Y-119243451D01*
X79127646Y-119713570D01*
X79126832Y-120118406D01*
X79125442Y-120463080D01*
X79123376Y-120752714D01*
X79120534Y-120992430D01*
X79116816Y-121187348D01*
X79112122Y-121342589D01*
X79106352Y-121463276D01*
X79099406Y-121554528D01*
X79091185Y-121621468D01*
X79081589Y-121669216D01*
X79070517Y-121702895D01*
X78992690Y-121844549D01*
X78855453Y-122002176D01*
X78697323Y-122110147D01*
X78669028Y-122121251D01*
X78530019Y-122147620D01*
X78351672Y-122150787D01*
X78308422Y-122148274D01*
X78174993Y-122130891D01*
X78075261Y-122093249D01*
X77976488Y-122024309D01*
X77941276Y-121994006D01*
X77837197Y-121886565D01*
X77759361Y-121782129D01*
X77750472Y-121766437D01*
X77737611Y-121738894D01*
X77726491Y-121704123D01*
X77716961Y-121656908D01*
X77708870Y-121592032D01*
X77702068Y-121504279D01*
X77696404Y-121388433D01*
X77691729Y-121239279D01*
X77687891Y-121051601D01*
X77684740Y-120820182D01*
X77682125Y-120539806D01*
X77679896Y-120205257D01*
X77677903Y-119811320D01*
X77675995Y-119352779D01*
X77674021Y-118824417D01*
X77663717Y-115994042D01*
X77761221Y-115794751D01*
X77859194Y-115643587D01*
X78015968Y-115504996D01*
X78199635Y-115419982D01*
X78396928Y-115388515D01*
X78594579Y-115410569D01*
G37*
G36*
X68985448Y-123304025D02*
G01*
X69071327Y-123350200D01*
X69191130Y-123437808D01*
X69355225Y-123571835D01*
X69692891Y-123854679D01*
X69703976Y-123608688D01*
X69707463Y-123544819D01*
X69721182Y-123428153D01*
X69746330Y-123360545D01*
X69788392Y-123323451D01*
X69840109Y-123304900D01*
X69937601Y-123324813D01*
X69938215Y-123325142D01*
X69964960Y-123343215D01*
X69984245Y-123371511D01*
X69997055Y-123420828D01*
X70004375Y-123501968D01*
X70007193Y-123625729D01*
X70006492Y-123802912D01*
X70003258Y-124044315D01*
X70001507Y-124153608D01*
X69996789Y-124370245D01*
X69990506Y-124526821D01*
X69981540Y-124633939D01*
X69968776Y-124702203D01*
X69951095Y-124742217D01*
X69927382Y-124764584D01*
X69856723Y-124791237D01*
X69787371Y-124761589D01*
X69741311Y-124661845D01*
X69719240Y-124492914D01*
X69711499Y-124385343D01*
X69699318Y-124296454D01*
X69686304Y-124262325D01*
X69663127Y-124275952D01*
X69592117Y-124329284D01*
X69486739Y-124413587D01*
X69359807Y-124518794D01*
X69263318Y-124598662D01*
X69142744Y-124694465D01*
X69049687Y-124763687D01*
X68998800Y-124795112D01*
X68917116Y-124797427D01*
X68842079Y-124746468D01*
X68811208Y-124657142D01*
X68830791Y-124590970D01*
X68899873Y-124506197D01*
X69026939Y-124396625D01*
X69147088Y-124301132D01*
X69264469Y-124206624D01*
X69348738Y-124137467D01*
X69454806Y-124048542D01*
X69217423Y-123852012D01*
X69193450Y-123832157D01*
X69070881Y-123730412D01*
X68964695Y-123641926D01*
X68895624Y-123583967D01*
X68838240Y-123517448D01*
X68813739Y-123419660D01*
X68856230Y-123331867D01*
X68873977Y-123316026D01*
X68923121Y-123294296D01*
X68985448Y-123304025D01*
G37*
G36*
X72232262Y-99050056D02*
G01*
X72942974Y-99178764D01*
X73634216Y-99372018D01*
X74301784Y-99628028D01*
X74941471Y-99945004D01*
X75549075Y-100321155D01*
X76120389Y-100754691D01*
X76651210Y-101243822D01*
X77137331Y-101786756D01*
X77574549Y-102381704D01*
X77958657Y-103026875D01*
X78038804Y-103182430D01*
X78319569Y-103821127D01*
X78543943Y-104494117D01*
X78708275Y-105186754D01*
X78808916Y-105884388D01*
X78842213Y-106572369D01*
X78824843Y-107076436D01*
X78737781Y-107820754D01*
X78577458Y-108548938D01*
X78343805Y-109261270D01*
X78036757Y-109958028D01*
X77951274Y-110128775D01*
X77872688Y-110281214D01*
X77813362Y-110385604D01*
X77765599Y-110452413D01*
X77721702Y-110492109D01*
X77673974Y-110515161D01*
X77614718Y-110532037D01*
X77579430Y-110541153D01*
X77475990Y-110568957D01*
X77410962Y-110588039D01*
X77367254Y-110599909D01*
X77242581Y-110625187D01*
X77068110Y-110654898D01*
X76859476Y-110686798D01*
X76632312Y-110718639D01*
X76402255Y-110748174D01*
X76184937Y-110773159D01*
X75995993Y-110791346D01*
X75989648Y-110791871D01*
X75788553Y-110808564D01*
X75599124Y-110824357D01*
X75442400Y-110837492D01*
X75339420Y-110846211D01*
X75229850Y-110853253D01*
X74979064Y-110859038D01*
X74673184Y-110856300D01*
X74324689Y-110845751D01*
X73946062Y-110828100D01*
X73549784Y-110804059D01*
X73148337Y-110774338D01*
X72754202Y-110739649D01*
X72379861Y-110700701D01*
X72037795Y-110658205D01*
X71955342Y-110646686D01*
X71127254Y-110507045D01*
X70267052Y-110321394D01*
X69394584Y-110095254D01*
X68529696Y-109834149D01*
X67692237Y-109543602D01*
X66902054Y-109229136D01*
X66896244Y-109226653D01*
X66391313Y-108999301D01*
X65887286Y-108750720D01*
X65396063Y-108487803D01*
X64929539Y-108217440D01*
X64499612Y-107946523D01*
X64118179Y-107681944D01*
X63797139Y-107430594D01*
X63604192Y-107267537D01*
X63578416Y-106938713D01*
X63568721Y-106721674D01*
X63575066Y-106361843D01*
X63603262Y-105966316D01*
X63650801Y-105555588D01*
X63715177Y-105150155D01*
X63793882Y-104770513D01*
X63884409Y-104437159D01*
X64027883Y-104021693D01*
X64322265Y-103336597D01*
X64674961Y-102687257D01*
X65081932Y-102077672D01*
X65539143Y-101511840D01*
X66042556Y-100993761D01*
X66588134Y-100527433D01*
X67171839Y-100116854D01*
X67789636Y-99766025D01*
X68437487Y-99478944D01*
X69111355Y-99259609D01*
X69278813Y-99216503D01*
X70025356Y-99069119D01*
X70769248Y-98993444D01*
X71506285Y-98987686D01*
X72232262Y-99050056D01*
G37*
G36*
X82806965Y-123255524D02*
G01*
X82847525Y-123256678D01*
X83031042Y-123263619D01*
X83155790Y-123273198D01*
X83235548Y-123287731D01*
X83284090Y-123309531D01*
X83315194Y-123340914D01*
X83335928Y-123387013D01*
X83351285Y-123469152D01*
X83361295Y-123596310D01*
X83366732Y-123778473D01*
X83368371Y-124025626D01*
X83368303Y-124116082D01*
X83366978Y-124321649D01*
X83362947Y-124468624D01*
X83354888Y-124569106D01*
X83341481Y-124635189D01*
X83321404Y-124678971D01*
X83293335Y-124712547D01*
X83280966Y-124724271D01*
X83239270Y-124752428D01*
X83180266Y-124770825D01*
X83089527Y-124781476D01*
X82952624Y-124786392D01*
X82755132Y-124787584D01*
X82683170Y-124787481D01*
X82507377Y-124785322D01*
X82387840Y-124778855D01*
X82310414Y-124766113D01*
X82260956Y-124745132D01*
X82225323Y-124713944D01*
X82206543Y-124691445D01*
X82171191Y-124606206D01*
X82207394Y-124538792D01*
X82313919Y-124489845D01*
X82489532Y-124460006D01*
X82733000Y-124449917D01*
X83068224Y-124449917D01*
X83068224Y-124187288D01*
X82765610Y-124187288D01*
X82730106Y-124187128D01*
X82537902Y-124177574D01*
X82410390Y-124151378D01*
X82339672Y-124105919D01*
X82317854Y-124038574D01*
X82317855Y-124037829D01*
X82338454Y-123949214D01*
X82405571Y-123891096D01*
X82527985Y-123859293D01*
X82714478Y-123849622D01*
X82993187Y-123849622D01*
X82993187Y-123586993D01*
X82639441Y-123586993D01*
X82496098Y-123585191D01*
X82361111Y-123576202D01*
X82276053Y-123557825D01*
X82226738Y-123528035D01*
X82178870Y-123461005D01*
X82182066Y-123379966D01*
X82259847Y-123303287D01*
X82292718Y-123285357D01*
X82359775Y-123265446D01*
X82458166Y-123254681D01*
X82602395Y-123251796D01*
X82806965Y-123255524D01*
G37*
G36*
X63544179Y-123281155D02*
G01*
X63719509Y-123311825D01*
X63882227Y-123373032D01*
X63995177Y-123436348D01*
X64075375Y-123507008D01*
X64112412Y-123594028D01*
X64121400Y-123719284D01*
X64102276Y-123838932D01*
X64028261Y-123949683D01*
X63892825Y-124034610D01*
X63689937Y-124099018D01*
X63688110Y-124099448D01*
X63547321Y-124138988D01*
X63429573Y-124183463D01*
X63360189Y-124223326D01*
X63323389Y-124268180D01*
X63312799Y-124337359D01*
X63357341Y-124393405D01*
X63444615Y-124431832D01*
X63562226Y-124448154D01*
X63697775Y-124437884D01*
X63838864Y-124396537D01*
X63896375Y-124375493D01*
X64017854Y-124359187D01*
X64094630Y-124396996D01*
X64121400Y-124487218D01*
X64116510Y-124540710D01*
X64075739Y-124621187D01*
X63983710Y-124682632D01*
X63828538Y-124735105D01*
X63767772Y-124750558D01*
X63583401Y-124780024D01*
X63427993Y-124768956D01*
X63274285Y-124716436D01*
X63211152Y-124684060D01*
X63063017Y-124564327D01*
X62977623Y-124417307D01*
X62959057Y-124252880D01*
X63011404Y-124080922D01*
X63013214Y-124077460D01*
X63072281Y-123995635D01*
X63161327Y-123930328D01*
X63295223Y-123873296D01*
X63488836Y-123816299D01*
X63595325Y-123783034D01*
X63704054Y-123727899D01*
X63746219Y-123674954D01*
X63726673Y-123630909D01*
X63650270Y-123602474D01*
X63521863Y-123596358D01*
X63346308Y-123619272D01*
X63226439Y-123637426D01*
X63095158Y-123631095D01*
X63019880Y-123582526D01*
X62995846Y-123489962D01*
X63014029Y-123424635D01*
X63091161Y-123352763D01*
X63215140Y-123303585D01*
X63371101Y-123279062D01*
X63544179Y-123281155D01*
G37*
G36*
X76351559Y-123323504D02*
G01*
X76367645Y-123340837D01*
X76391181Y-123377468D01*
X76407606Y-123429948D01*
X76418184Y-123510113D01*
X76424177Y-123629800D01*
X76426846Y-123800845D01*
X76427456Y-124035087D01*
X76427173Y-124238156D01*
X76425339Y-124415679D01*
X76420576Y-124539536D01*
X76411512Y-124621245D01*
X76396773Y-124672327D01*
X76374986Y-124704299D01*
X76344779Y-124728682D01*
X76317993Y-124746402D01*
X76253681Y-124766715D01*
X76185326Y-124735667D01*
X76173989Y-124727665D01*
X76147971Y-124700571D01*
X76129412Y-124657479D01*
X76116716Y-124586579D01*
X76108284Y-124476066D01*
X76102519Y-124314132D01*
X76097823Y-124088970D01*
X76094553Y-123868785D01*
X76094440Y-123667881D01*
X76099710Y-123522580D01*
X76111728Y-123422366D01*
X76131860Y-123356720D01*
X76161472Y-123315127D01*
X76201928Y-123287068D01*
X76216467Y-123279857D01*
X76281962Y-123272722D01*
X76351559Y-123323504D01*
G37*
G36*
X72921606Y-123348963D02*
G01*
X72949796Y-123380944D01*
X72975932Y-123421307D01*
X72993688Y-123474039D01*
X73004684Y-123551673D01*
X73010535Y-123666743D01*
X73012860Y-123831782D01*
X73013275Y-124059325D01*
X73013079Y-124230397D01*
X73011432Y-124411017D01*
X73006855Y-124536912D01*
X72997882Y-124619881D01*
X72983042Y-124671717D01*
X72960867Y-124704218D01*
X72929890Y-124729178D01*
X72882547Y-124749838D01*
X72763997Y-124773272D01*
X72605479Y-124787623D01*
X72426077Y-124792960D01*
X72244875Y-124789347D01*
X72080954Y-124776854D01*
X71953400Y-124755546D01*
X71881296Y-124725491D01*
X71831307Y-124670053D01*
X71819985Y-124600857D01*
X71874777Y-124518529D01*
X71883252Y-124509749D01*
X71929166Y-124479493D01*
X72000935Y-124461249D01*
X72114919Y-124452297D01*
X72287480Y-124449917D01*
X72638091Y-124449917D01*
X72638091Y-123964620D01*
X72638114Y-123946833D01*
X72641187Y-123756516D01*
X72648690Y-123588184D01*
X72659560Y-123459519D01*
X72672735Y-123388201D01*
X72684359Y-123360898D01*
X72748017Y-123284117D01*
X72828465Y-123279923D01*
X72921606Y-123348963D01*
G37*
G36*
X77679055Y-123288466D02*
G01*
X77728354Y-123309515D01*
X77764618Y-123361830D01*
X77789663Y-123454144D01*
X77805304Y-123595191D01*
X77813358Y-123793704D01*
X77815639Y-124058416D01*
X77815627Y-124095654D01*
X77814600Y-124308421D01*
X77810897Y-124460518D01*
X77803081Y-124564463D01*
X77789717Y-124632772D01*
X77769369Y-124677961D01*
X77740602Y-124712547D01*
X77730039Y-124722646D01*
X77688482Y-124751503D01*
X77630152Y-124770371D01*
X77540489Y-124781303D01*
X77404931Y-124786356D01*
X77208918Y-124787584D01*
X77061249Y-124786744D01*
X76902488Y-124781805D01*
X76795695Y-124771020D01*
X76727281Y-124752784D01*
X76683660Y-124725491D01*
X76633671Y-124670053D01*
X76622348Y-124600857D01*
X76677141Y-124518529D01*
X76691692Y-124504169D01*
X76739000Y-124476650D01*
X76813679Y-124460117D01*
X76931593Y-124452047D01*
X77108603Y-124449917D01*
X77477973Y-124449917D01*
X77477973Y-123913403D01*
X77478191Y-123813325D01*
X77481638Y-123609100D01*
X77491584Y-123465340D01*
X77510973Y-123371640D01*
X77542750Y-123317595D01*
X77589856Y-123292798D01*
X77655238Y-123286845D01*
X77679055Y-123288466D01*
G37*
G36*
X58403789Y-123262863D02*
G01*
X58454694Y-123286087D01*
X58477966Y-123300987D01*
X58499289Y-123327739D01*
X58514006Y-123374303D01*
X58523332Y-123451725D01*
X58528486Y-123571048D01*
X58530686Y-123743317D01*
X58531148Y-123979577D01*
X58530473Y-124185576D01*
X58527343Y-124376009D01*
X58520840Y-124511028D01*
X58510074Y-124601384D01*
X58494155Y-124657827D01*
X58472191Y-124691107D01*
X58385334Y-124751426D01*
X58312133Y-124741742D01*
X58255700Y-124659135D01*
X58216120Y-124503735D01*
X58193482Y-124275672D01*
X58174723Y-123924919D01*
X57992903Y-124149900D01*
X57966838Y-124181816D01*
X57854762Y-124304388D01*
X57764430Y-124363148D01*
X57681466Y-124358356D01*
X57591494Y-124290269D01*
X57480137Y-124159149D01*
X57311798Y-123943418D01*
X57293039Y-124312373D01*
X57288948Y-124387308D01*
X57276971Y-124539427D01*
X57260622Y-124637732D01*
X57236562Y-124697612D01*
X57201452Y-124734455D01*
X57134368Y-124778030D01*
X57087174Y-124776313D01*
X57023984Y-124725491D01*
X57014786Y-124716547D01*
X56992008Y-124683478D01*
X56975860Y-124632420D01*
X56965233Y-124551966D01*
X56959015Y-124430708D01*
X56956099Y-124257236D01*
X56955373Y-124020144D01*
X56956391Y-123787640D01*
X56961123Y-123594556D01*
X56971640Y-123458139D01*
X56990007Y-123368775D01*
X57018290Y-123316848D01*
X57058554Y-123292743D01*
X57112863Y-123286845D01*
X57123123Y-123287663D01*
X57207284Y-123327486D01*
X57319310Y-123420518D01*
X57449321Y-123557547D01*
X57587437Y-123729360D01*
X57734767Y-123926826D01*
X57833473Y-123803808D01*
X57905877Y-123713725D01*
X58050876Y-123535734D01*
X58160643Y-123407571D01*
X58242998Y-123322719D01*
X58305761Y-123274662D01*
X58356751Y-123256882D01*
X58403789Y-123262863D01*
G37*
G36*
X81154215Y-124186182D02*
G01*
X81149993Y-124421328D01*
X81141386Y-124589139D01*
X81128079Y-124694566D01*
X81109760Y-124742561D01*
X81083487Y-124762553D01*
X81004708Y-124787584D01*
X81004535Y-124787583D01*
X80919706Y-124758902D01*
X80870515Y-124670253D01*
X80854634Y-124517451D01*
X80854634Y-124337362D01*
X80696190Y-124337362D01*
X80650039Y-124338482D01*
X80576691Y-124350979D01*
X80507022Y-124386123D01*
X80422764Y-124454675D01*
X80305651Y-124567394D01*
X80272658Y-124599906D01*
X80165133Y-124700438D01*
X80089676Y-124756703D01*
X80031634Y-124777851D01*
X79976355Y-124773031D01*
X79915458Y-124745783D01*
X79882054Y-124677065D01*
X79913847Y-124573091D01*
X80010918Y-124433060D01*
X80068431Y-124360970D01*
X80109761Y-124296055D01*
X80111653Y-124255376D01*
X80080144Y-124220394D01*
X80043182Y-124183378D01*
X79966652Y-124047969D01*
X79925799Y-123880507D01*
X79925308Y-123755888D01*
X80261009Y-123755888D01*
X80266782Y-123852303D01*
X80341174Y-123955637D01*
X80379284Y-123986365D01*
X80475713Y-124025895D01*
X80616309Y-124037214D01*
X80682835Y-124035670D01*
X80780455Y-124026633D01*
X80829622Y-124012202D01*
X80839126Y-123987606D01*
X80850285Y-123903853D01*
X80854634Y-123787091D01*
X80854634Y-123586993D01*
X80636598Y-123586993D01*
X80591303Y-123588144D01*
X80429680Y-123615810D01*
X80317445Y-123674391D01*
X80261009Y-123755888D01*
X79925308Y-123755888D01*
X79925119Y-123707861D01*
X79969109Y-123556902D01*
X79994616Y-123509741D01*
X80056541Y-123420729D01*
X80131635Y-123361090D01*
X80235350Y-123324256D01*
X80383136Y-123303657D01*
X80590444Y-123292723D01*
X80640817Y-123290906D01*
X80819708Y-123284810D01*
X80951533Y-123288168D01*
X81043448Y-123310341D01*
X81102608Y-123360688D01*
X81136166Y-123448570D01*
X81151278Y-123583348D01*
X81155099Y-123774381D01*
X81155083Y-123787091D01*
X81154782Y-124031031D01*
X81154215Y-124186182D01*
G37*
G36*
X82377850Y-115375348D02*
G01*
X82770007Y-115376179D01*
X83180779Y-115377843D01*
X85450646Y-115389208D01*
X85625232Y-115491840D01*
X85677962Y-115525171D01*
X85800860Y-115635970D01*
X85897241Y-115789975D01*
X85966193Y-115967551D01*
X85986290Y-116167106D01*
X85936520Y-116362517D01*
X85815625Y-116565744D01*
X85758854Y-116635999D01*
X85688251Y-116701540D01*
X85603784Y-116750825D01*
X85495265Y-116786122D01*
X85352506Y-116809703D01*
X85165319Y-116823837D01*
X84923517Y-116830794D01*
X84616912Y-116832845D01*
X83820696Y-116833669D01*
X83799834Y-121704153D01*
X83684327Y-121846841D01*
X83656503Y-121878660D01*
X83535170Y-121988852D01*
X83406417Y-122075410D01*
X83382444Y-122087571D01*
X83166805Y-122155007D01*
X82952264Y-122155116D01*
X82751489Y-122093674D01*
X82577145Y-121976452D01*
X82441899Y-121809224D01*
X82358418Y-121597762D01*
X82357889Y-121595333D01*
X82349340Y-121514785D01*
X82341731Y-121362686D01*
X82335115Y-121142325D01*
X82329544Y-120856989D01*
X82325071Y-120509968D01*
X82321750Y-120104550D01*
X82319632Y-119644023D01*
X82318772Y-119131675D01*
X82317854Y-116833669D01*
X81537333Y-116833669D01*
X81366523Y-116833566D01*
X81144938Y-116832464D01*
X80979139Y-116829207D01*
X80857250Y-116822650D01*
X80767392Y-116811648D01*
X80697688Y-116795054D01*
X80636261Y-116771724D01*
X80571233Y-116740513D01*
X80498886Y-116700363D01*
X80334237Y-116562019D01*
X80231835Y-116384782D01*
X80186778Y-116161262D01*
X80182917Y-116058776D01*
X80198765Y-115921742D01*
X80248084Y-115795412D01*
X80275775Y-115745299D01*
X80410086Y-115573589D01*
X80573506Y-115450721D01*
X80749875Y-115389759D01*
X80812451Y-115385885D01*
X80944183Y-115382454D01*
X81137025Y-115379646D01*
X81383896Y-115377497D01*
X81677712Y-115376041D01*
X82011390Y-115375313D01*
X82377850Y-115375348D01*
G37*
%TD*%
%LPC*%
D10*
%TO.C,H8*%
X151841200Y-85725000D03*
%TD*%
%TO.C,H5*%
X271462500Y-45243750D03*
%TD*%
%TO.C,H13*%
X271462500Y-88106250D03*
%TD*%
%TO.C,H1*%
X159543750Y-128587500D03*
%TD*%
%TO.C,H4*%
X64293750Y-45243750D03*
%TD*%
%TO.C,H14*%
X271462500Y-128587500D03*
%TD*%
%TO.C,H7*%
X47625000Y-59531250D03*
%TD*%
%TO.C,H15*%
X159543750Y-45243750D03*
%TD*%
%TO.C,H16*%
X47625000Y-128587500D03*
%TD*%
M02*
