%TF.GenerationSoftware,KiCad,Pcbnew,(7.0.0)*%
%TF.CreationDate,2023-03-05T09:14:01+05:30*%
%TF.ProjectId,Titan Keyboard,54697461-6e20-44b6-9579-626f6172642e,rev?*%
%TF.SameCoordinates,Original*%
%TF.FileFunction,Profile,NP*%
%FSLAX46Y46*%
G04 Gerber Fmt 4.6, Leading zero omitted, Abs format (unit mm)*
G04 Created by KiCad (PCBNEW (7.0.0)) date 2023-03-05 09:14:01*
%MOMM*%
%LPD*%
G01*
G04 APERTURE LIST*
%TA.AperFunction,Profile*%
%ADD10C,0.150000*%
%TD*%
%TA.AperFunction,Profile*%
%ADD11C,0.100000*%
%TD*%
G04 APERTURE END LIST*
D10*
X64986502Y-70772532D02*
X63177252Y-83646017D01*
X88851963Y-74126604D02*
X87042712Y-87000089D01*
D11*
X276224950Y-42862500D02*
G75*
G03*
X273843750Y-40481250I-2381250J0D01*
G01*
D10*
X154324795Y-85124405D02*
G75*
G03*
X154824765Y-85624405I500005J5D01*
G01*
X209384414Y-71947702D02*
G75*
G03*
X208842682Y-71493188I-498114J-43598D01*
G01*
X68178125Y-84348844D02*
G75*
G03*
X68603653Y-84913562I495175J-69556D01*
G01*
X248999692Y-87604583D02*
X250132717Y-100555114D01*
X69987356Y-71475356D02*
X68178106Y-84348841D01*
X130217903Y-112884975D02*
X143168434Y-114018000D01*
X100341743Y-89374073D02*
G75*
G03*
X100906465Y-88948512I69557J495173D01*
G01*
X254900074Y-91367148D02*
X267850605Y-90234123D01*
X195892152Y-72626228D02*
G75*
G03*
X195437632Y-73167888I43548J-498072D01*
G01*
X70552083Y-71049762D02*
G75*
G03*
X69987357Y-71475356I-69583J-495138D01*
G01*
X254459937Y-86336365D02*
X267410468Y-85203340D01*
X268392280Y-90688643D02*
X269525305Y-103639174D01*
X215548185Y-84458100D02*
G75*
G03*
X216089840Y-84912621I498115J43600D01*
G01*
X70552076Y-71049809D02*
X83425561Y-72859059D01*
X235052966Y-88824763D02*
X236185991Y-101775294D01*
X211044704Y-90925213D02*
G75*
G03*
X210502999Y-90470698I-498104J-43587D01*
G01*
X49313494Y-81697592D02*
G75*
G03*
X49739046Y-82262313I495106J-69608D01*
G01*
X197097948Y-92145397D02*
X198230973Y-105095928D01*
X247339375Y-68627074D02*
X248472400Y-81577605D01*
X233392649Y-69847254D02*
X234525674Y-82797785D01*
X148774765Y-85624365D02*
G75*
G03*
X149274765Y-85124405I35J499965D01*
G01*
X235507486Y-88283088D02*
X248458017Y-87150063D01*
X253239757Y-72389639D02*
X266190288Y-71256614D01*
X214869660Y-70965896D02*
X227820191Y-69832871D01*
X87468260Y-87564809D02*
X100341745Y-89374059D01*
D11*
X273843750Y-133350000D02*
X45243750Y-133350000D01*
X46355000Y-43662600D02*
X59055000Y-43662600D01*
X59055000Y-43662600D02*
X59055000Y-56362600D01*
X59055000Y-56362600D02*
X46355000Y-56362600D01*
X46355000Y-56362600D02*
X46355000Y-43662600D01*
D10*
X84128386Y-67858198D02*
G75*
G03*
X84693106Y-67432658I69614J495098D01*
G01*
X49739046Y-82262314D02*
X62612531Y-84071564D01*
X197112331Y-86572938D02*
X210062862Y-85439914D01*
X167824765Y-85624365D02*
G75*
G03*
X168324765Y-85124405I35J499965D01*
G01*
X141948252Y-127964733D02*
G75*
G03*
X142489928Y-127510206I43548J498133D01*
G01*
X235507484Y-88283071D02*
G75*
G03*
X235052966Y-88824763I43616J-498129D01*
G01*
X253239756Y-72389632D02*
G75*
G03*
X252785238Y-72931314I43544J-498068D01*
G01*
D11*
X42862500Y-130968750D02*
X42862500Y-42862500D01*
D10*
X73203324Y-52185202D02*
X86076809Y-53994452D01*
X226987955Y-51284824D02*
X228120980Y-64235355D01*
X198230944Y-105095931D02*
G75*
G03*
X198772648Y-105550446I498056J43531D01*
G01*
X233847169Y-69305579D02*
X246797700Y-68172554D01*
X128997722Y-126831701D02*
X141948253Y-127964725D01*
X254445554Y-91908823D02*
X255578579Y-104859354D01*
X247339335Y-68627078D02*
G75*
G03*
X246797700Y-68172555I-498135J-43622D01*
G01*
X252785238Y-72931314D02*
X253918262Y-85881845D01*
D11*
X45243750Y-40481250D02*
X273843750Y-40481250D01*
D10*
X230022218Y-89264896D02*
G75*
G03*
X229480508Y-88810381I-498118J-43604D01*
G01*
X233847167Y-69305556D02*
G75*
G03*
X233392649Y-69847254I43633J-498144D01*
G01*
X234525698Y-82797783D02*
G75*
G03*
X235067349Y-83252305I498102J43583D01*
G01*
X135774765Y-71624405D02*
X148774765Y-71624405D01*
X235067349Y-83252305D02*
X248017880Y-82119280D01*
X51687470Y-68398561D02*
X64560955Y-70207811D01*
X89416683Y-73701056D02*
X102290168Y-75510307D01*
X83851138Y-73423783D02*
G75*
G03*
X83425561Y-72859059I-495138J69583D01*
G01*
X68603653Y-84913562D02*
X81477138Y-86722812D01*
X135774765Y-71624365D02*
G75*
G03*
X135274765Y-72124405I35J-500035D01*
G01*
X240934681Y-50064644D02*
X242067706Y-63015175D01*
X154824765Y-85624405D02*
X167824765Y-85624405D01*
X143622995Y-114559679D02*
G75*
G03*
X143168434Y-114018001I-498095J43579D01*
G01*
X135774765Y-85624405D02*
X148774765Y-85624405D01*
X230700688Y-102757106D02*
G75*
G03*
X231155207Y-102215431I-43588J498106D01*
G01*
X168324795Y-72124405D02*
G75*
G03*
X167824765Y-71624405I-499995J5D01*
G01*
X71254900Y-66048955D02*
X84128385Y-67858205D01*
X212468417Y-52555119D02*
X213601442Y-65505650D01*
X212468415Y-52555119D02*
G75*
G03*
X211926742Y-52100600I-498015J-43481D01*
G01*
X228662655Y-64689875D02*
X241613186Y-63556850D01*
X87042674Y-87000084D02*
G75*
G03*
X87468260Y-87564808I495226J-69516D01*
G01*
X86502326Y-54559169D02*
G75*
G03*
X86076809Y-53994452I-495026J69669D01*
G01*
X254900074Y-91367146D02*
G75*
G03*
X254445555Y-91908823I43526J-498054D01*
G01*
X129676228Y-113339495D02*
X128543203Y-126290026D01*
X198976208Y-53233592D02*
G75*
G03*
X198521693Y-53775300I43592J-498108D01*
G01*
X102715715Y-76075027D02*
X100906465Y-88948512D01*
D11*
X276225000Y-42862500D02*
X276225000Y-130968750D01*
D10*
X266731963Y-71711134D02*
X267864988Y-84661665D01*
X216529977Y-89943405D02*
X229480508Y-88810380D01*
X72638603Y-52610749D02*
X70829353Y-65484234D01*
X210062859Y-85439882D02*
G75*
G03*
X210517382Y-84898238I-43559J498082D01*
G01*
D11*
X42862500Y-130968750D02*
G75*
G03*
X45243750Y-133350000I2381300J50D01*
G01*
D10*
X70829369Y-65484236D02*
G75*
G03*
X71254900Y-66048954I495031J-69664D01*
G01*
X213146924Y-66047335D02*
G75*
G03*
X213601442Y-65505650I-43624J498135D01*
G01*
X217208458Y-103435613D02*
G75*
G03*
X217750157Y-103890129I498042J43513D01*
G01*
X89416671Y-73701145D02*
G75*
G03*
X88851962Y-74126604I-69571J-495155D01*
G01*
X249678199Y-101096816D02*
G75*
G03*
X250132717Y-100555114I-43599J498116D01*
G01*
X73203322Y-52185213D02*
G75*
G03*
X72638603Y-52610749I-69622J-495087D01*
G01*
X102715713Y-76075027D02*
G75*
G03*
X102290168Y-75510307I-495213J69527D01*
G01*
X236727666Y-102229814D02*
X249678197Y-101096789D01*
X83851109Y-73423780D02*
X82041858Y-86297264D01*
X227442475Y-50743147D02*
G75*
G03*
X226987956Y-51284824I43525J-498053D01*
G01*
X197552468Y-91603722D02*
X210502999Y-90470697D01*
X227442475Y-50743149D02*
X240393006Y-49610124D01*
X168324765Y-72124405D02*
X168324765Y-85124405D01*
X211723177Y-104417396D02*
G75*
G03*
X212177699Y-103875747I-43577J498096D01*
G01*
X198521692Y-53775300D02*
X199654716Y-66725831D01*
X143622953Y-114559675D02*
X142489929Y-127510206D01*
X230022183Y-89264900D02*
X231155208Y-102215431D01*
X51687472Y-68398547D02*
G75*
G03*
X51122750Y-68824108I-69572J-495153D01*
G01*
X267410471Y-85203376D02*
G75*
G03*
X267864987Y-84661665I-43671J498176D01*
G01*
X217750157Y-103890130D02*
X230700688Y-102757106D01*
X266731989Y-71711132D02*
G75*
G03*
X266190288Y-71256615I-498089J-43568D01*
G01*
X62612528Y-84071585D02*
G75*
G03*
X63177251Y-83646017I69472J495285D01*
G01*
X248999733Y-87604579D02*
G75*
G03*
X248458017Y-87150064I-498133J-43621D01*
G01*
X81477132Y-86722857D02*
G75*
G03*
X82041857Y-86297264I69568J495157D01*
G01*
X255578626Y-104859350D02*
G75*
G03*
X256120254Y-105313873I498074J43550D01*
G01*
X197552470Y-91603743D02*
G75*
G03*
X197097948Y-92145397I43530J-498057D01*
G01*
X228361928Y-70287385D02*
G75*
G03*
X227820191Y-69832871I-498128J-43615D01*
G01*
X256120254Y-105313874D02*
X269070785Y-104180849D01*
X199654727Y-66725830D02*
G75*
G03*
X200196391Y-67180350I497973J43430D01*
G01*
X216529973Y-89943362D02*
G75*
G03*
X216075458Y-90485080I43627J-498138D01*
G01*
X154324765Y-72124405D02*
X154324765Y-85124405D01*
X248017874Y-82119210D02*
G75*
G03*
X248472399Y-81577605I-43474J498010D01*
G01*
X268392263Y-90688645D02*
G75*
G03*
X267850605Y-90234123I-498163J-43655D01*
G01*
X198772648Y-105550447D02*
X211723179Y-104417423D01*
X149274795Y-72124405D02*
G75*
G03*
X148774765Y-71624405I-499995J5D01*
G01*
X240934662Y-50064646D02*
G75*
G03*
X240393006Y-49610124I-498162J-43654D01*
G01*
D11*
X273843750Y-133350000D02*
G75*
G03*
X276225000Y-130968750I-50J2381300D01*
G01*
D10*
X86502356Y-54559173D02*
X84693106Y-67432658D01*
X236185972Y-101775296D02*
G75*
G03*
X236727666Y-102229813I498028J43496D01*
G01*
X229040370Y-83779591D02*
G75*
G03*
X229494890Y-83237922I-43570J498091D01*
G01*
X228121025Y-64235351D02*
G75*
G03*
X228662655Y-64689874I498075J43551D01*
G01*
X200196392Y-67180350D02*
X213146923Y-66047326D01*
X214415140Y-71507571D02*
X215548165Y-84458102D01*
X269070789Y-104180890D02*
G75*
G03*
X269525304Y-103639174I-43689J498190D01*
G01*
X154824765Y-71624405D02*
X167824765Y-71624405D01*
X154824765Y-71624365D02*
G75*
G03*
X154324765Y-72124405I35J-500035D01*
G01*
X211044674Y-90925216D02*
X212177699Y-103875747D01*
X130217898Y-112885028D02*
G75*
G03*
X129676228Y-113339494I-43598J-498072D01*
G01*
X149274765Y-72124405D02*
X149274765Y-85124405D01*
X216075457Y-90485080D02*
X217208482Y-103435611D01*
D11*
X45243750Y-40481250D02*
G75*
G03*
X42862500Y-42862500I-40J-2381210D01*
G01*
D10*
X228361866Y-70287391D02*
X229494891Y-83237922D01*
X51122749Y-68824108D02*
X49313499Y-81697593D01*
X216089840Y-84912621D02*
X229040371Y-83779597D01*
X195892151Y-72626213D02*
X208842682Y-71493188D01*
X209384357Y-71947707D02*
X210517382Y-84898238D01*
X195437631Y-73167888D02*
X196570656Y-86118419D01*
X135274765Y-72124405D02*
X135274765Y-85124405D01*
X241613190Y-63556891D02*
G75*
G03*
X242067705Y-63015175I-43690J498191D01*
G01*
X196570670Y-86118418D02*
G75*
G03*
X197112331Y-86572938I498130J43618D01*
G01*
X198976211Y-53233624D02*
X211926742Y-52100600D01*
X253918245Y-85881846D02*
G75*
G03*
X254459937Y-86336364I498155J43646D01*
G01*
X64986505Y-70772532D02*
G75*
G03*
X64560954Y-70207812I-495205J69532D01*
G01*
X135274795Y-85124405D02*
G75*
G03*
X135774765Y-85624405I500005J5D01*
G01*
X128543216Y-126290027D02*
G75*
G03*
X128997722Y-126831701I497984J-43673D01*
G01*
X214869664Y-70965937D02*
G75*
G03*
X214415140Y-71507571I43536J-498063D01*
G01*
M02*
